<?xml version="1.0" standalone="no"?>
<!DOCTYPE svg PUBLIC "-//W3C//DTD SVG 1.1//EN" "http://www.w3.org/Graphics/SVG/1.1/DTD/svg11.dtd" >
<svg>
<metadata>
Created by FontForge 20090914 at Thu Sep  5 10:42:16 2013
 By www-data
Copyright (c) 2006 by NORM, Dimitri Bruni, Manuel Krebs, Aur&#194;&#143;le Sack. All rights reserved. Omega is exclusively designed as Corporate Typeface and not available on the market.
</metadata>
<defs>
<font id="OmegaCT-Bold" horiz-adv-x="560" >
  <font-face 
    font-family="OMEGA CT"
    font-weight="700"
    font-stretch="normal"
    units-per-em="1000"
    panose-1="2 0 8 0 0 0 0 0 0 0"
    ascent="765"
    descent="-235"
    x-height="450"
    cap-height="700"
    bbox="-59.998 -257 2574 990"
    underline-thickness="50"
    underline-position="-50"
    unicode-range="U+0020-U+FB02"
  />
<missing-glyph horiz-adv-x="539" 
d="M362 102v496h-185v-496h185zM75 700h389v-700h-389v700z" />
    <glyph glyph-name="fi" unicode="fi" horiz-adv-x="586" 
d="M406 0v450h105v-450h-105zM115 497c0 38 5.16797 69.667 15.501 95s24.5 47 42.5 65s39 32.167 63 42.5s49.667 15.5 77 15.5s53 -5.16699 77 -15.5s45 -24.5 63 -42.5s32.167 -39 42.5 -63s15.5 -49.667 15.5 -77h-105c0 13.333 -2.5 25.833 -7.5 37.5
s-11.667 21.834 -20 30.501s-18.166 15.5 -29.499 20.5s-23.333 7.5 -36 7.5s-24.334 -2.33301 -35.001 -7s-20.334 -11 -29.001 -19c-9.33301 -8.66699 -16.5 -19.834 -21.5 -33.501s-7.5 -32.5 -7.5 -56.5v-47h110v-102h-110v-348h-105v348h-80v102h80v47z" />
    <glyph glyph-name="fl" unicode="fl" horiz-adv-x="586" 
d="M511 0h-104.996v497c0 24 -2.5 42.833 -7.5 56.5s-12.167 24.834 -21.5 33.501c-8.66699 8 -18.334 14.333 -29.001 19s-22.334 7 -35.001 7s-24.334 -2.33301 -35.001 -7s-20.334 -11 -29.001 -19c-9.33301 -8.66699 -16.5 -19.834 -21.5 -33.501s-7.5 -32.5 -7.5 -56.5
v-47h110v-102h-110v-348h-105v348h-80v102h80v47c0 38 5.16699 69.667 15.5 95s24.5 47 42.5 65s39 32.167 63 42.5s49.667 15.5 77 15.5s53 -5.16699 77 -15.5s45 -24.5 63 -42.5s32.167 -39.667 42.5 -65s15.5 -57 15.5 -95v-497z" />
    <glyph glyph-name=".notdef" horiz-adv-x="539" 
d="M362 102v496h-185v-496h185zM75 700h389v-700h-389v700z" />
    <glyph glyph-name="space" unicode=" " horiz-adv-x="250" 
 />
    <glyph glyph-name="exclam" unicode="!" horiz-adv-x="305" 
d="M205 700v-465h-105v465h105zM75 62c0 21.333 7.5 39.666 22.5 54.999s33.167 23 54.5 23s39.666 -7.66699 54.999 -23s23 -33.666 23 -54.999s-7.66699 -39.5 -23 -54.5s-33.666 -22.5 -54.999 -22.5s-39.5 7.5 -54.5 22.5s-22.5 33.167 -22.5 54.5z" />
    <glyph glyph-name="quotedbl" unicode="&#x22;" horiz-adv-x="410" 
d="M255 450v250h105v-250h-105zM50 450v250h105v-250h-105z" />
    <glyph glyph-name="numbersign" unicode="#" horiz-adv-x="687" 
d="M265 287h129l28 126h-129zM330 0l41 185h-128l-41 -185h-109l41 185h-109l23 102h109l28 126h-109l23 102h109l41 185h108l-41 -185h128l42 185h108l-41 -185h109l-23 -102h-109l-28 -126h109l-23 -102h-109l-41 -185h-108z" />
    <glyph glyph-name="dollar" unicode="$" 
d="M224 790l94.9971 -0.00488281v-82c34.667 -9.33301 64.834 -26.666 90.501 -51.999s43.167 -55.333 52.5 -90l-99 -24c-6.66699 20.667 -18.5 37.667 -35.5 51s-36.5 20 -58.5 20c-14 0 -26.667 -2.5 -38 -7.5s-21.166 -11.833 -29.499 -20.5s-14.833 -18.667 -19.5 -30
s-7 -23.333 -7 -36c0 -14 2.33301 -26.667 7 -38s10.667 -21 18 -29c13.333 -15.333 29 -26.5 47 -33.5s36.833 -13.833 56.5 -20.5s39.667 -14.5 60 -23.5s39.5 -22.833 57.5 -41.5c15.333 -15.333 28.333 -34.666 39 -57.999s16 -51 16 -83
c0 -24.667 -3.83301 -48 -11.5 -70s-18.334 -41.833 -32.001 -59.5s-30.167 -32.667 -49.5 -45s-40.666 -21.166 -63.999 -26.499v-81h-95v80c-38 8.66699 -71.333 26.334 -100 53.001s-47.667 59 -57 97l100 22c6 -21.333 18.667 -39.166 38 -53.499
s40.666 -21.5 63.999 -21.5c30.667 0 55.334 10.167 74.001 30.5s28 44.5 28 72.5c0 15.333 -3 29.5 -9 42.5s-13.333 23.167 -22 30.5c-14 12.667 -29.833 22.167 -47.5 28.5l-55 19.5c-19 6.66699 -38.167 14.667 -57.5 24s-37.666 23.333 -54.999 42
c-16.667 17.333 -30 38 -40 62s-15 50 -15 78c0 23.333 3.83301 45.5 11.5 66.5s18.5 40 32.5 57s30.333 31.333 49 43s39 20.167 61 25.5v81z" />
    <glyph glyph-name="percent" unicode="%" horiz-adv-x="938" 
d="M185 0l445 700h123l-445 -700h-123zM618 172c0 -23.333 7.5 -43.333 22.5 -60s34.833 -25 59.5 -25s44.667 8.33301 60 25s23 36.667 23 60s-7.66699 43.5 -23 60.5s-35.333 25.5 -60 25.5s-44.5 -8.5 -59.5 -25.5s-22.5 -37.167 -22.5 -60.5zM155 527
c0 -23.333 7.5 -43.333 22.5 -60s34.833 -25 59.5 -25s44.667 8.33301 60 25s23 36.667 23 60s-7.66699 43.5 -23 60.5s-35.333 25.5 -60 25.5s-44.5 -8.5 -59.5 -25.5s-22.5 -37.167 -22.5 -60.5zM50 527c0 26 4.83301 50.333 14.5 73s23 42.5 40 59.5
s36.833 30.5 59.5 40.5s47 15 73 15s50.333 -5 73 -15s42.5 -23.5 59.5 -40.5s30.5 -36.833 40.5 -59.5s15 -47 15 -73s-5 -50.333 -15 -73s-23.5 -42.5 -40.5 -59.5s-36.833 -30.333 -59.5 -40s-47 -14.5 -73 -14.5s-50.333 4.83301 -73 14.5s-42.5 23 -59.5 40
s-30.333 36.833 -40 59.5s-14.5 47 -14.5 73zM513 172c0 26 4.83301 50.333 14.5 73s23 42.5 40 59.5s36.833 30.5 59.5 40.5s47 15 73 15s50.333 -5 73 -15s42.5 -23.5 59.5 -40.5s30.5 -36.833 40.5 -59.5s15 -47 15 -73s-5 -50.333 -15 -73s-23.5 -42.5 -40.5 -59.5
s-36.833 -30.333 -59.5 -40s-47 -14.5 -73 -14.5s-50.333 4.83301 -73 14.5s-42.5 23 -59.5 40s-30.333 36.833 -40 59.5s-14.5 47 -14.5 73z" />
    <glyph glyph-name="ampersand" unicode="&#x26;" horiz-adv-x="670" 
d="M217 553c0 -12.667 3.83398 -24.167 11.501 -34.5l25.5 -33.5l16 -20l26 21c17.333 13.333 29.166 24.5 35.499 33.5s9.5 20.167 9.5 33.5c0 17.333 -6.33301 31.666 -19 42.999s-27 17 -43 17s-30.333 -5.66699 -43 -17s-19 -25.666 -19 -42.999zM245.001 87
c15.333 0 28.668 3.00098 40.001 9.00098s23 14.333 35 25l57 50l-120 146l-58 -48c-15.333 -13.333 -27.166 -26.5 -35.499 -39.5s-12.5 -28.167 -12.5 -45.5c0 -13.333 2.5 -25.833 7.5 -37.5s11.667 -21.834 20 -30.501s18.166 -15.667 29.499 -21s23.666 -8 36.999 -8z
M525.003 157.001l130.001 -157.001h-136l-75 91l-64 -53c-19.333 -15.333 -39.166 -28 -59.499 -38s-46.166 -15 -77.499 -15c-27.333 0 -53 5.16699 -77 15.5s-45 24.5 -63 42.5s-32.167 39 -42.5 63s-15.5 49.667 -15.5 77c0 34 6.83301 63.833 20.5 89.5
s35.5 51.167 65.5 76.5l59 49l-26 32c-18 22 -31.167 42.5 -39.5 61.5s-12.5 39.5 -12.5 61.5c0 23.333 4.5 44.833 13.5 64.5s21.167 36.834 36.5 51.501s33.166 26 53.499 34s42.166 12 65.499 12s45.166 -4.5 65.499 -13.5s37.833 -21 52.5 -36s26.167 -32.333 34.5 -52
s12.5 -40.5 12.5 -62.5s-4.83301 -43.5 -14.5 -64.5s-27.167 -42.833 -52.5 -65.5l-42 -37l121 -146l148 122v-136z" />
    <glyph glyph-name="quotesingle" unicode="'" horiz-adv-x="205" 
d="M50 450v250h105v-250h-105z" />
    <glyph glyph-name="parenleft" unicode="(" horiz-adv-x="392" 
d="M80 232c0 50 5.66699 98.333 17 145s27.333 90.667 48 132s45.667 80 75 116s62 68 98 96l64 -84c-60.667 -47.333 -108.667 -106 -144 -176s-53 -146.333 -53 -229s17.667 -159 53 -229s83.333 -128.667 144 -176l-64 -84c-36 28 -68.667 60 -98 96
s-54.333 74.667 -75 116s-36.667 85.333 -48 132s-17 95 -17 145z" />
    <glyph glyph-name="parenright" unicode=")" horiz-adv-x="392" 
d="M312 232c0 -50 -5.66699 -98.333 -17 -145s-27.333 -90.667 -48 -132s-45.667 -80 -75 -116s-62 -68 -98 -96l-64 84c60.667 47.333 108.667 106 144 176s53 146.333 53 229s-17.667 159 -53 229s-83.333 128.667 -144 176l64 84c36 -28 68.667 -60 98 -96
s54.333 -74.667 75 -116s36.667 -85.333 48 -132s17 -95 17 -145z" />
    <glyph glyph-name="asterisk" unicode="*" horiz-adv-x="510" 
d="M342 550l138 2v-105l-137 1l70 -117l-91 -53l-67 120l-67 -120l-91 53l70 118l-137 -2v105l137 -2l-70 118l91 52l67 -119l67 119l91 -52z" />
    <glyph glyph-name="plus" unicode="+" 
d="M333 450v-153h152v-102h-152v-152h-105v152h-153v102h153v153h105z" />
    <glyph glyph-name="comma" unicode="," horiz-adv-x="295" 
d="M90 125h115l-116 -250h-116z" />
    <glyph glyph-name="hyphen" unicode="-" horiz-adv-x="440" 
d="M55 324h330v-102h-330v102z" />
    <glyph glyph-name="period" unicode="." horiz-adv-x="295" 
d="M70 62c0 21.333 7.5 39.666 22.5 54.999s33.167 23 54.5 23s39.666 -7.66699 54.999 -23s23 -33.666 23 -54.999s-7.66699 -39.5 -23 -54.5s-33.666 -22.5 -54.999 -22.5s-39.5 7.5 -54.5 22.5s-22.5 33.167 -22.5 54.5z" />
    <glyph glyph-name="slash" unicode="/" horiz-adv-x="459" 
d="M0 0l341 700h118l-342 -700h-117z" />
    <glyph glyph-name="zero" unicode="0" 
d="M513 302c0 -12 -0.166992 -22.667 -0.5 -32s-0.666016 -18 -0.999023 -26s-0.833008 -17.667 -1.5 -29c-2 -32 -9.16699 -61.833 -21.5 -89.5s-28.666 -52 -48.999 -73s-44 -37.5 -71 -49.5s-56.5 -18 -88.5 -18s-61.5 6 -88.5 18s-50.667 28.5 -71 49.5
s-36.666 45.333 -48.999 73s-19.5 57.5 -21.5 89.5c-0.666992 11.333 -1.16699 21 -1.5 29s-0.666016 16.667 -0.999023 26s-0.5 20 -0.5 32v95c0 12.667 0.166992 23.667 0.5 33s0.666016 18 0.999023 26s0.833008 17.667 1.5 29c2 32 9.16699 61.833 21.5 89.5
s28.666 52 48.999 73s44 37.5 71 49.5s56.5 18 88.5 18s61.5 -6 88.5 -18s50.667 -28.5 71 -49.5s36.666 -45.333 48.999 -73s19.5 -57.5 21.5 -89.5c0.666992 -11.333 1.16699 -21 1.5 -29s0.666016 -16.667 0.999023 -26s0.5 -20.333 0.5 -33v-95zM408 350
c0 25.333 -0.166992 50.166 -0.5 74.499s-1.16602 45.5 -2.49902 63.5c-1.33301 17.333 -5.33301 33.5 -12 48.5s-15.5 28.167 -26.5 39.5s-23.833 20.333 -38.5 27s-30.667 10 -48 10s-33.333 -3.33301 -48 -10s-27.5 -15.667 -38.5 -27s-19.833 -24.5 -26.5 -39.5
s-10.667 -31.167 -12 -48.5c-1.33301 -18 -2.16602 -39.167 -2.49902 -63.5s-0.5 -49.166 -0.5 -74.499s0.166992 -50.166 0.5 -74.499s1.16602 -45.5 2.49902 -63.5c1.33301 -17.333 5.33301 -33.5 12 -48.5s15.5 -28.167 26.5 -39.5s23.833 -20.333 38.5 -27
s30.667 -10 48 -10s33.333 3.33301 48 10s27.5 15.667 38.5 27s19.833 24.5 26.5 39.5s10.667 31.167 12 48.5c1.33301 18 2.16602 39.167 2.49902 63.5s0.5 49.166 0.5 74.499z" />
    <glyph glyph-name="one" unicode="1" 
d="M251 102v425l-140 -94v123l245 164v-618h160v-102h-435v102h170z" />
    <glyph glyph-name="two" unicode="2" 
d="M259 102l250.003 0.000976562v-102h-464l299 378c19.333 24.667 33.166 46.5 41.499 65.5s12.5 37.167 12.5 54.5c0 16.667 -3.16699 32 -9.5 46s-15 26.167 -26 36.5s-23.667 18.333 -38 24s-29.833 8.5 -46.5 8.5c-17.333 0 -33.333 -3.33301 -48 -10
s-27.334 -15.667 -38.001 -27s-19 -24.333 -25 -39s-9 -30.334 -9 -47.001h-105c0 30.667 5.83301 59.667 17.5 87s27.834 51.333 48.501 72s44.5 36.834 71.5 48.501s56.167 17.5 87.5 17.5s60.666 -5.5 87.999 -16.5s51.166 -26.333 71.499 -46s36.333 -42.834 48 -69.501
s17.5 -56 17.5 -88c0 -26.667 -5.16699 -53.667 -15.5 -81s-29.833 -59.333 -58.5 -96z" />
    <glyph glyph-name="three" unicode="3" 
d="M470 524c0 -30 -6.16602 -57.499 -18.499 -82.499s-30.166 -44.833 -53.499 -59.5c27.333 -16 50.833 -39.167 70.5 -69.5s29.5 -65.5 29.5 -105.5c0 -30.667 -5.66699 -59.5 -17 -86.5s-27 -50.5 -47 -70.5s-43.333 -35.833 -70 -47.5s-55 -17.5 -85 -17.5
c-31.333 0 -60.666 5.66699 -87.999 17s-51.166 27 -71.499 47s-36.5 43.5 -48.5 70.5s-18 56.167 -18 87.5h105c0 -16.667 3 -32.167 9 -46.5s14.5 -27 25.5 -38s23.667 -19.667 38 -26s30.166 -9.5 47.499 -9.5c16.667 0 32.167 3.16699 46.5 9.5s26.5 15 36.5 26
s17.833 23.833 23.5 38.5s8.5 30 8.5 46c0 17.333 -3.33301 33.833 -10 49.5s-16 29.167 -28 40.5c-10 9.33301 -21.667 16.666 -35 21.999s-30 8 -50 8h-21v102h19c16 0 29.167 1.83301 39.5 5.5s19.166 8.83398 26.499 15.501c9.33301 8.66699 16.833 19 22.5 31
s8.5 25 8.5 39c0 12.667 -2.16699 24.5 -6.5 35.5s-10.5 20.833 -18.5 29.5s-17.5 15.5 -28.5 20.5s-22.833 7.5 -35.5 7.5c-13.333 0 -25.5 -2.5 -36.5 -7.5s-20.5 -11.833 -28.5 -20.5s-14.333 -18.5 -19 -29.5s-7 -22.833 -7 -35.5h-105c0 26.667 5.16699 52 15.5 76
s24.166 44.667 41.499 62s37.833 31.166 61.5 41.499s49.167 15.5 76.5 15.5c26.667 0 52 -5 76 -15s44.667 -23.667 62 -41s31.166 -37.5 41.499 -60.5s15.5 -47.833 15.5 -74.5z" />
    <glyph glyph-name="four" unicode="4" 
d="M344 189v220l-163 -220h163zM-10 90l459 630v-531h100v-99h-100v-90h-105v90h-354z" />
    <glyph glyph-name="five" unicode="5" 
d="M80 361l75 339h300v-102h-215l-35 -156c8.66699 4.66699 21 9.16699 37 13.5s32 6.5 48 6.5c33.333 0 64 -6.5 92 -19.5s52 -30.5 72 -52.5s35.5 -47.5 46.5 -76.5s16.5 -59.5 16.5 -91.5c0 -33.333 -6.33301 -64.333 -19 -93s-30 -53.667 -52 -75
s-47.5 -38.166 -76.5 -50.499s-59.833 -18.5 -92.5 -18.5c-33.333 0 -64.5 6.33301 -93.5 19s-54.333 29.834 -76 51.501s-38.834 47 -51.501 76s-19 60.167 -19 93.5h105c0 -18.667 3.33301 -36.334 10 -53.001s16 -31.334 28 -44.001s26.333 -22.667 43 -30
s34.667 -11 54 -11s37.333 3.66699 54 11s31 17.333 43 30s21.333 27.334 28 44.001s10 34.334 10 53.001c0 18 -3.33301 35.167 -10 51.5s-15.667 30.666 -27 42.999s-25.166 22.166 -41.499 29.499s-33.833 11 -52.5 11c-26.667 0 -49.167 -5 -67.5 -15
s-34.5 -24.667 -48.5 -44z" />
    <glyph glyph-name="six" unicode="6" 
d="M276 700l122.005 0.00292969l-142 -245c6 1.33301 12.667 2.33301 20 3s14.666 1 21.999 1c24.667 0 50.167 -5.16699 76.5 -15.5s50.166 -25.5 71.499 -45.5s39 -44.5 53 -73.5s21 -62.167 21 -99.5c0 -33.333 -6.33301 -64.5 -19 -93.5s-29.834 -54.333 -51.501 -76
s-47.167 -38.834 -76.5 -51.501s-60.333 -19 -93 -19c-33.333 0 -64.5 6.16699 -93.5 18.5s-54.333 29.166 -76 50.499s-38.834 46.166 -51.501 74.499s-19 58.833 -19 91.5c0 11.333 0.666992 22.5 2 33.5s4 22.833 8 35.5s9.66699 26.667 17 42s16.666 33 27.999 53z
M280.005 87.0029c19.333 0 37.333 3.66699 54 11s31 17.333 43 30s21.333 27.334 28 44.001s10 34.334 10 53.001s-3.33301 36.334 -10 53.001s-16 31.334 -28 44.001s-26.333 22.667 -43 30s-34.667 11 -54 11s-37.333 -3.66699 -54 -11s-31 -17.333 -43 -30
s-21.333 -27.334 -28 -44.001s-10 -34.334 -10 -53.001s3.33301 -36.334 10 -53.001s16 -31.334 28 -44.001s26.333 -22.667 43 -30s34.667 -11 54 -11z" />
    <glyph glyph-name="seven" unicode="7" 
d="M531 700l-304 -700h-115l260 598h-310v102h469z" />
    <glyph glyph-name="eight" unicode="8" 
d="M280 715c26.667 0 51.8301 -5 75.4971 -15s44.334 -23.667 62.001 -41s31.667 -37.5 42 -60.5s15.5 -47.833 15.5 -74.5c0 -29.333 -6.16699 -56.166 -18.5 -80.499s-28.5 -44.833 -48.5 -61.5c28 -19.333 50.667 -44.666 68 -75.999s26 -66 26 -104
c0 -30 -5.83301 -58.333 -17.5 -85s-27.667 -49.667 -48 -69s-44 -34.666 -71 -45.999s-55.5 -17 -85.5 -17s-58.5 5.66699 -85.5 17s-50.667 26.666 -71 45.999s-36.333 42.333 -48 69s-17.5 55 -17.5 85c0 38 8.66699 72.667 26 104s40 56.666 68 75.999
c-20 16.667 -36.167 37.167 -48.5 61.5s-18.5 51.166 -18.5 80.499c0 26.667 5.16699 51.5 15.5 74.5s24.333 43.167 42 60.5s38.334 31 62.001 41s48.834 15 75.501 15zM396.996 207c0 16 -2.83301 31.333 -8.5 46s-13.834 27.5 -24.501 38.5s-23.167 19.667 -37.5 26
s-29.833 9.5 -46.5 9.5c-17.333 0 -33 -3.16699 -47 -9.5s-26.333 -15 -37 -26s-18.834 -23.833 -24.501 -38.5s-8.5 -30 -8.5 -46s2.83301 -31.333 8.5 -46s13.834 -27.5 24.501 -38.5s23 -19.667 37 -26s29.667 -9.5 47 -9.5c16.667 0 32.167 3.16699 46.5 9.5
s26.833 15 37.5 26s18.834 23.833 24.501 38.5s8.5 30 8.5 46zM369.996 520c0 25.333 -8.33301 47.166 -25 65.499s-38.334 27.5 -65.001 27.5s-48.334 -9.16699 -65.001 -27.5s-25 -40.166 -25 -65.499s8.33301 -47.166 25 -65.499s38.334 -27.5 65.001 -27.5
s48.334 9.16699 65.001 27.5s25 40.166 25 65.499z" />
    <glyph glyph-name="nine" unicode="9" 
d="M284 0l-122.005 -0.00292969l142 245c-6 -1.33301 -12.667 -2.33301 -20 -3s-14.666 -1 -21.999 -1c-24.667 0 -50.167 5.16699 -76.5 15.5s-50.166 25.5 -71.499 45.5s-39 44.5 -53 73.5s-21 62.167 -21 99.5c0 32.667 6.33301 63.667 19 93s29.834 54.833 51.501 76.5
s47 38.834 76 51.501s60.167 19 93.5 19c32.667 0 63.667 -6.16699 93 -18.5s54.833 -29.166 76.5 -50.499s38.834 -46.166 51.501 -74.499s19 -58.833 19 -91.5c0 -11.333 -0.666992 -22.5 -2 -33.5s-4 -22.833 -8 -35.5s-9.66699 -26.667 -17 -42s-16.666 -33 -27.999 -53
zM279.995 612.997c-19.333 0 -37.333 -3.66699 -54 -11s-31 -17.333 -43 -30s-21.333 -27.334 -28 -44.001s-10 -34.334 -10 -53.001s3.33301 -36.334 10 -53.001s16 -31.334 28 -44.001s26.333 -22.667 43 -30s34.667 -11 54 -11s37.333 3.66699 54 11s31 17.333 43 30
s21.333 27.334 28 44.001s10 34.334 10 53.001s-3.33301 36.334 -10 53.001s-16 31.334 -28 44.001s-26.333 22.667 -43 30s-34.667 11 -54 11z" />
    <glyph glyph-name="colon" unicode=":" horiz-adv-x="295" 
d="M70 387c0 21.333 7.5 39.666 22.5 54.999s33.167 23 54.5 23s39.666 -7.66699 54.999 -23s23 -33.666 23 -54.999s-7.66699 -39.5 -23 -54.5s-33.666 -22.5 -54.999 -22.5s-39.5 7.5 -54.5 22.5s-22.5 33.167 -22.5 54.5zM70 62c0 21.333 7.5 39.666 22.5 54.999
s33.167 23 54.5 23s39.666 -7.66699 54.999 -23s23 -33.666 23 -54.999s-7.66699 -39.5 -23 -54.5s-33.666 -22.5 -54.999 -22.5s-39.5 7.5 -54.5 22.5s-22.5 33.167 -22.5 54.5z" />
    <glyph glyph-name="semicolon" unicode=";" horiz-adv-x="295" 
d="M90 125h115l-116 -250h-116zM70 387c0 21.333 7.5 39.666 22.5 54.999s33.167 23 54.5 23s39.666 -7.66699 54.999 -23s23 -33.666 23 -54.999s-7.66699 -39.5 -23 -54.5s-33.666 -22.5 -54.999 -22.5s-39.5 7.5 -54.5 22.5s-22.5 33.167 -22.5 54.5z" />
    <glyph glyph-name="less" unicode="&#x3c;" 
d="M261 245l201 -105v-120l-408 225l408 225v-120z" />
    <glyph glyph-name="equal" unicode="=" 
d="M515 93h-470v102h470v-102zM515 297h-470v102h470v-102z" />
    <glyph glyph-name="greater" unicode="&#x3e;" 
d="M98 350v120l408 -225l-408 -225v120l201 105z" />
    <glyph glyph-name="question" unicode="?" horiz-adv-x="426" 
d="M209 715c21.333 0 41.502 -3.83398 60.502 -11.501s35.667 -18.334 50 -32.001s25.666 -29.667 33.999 -48s12.5 -37.833 12.5 -58.5c0 -18.667 -2.5 -35 -7.5 -49s-11.167 -26.333 -18.5 -37c-15.333 -20.667 -34.5 -37.167 -57.5 -49.5l-72.5 -37.5
c-21.333 -10 -32 -23.667 -32 -41c0 -9.33301 3.16699 -17 9.5 -23s13.5 -9 21.5 -9c10 0 18.167 3.5 24.5 10.5s9.5 15.5 9.5 25.5h104c0 -18.667 -3.66699 -36.167 -11 -52.5s-17.333 -30.666 -30 -42.999s-27.5 -22 -44.5 -29s-34.833 -10.5 -53.5 -10.5
c-18 0 -35.167 3.33301 -51.5 10s-30.666 15.834 -42.999 27.501s-22 25.334 -29 41.001s-10.5 32.5 -10.5 50.5c0 16.667 2.33301 31.167 7 43.5s10.667 23.5 18 33.5c8.66699 12 18.667 22.333 30 31s23 16.5 35 23.5s24 13.333 36 19s23 11.5 33 17.5
c19.333 11.333 29 26.666 29 45.999c0 15.333 -5.33301 28 -16 38s-23 15 -37 15c-17.333 0 -30.833 -5.66699 -40.5 -17s-14.5 -25 -14.5 -41h-104c0 22 4.16699 42.5 12.5 61.5s19.666 35.5 33.999 49.5s31.166 25.167 50.499 33.5s40 12.5 62 12.5zM131.002 61.999
c0 21.333 7.5 39.666 22.5 54.999s33.167 23 54.5 23s39.666 -7.66699 54.999 -23s23 -33.666 23 -54.999s-7.66699 -39.5 -23 -54.5s-33.666 -22.5 -54.999 -22.5s-39.5 7.5 -54.5 22.5s-22.5 33.167 -22.5 54.5z" />
    <glyph glyph-name="at" unicode="@" horiz-adv-x="1035" 
d="M497 117c32 0 58.333 10.833 79 32.5s31 48.5 31 80.5s-10.333 58.833 -31 80.5s-47 32.5 -79 32.5s-58.333 -10.833 -79 -32.5s-31 -48.5 -31 -80.5s10.333 -58.833 31 -80.5s47 -32.5 79 -32.5zM770 -124c-36 -25.333 -75.3359 -45.166 -118.003 -59.499
s-87.667 -21.5 -135 -21.5c-60.667 0 -117.5 11.333 -170.5 34s-99.333 53.834 -139 93.501s-70.834 86 -93.501 139s-34 109.833 -34 170.5s11.333 117.5 34 170.5s53.834 99.333 93.501 139s86 71 139 94s109.833 34.5 170.5 34.5s117.5 -10.833 170.5 -32.5
s99.333 -51.5 139 -89.5s71 -82.667 94 -134s34.5 -106.333 34.5 -165c0 -28 -3.66699 -56 -11 -84s-18.666 -53 -33.999 -75s-35 -40 -59 -54s-52.333 -21 -85 -21c-30 0 -55.5 7 -76.5 21s-37.5 31 -49.5 51c-15.333 -21.333 -35.666 -38.666 -60.999 -51.999
s-56 -20 -92 -20c-27.333 0 -53.333 5.66699 -78 17s-46.5 26.666 -65.5 45.999s-34 42.166 -45 68.499s-16.5 54.166 -16.5 83.499s5.5 57 16.5 83s26 48.833 45 68.5s40.833 35.167 65.5 46.5s50.667 17 78 17c48.667 0 88.667 -14 120 -42v27h105v-226
c0 -19.333 1.83301 -34.166 5.5 -44.499s8.5 -18.5 14.5 -24.5c12 -12 25.333 -18 40 -18c24.667 0 44.334 11.167 59.001 33.5s22 55.833 22 100.5c0 44 -9 85.333 -27 124s-42.333 72.167 -73 100.5s-66.334 50.833 -107.001 67.5s-83.667 25 -129 25
c-46.667 0 -90.334 -8.83301 -131.001 -26.5s-76.167 -41.667 -106.5 -72s-54.166 -65.833 -71.499 -106.5s-26 -84.334 -26 -131.001s8.66699 -90.334 26 -131.001s41.166 -76.167 71.499 -106.5s65.833 -54.166 106.5 -71.499s84.334 -26 131.001 -26
c36.667 0 71.334 5.5 104.001 16.5s62.667 26.167 90 45.5z" />
    <glyph glyph-name="A" unicode="A" horiz-adv-x="734" 
d="M239 239h255l-127 255zM0 0l367 720l367 -720h-119l-70 137h-357l-69 -137h-119z" />
    <glyph glyph-name="B" unicode="B" horiz-adv-x="575" 
d="M75 0l0.00195312 700.001h209c38 0 69.667 -5.16699 95 -15.5s47 -24.833 65 -43.5c17.333 -17.333 31 -37.833 41 -61.5s15 -48.834 15 -75.501c0 -32 -5.83301 -58.667 -17.5 -80s-26.834 -39.333 -45.501 -54c26.667 -14 48.834 -34.833 66.501 -62.5
s26.5 -61.5 26.5 -101.5c0 -28.667 -5.33301 -55.667 -16 -81s-25.334 -47.333 -44.001 -66c-19.333 -19.333 -42.333 -34 -69 -44s-59.334 -15 -98.001 -15h-228zM284.002 412.001c23.333 0 41.832 2.83301 55.499 8.5s24.834 13.5 33.501 23.5
c14.667 16.667 22 36.667 22 60c0 22 -7.33301 42 -22 60c-8.66699 10.667 -19.667 19 -33 25s-32 9 -56 9h-104v-186h104zM180.001 310.001v-207.997h123c25.333 0 45.333 3.16699 60 9.5s26.667 14.833 36 25.5c8 9.33301 14.333 19.833 19 31.5s7 24.167 7 37.5
s-2.33301 25.666 -7 36.999s-11 21.666 -19 30.999c-9.33301 11.333 -21.333 20.166 -36 26.499s-34.667 9.5 -60 9.5h-123z" />
    <glyph glyph-name="C" unicode="C" horiz-adv-x="738" 
d="M150 350c0 -36.667 6.66699 -70.998 20 -102.998s31.666 -59.833 54.999 -83.5s50.833 -42.334 82.5 -56.001s65.834 -20.5 102.501 -20.5c45.333 0 86.5 10.333 123.5 31s67.167 48 90.5 82l84 -60c-33.333 -47.333 -75.833 -85 -127.5 -113s-108.5 -42 -170.5 -42
c-50 0 -97.167 9.66699 -141.5 29s-83 45.5 -116 78.5s-59.167 71.667 -78.5 116s-29 91.5 -29 141.5s9.66699 97.167 29 141.5s45.5 83 78.5 116s71.667 59.167 116 78.5s91.5 29 141.5 29c62 0 118.833 -14 170.5 -42s94.167 -65.667 127.5 -113l-84 -60
c-23.333 34 -53.5 61.333 -90.5 82s-78.167 31 -123.5 31c-36.667 0 -70.834 -6.83301 -102.501 -20.5s-59.167 -32.334 -82.5 -56.001s-41.666 -51.5 -54.999 -83.5s-20 -66.333 -20 -103z" />
    <glyph glyph-name="D" unicode="D" horiz-adv-x="670" 
d="M255 700c62 0 116.167 -10.0039 162.5 -30.0039s85.5 -48 117.5 -84c28 -31.333 50 -67.166 66 -107.499s24 -83.166 24 -128.499s-8 -88.166 -24 -128.499s-38 -76.166 -66 -107.499c-32 -36 -71.167 -64 -117.5 -84s-100.5 -30 -162.5 -30h-180v700h180zM180 597.996
v-496.002h75c46 0 85 6.83301 117 20.5s59.333 32.834 82 57.501c20.667 22.667 36.834 48.667 48.501 78s17.5 60 17.5 92s-5.83301 62.667 -17.5 92s-27.834 55.333 -48.501 78c-22.667 24.667 -50 43.834 -82 57.501s-71 20.5 -117 20.5h-75z" />
    <glyph glyph-name="E" unicode="E" 
d="M500 700v-102h-320v-196h310v-102h-310v-198h320v-102h-425v700h425z" />
    <glyph glyph-name="F" unicode="F" horiz-adv-x="530" 
d="M75 0v700h425v-102h-320v-196h310v-102h-310v-300h-105z" />
    <glyph glyph-name="G" unicode="G" horiz-adv-x="815" 
d="M410 613c-36.667 0 -70.834 -6.83203 -102.501 -20.499s-59.167 -32.334 -82.5 -56.001s-41.666 -51.5 -54.999 -83.5s-20 -66.333 -20 -103s6.66699 -71 20 -103s31.666 -59.833 54.999 -83.5s50.833 -42.334 82.5 -56.001s65.834 -20.5 102.501 -20.5
c30 0 58.5 4.66699 85.5 14s51.5 22.333 73.5 39s41 36.334 57 59.001s27.667 47.667 35 75h-245v102h358c0.666992 -4 1 -8.33301 1 -13v-13c0 -50 -9.66699 -97.167 -29 -141.5s-45.5 -83 -78.5 -116s-71.667 -59.167 -116 -78.5s-91.5 -29 -141.5 -29
s-97.167 9.66699 -141.5 29s-83 45.5 -116 78.5s-59.167 71.667 -78.5 116s-29 91.5 -29 141.5s9.66699 97.167 29 141.5s45.5 83 78.5 116s71.667 59.167 116 78.5s91.5 29 141.5 29c62 0 118.833 -14 170.5 -42s94.167 -65.667 127.5 -113l-84 -60
c-23.333 34 -53.5 61.333 -90.5 82s-78.167 31 -123.5 31z" />
    <glyph glyph-name="H" unicode="H" horiz-adv-x="680" 
d="M500 0v300h-320v-300h-105v700h105v-298h320v298h105v-700h-105z" />
    <glyph glyph-name="I" unicode="I" horiz-adv-x="255" 
d="M75 0v700h105v-700h-105z" />
    <glyph glyph-name="J" unicode="J" horiz-adv-x="392" 
d="M79 120c6.66699 -10 15.666 -18 26.999 -24s23.333 -9 36 -9c19.333 0 36 6.33301 50 19c7.33301 7.33301 13.333 16.5 18 27.5s7 27.167 7 48.5v518h105v-515c0 -38 -5.66699 -69.5 -17 -94.5s-26.666 -45.833 -45.999 -62.5
c-15.333 -13.333 -33.166 -23.833 -53.499 -31.5s-41.5 -11.5 -63.5 -11.5c-30 0 -57.833 6.83301 -83.5 20.5s-46.834 32.167 -63.501 55.5z" />
    <glyph glyph-name="K" unicode="K" horiz-adv-x="637" 
d="M75 0v700h105v-320l283 320h143l-303 -340l329 -360h-145l-307 336v-336h-105z" />
    <glyph glyph-name="L" unicode="L" horiz-adv-x="515" 
d="M500 102v-102h-425v700h105v-598h320z" />
    <glyph glyph-name="M" unicode="M" horiz-adv-x="896" 
d="M15 0l227 720l206 -480l206 480l227 -720h-110l-132 424l-191 -444l-191 444l-132 -424h-110z" />
    <glyph glyph-name="N" unicode="N" horiz-adv-x="680" 
d="M180 449v-449h-105v720l425 -469v449h105v-720z" />
    <glyph glyph-name="O" unicode="O" horiz-adv-x="820" 
d="M670 350c0 36.667 -6.66699 71 -20 103s-31.666 59.833 -54.999 83.5s-50.833 42.334 -82.5 56.001s-65.834 20.5 -102.501 20.5s-70.834 -6.83301 -102.501 -20.5s-59.167 -32.334 -82.5 -56.001s-41.666 -51.5 -54.999 -83.5s-20 -66.333 -20 -103s6.66699 -71 20 -103
s31.666 -59.833 54.999 -83.5s50.833 -42.334 82.5 -56.001s65.834 -20.5 102.501 -20.5s70.834 6.83301 102.501 20.5s59.167 32.334 82.5 56.001s41.666 51.5 54.999 83.5s20 66.333 20 103zM45 350c0 50 9.66699 97.167 29 141.5s45.5 83 78.5 116
s71.667 59.167 116 78.5s91.5 29 141.5 29s97.167 -9.66699 141.5 -29s83 -45.5 116 -78.5s59.167 -71.667 78.5 -116s29 -91.5 29 -141.5s-9.66699 -97.167 -29 -141.5s-45.5 -83 -78.5 -116s-71.667 -59.167 -116 -78.5s-91.5 -29 -141.5 -29s-97.167 9.66699 -141.5 29
s-83 45.5 -116 78.5s-59.167 71.667 -78.5 116s-29 91.5 -29 141.5z" />
    <glyph glyph-name="P" unicode="P" 
d="M425 494c0 24.667 -8 46.667 -24 66c-9.33301 11.333 -21.666 20.5 -36.999 27.5s-35.666 10.5 -60.999 10.5h-123v-208h123c25.333 0 45.666 3.5 60.999 10.5s27.666 16.167 36.999 27.5c16 19.333 24 41.333 24 66zM303 700c38 0 69.833 -5.16895 95.5 -15.502
s47.834 -24.166 66.501 -41.499c20 -18.667 35.833 -40.667 47.5 -66s17.5 -53 17.5 -83s-5.83301 -57.667 -17.5 -83s-27.5 -47.333 -47.5 -66c-18.667 -17.333 -40.834 -31.166 -66.501 -41.499s-57.5 -15.5 -95.5 -15.5h-123v-288h-105v700h228z" />
    <glyph glyph-name="Q" unicode="Q" horiz-adv-x="820" 
d="M670 350c0 36.667 -6.66602 71 -19.999 103s-31.666 59.833 -54.999 83.5s-50.833 42.334 -82.5 56.001s-65.834 20.5 -102.501 20.5s-70.834 -6.83301 -102.501 -20.5s-59.167 -32.334 -82.5 -56.001s-41.666 -51.5 -54.999 -83.5s-20 -66.333 -20 -103
s6.66699 -71 20 -103s31.666 -59.833 54.999 -83.5s50.833 -42.334 82.5 -56.001s65.834 -20.5 102.501 -20.5c55.333 0 104.666 15 147.999 45l-78 55v127l150 -105c12.667 20.667 22.5 42.834 29.5 66.501s10.5 48.5 10.5 74.5zM45.001 350
c0 50 9.66602 97.165 28.999 141.498s45.5 83 78.5 116s71.667 59.167 116 78.5s91.5 29 141.5 29s97.167 -9.66699 141.5 -29s83 -45.5 116 -78.5s59.167 -71.667 78.5 -116s29 -91.5 29 -141.5c0 -37.333 -5.16699 -72.666 -15.5 -105.999
s-25.166 -64.666 -44.499 -93.999l60 -41v-129l-130 91c-32 -27.333 -68 -48.5 -108 -63.5s-82.333 -22.5 -127 -22.5c-50 0 -97.167 9.66699 -141.5 29s-83 45.5 -116 78.5s-59.167 71.667 -78.5 116s-29 91.5 -29 141.5z" />
    <glyph glyph-name="R" unicode="R" horiz-adv-x="583" 
d="M425 494c0 24.667 -8 46.667 -24 66c-9.33301 11.333 -21.666 20.5 -36.999 27.5s-35.666 10.5 -60.999 10.5h-123v-208h123c25.333 0 45.666 3.5 60.999 10.5s27.666 16.167 36.999 27.5c16 19.333 24 41.333 24 66zM421 0l-222.001 287.999h-19v-288h-105v700h228
c44 0 80.833 -7.16699 110.5 -21.5s54.167 -33.833 73.5 -58.5c13.333 -17.333 23.833 -36.833 31.5 -58.5s11.5 -44.167 11.5 -67.5c0 -29.333 -5.16699 -56 -15.5 -80s-24.666 -44.833 -42.999 -62.5s-39.833 -31.667 -64.5 -42s-51 -16.166 -79 -17.499l225 -292h-132z
" />
    <glyph glyph-name="S" unicode="S" horiz-adv-x="509" 
d="M145 162c6 -21.333 18.6641 -39.168 37.9971 -53.501s40.666 -21.5 63.999 -21.5c30.667 0 55.334 10.167 74.001 30.5s28 44.5 28 72.5c0 15.333 -3 29.5 -9 42.5s-13.333 23.167 -22 30.5c-14 12.667 -29.833 22.167 -47.5 28.5l-55 19.5
c-19 6.66699 -38.167 14.667 -57.5 24s-37.666 23.333 -54.999 42c-16.667 17.333 -30 38 -40 62s-15 50 -15 78c0 27.333 5.33301 53 16 77s25 45 43 63s39 32.167 63 42.5s49.667 15.5 77 15.5c22.667 0 44.5 -3.83301 65.5 -11.5s40 -18.167 57 -31.5s31.5 -29 43.5 -47
s21 -37.667 27 -59l-99 -24c-6.66699 20.667 -18.5 37.667 -35.5 51s-36.5 20 -58.5 20c-14 0 -26.667 -2.5 -38 -7.5s-21.166 -11.833 -29.499 -20.5s-14.833 -18.667 -19.5 -30s-7 -23.333 -7 -36c0 -14 2.33301 -26.667 7 -38s10.667 -21 18 -29
c13.333 -15.333 29 -26.5 47 -33.5s36.833 -13.833 56.5 -20.5s39.667 -14.5 60 -23.5s39.5 -22.833 57.5 -41.5c15.333 -15.333 28.333 -34.666 39 -57.999s16 -51 16 -83c0 -28.667 -5.16699 -55.5 -15.5 -80.5s-24.666 -46.833 -42.999 -65.5
s-40.166 -33.5 -65.499 -44.5s-53 -16.5 -83 -16.5c-24 0 -47 3.83301 -69 11.5s-41.833 18.5 -59.5 32.5s-32.834 30.5 -45.501 49.5s-22 39.5 -28 61.5z" />
    <glyph glyph-name="T" unicode="T" horiz-adv-x="539" 
d="M217 0v598h-202v102h509v-102h-202v-598h-105z" />
    <glyph glyph-name="U" unicode="U" horiz-adv-x="670" 
d="M335 -15c-40.667 0 -78.3301 8.33301 -112.997 25s-64.334 39.334 -89.001 68.001c-20 23.333 -35.5 50.5 -46.5 81.5s-16.5 67.833 -16.5 110.5v430h105v-433c0 -31.333 3.83301 -57 11.5 -77s18.167 -37.333 31.5 -52c14.667 -16 32 -28.5 52 -37.5
s41.667 -13.5 65 -13.5s45 4.5 65 13.5s37.333 21.5 52 37.5c13.333 14.667 23.833 32 31.5 52s11.5 45.667 11.5 77v433h105v-430c0 -42.667 -5.5 -79.5 -16.5 -110.5s-26.5 -58.167 -46.5 -81.5c-24.667 -28.667 -54.334 -51.334 -89.001 -68.001
s-72.334 -25 -113.001 -25z" />
    <glyph glyph-name="V" unicode="V" horiz-adv-x="632" 
d="M-5 700h115l206 -466l206 466h115l-321 -720z" />
    <glyph glyph-name="W" unicode="W" horiz-adv-x="944" 
d="M-5 700h114l177 -444l186 464l186 -464l177 444h114l-291 -720l-186 465l-186 -465z" />
    <glyph glyph-name="X" unicode="X" horiz-adv-x="590" 
d="M10 0l223 357l-214 343h124l152 -249l152 249h124l-214 -343l223 -357h-123l-162 263l-162 -263h-123z" />
    <glyph glyph-name="Y" unicode="Y" horiz-adv-x="571" 
d="M233 0v319l-238 381h124l166 -272l167 272h124l-238 -381v-319h-105z" />
    <glyph glyph-name="Z" unicode="Z" horiz-adv-x="586" 
d="M546 700l-346 -598h351v-102h-531l346 598h-310v102h490z" />
    <glyph glyph-name="bracketleft" unicode="[" horiz-adv-x="335" 
d="M325 -133v-102h-225v935h225v-102h-120v-731h120z" />
    <glyph glyph-name="backslash" unicode="\" horiz-adv-x="459" 
d="M342 0l-342 700h118l341 -700h-117z" />
    <glyph glyph-name="bracketright" unicode="]" horiz-adv-x="335" 
d="M130 -133v731h-120v102h225v-935h-225v102h120z" />
    <glyph glyph-name="asciicircum" unicode="^" 
d="M347 360l-67 138l-67 -138h-106l173 360l173 -360h-106z" />
    <glyph glyph-name="underscore" unicode="_" horiz-adv-x="510" 
d="M20 0h470v-102h-470v102z" />
    <glyph glyph-name="grave" unicode="`" horiz-adv-x="278" 
d="M233 545h-116l-72 155h115z" />
    <glyph glyph-name="a" unicode="a" horiz-adv-x="595" 
d="M415 225c0 19.333 -3.5 37.333 -10.5 54s-16.5 31.334 -28.5 44.001s-26.167 22.5 -42.5 29.5s-34.166 10.5 -53.499 10.5s-37.166 -3.5 -53.499 -10.5s-30.5 -16.833 -42.5 -29.5s-21.5 -27.334 -28.5 -44.001s-10.5 -34.667 -10.5 -54s3.5 -37.333 10.5 -54
s16.5 -31.334 28.5 -44.001s26.167 -22.5 42.5 -29.5s34.166 -10.5 53.499 -10.5s37.166 3.5 53.499 10.5s30.5 16.833 42.5 29.5s21.5 27.334 28.5 44.001s10.5 34.667 10.5 54zM415 0v40c-17.333 -17.333 -38 -30.833 -62 -40.5s-51 -14.5 -81 -14.5
c-32.667 0 -63 6.33301 -91 19s-52.5 30 -73.5 52s-37.5 47.5 -49.5 76.5s-18 59.833 -18 92.5s6 63.5 18 92.5s28.5 54.5 49.5 76.5s45.5 39.333 73.5 52s58.333 19 91 19c30 0 57 -4.83301 81 -14.5s44.667 -23.167 62 -40.5v40h105v-450h-105z" />
    <glyph glyph-name="b" unicode="b" horiz-adv-x="595" 
d="M315 87c19.333 0 37.166 3.5 53.499 10.5s30.5 16.833 42.5 29.5s21.5 27.334 28.5 44.001s10.5 34.667 10.5 54s-3.5 37.333 -10.5 54s-16.5 31.334 -28.5 44.001s-26.167 22.5 -42.5 29.5s-34.166 10.5 -53.499 10.5s-37.166 -3.5 -53.499 -10.5
s-30.5 -16.833 -42.5 -29.5s-21.5 -27.334 -28.5 -44.001s-10.5 -34.667 -10.5 -54s3.5 -37.333 10.5 -54s16.5 -31.334 28.5 -44.001s26.167 -22.5 42.5 -29.5s34.166 -10.5 53.499 -10.5zM75 0v700h105v-290c17.333 17.333 37.833 30.833 61.5 40.5
s50.834 14.5 81.501 14.5c32.667 0 63 -6.33301 91 -19s52.5 -30 73.5 -52s37.5 -47.5 49.5 -76.5s18 -59.833 18 -92.5s-6 -63.5 -18 -92.5s-28.5 -54.5 -49.5 -76.5s-45.5 -39.333 -73.5 -52s-58.333 -19 -91 -19c-30.667 0 -57.834 4.83301 -81.501 14.5
s-44.167 23.167 -61.5 40.5v-40h-105z" />
    <glyph glyph-name="c" unicode="c" horiz-adv-x="507" 
d="M392 306c-12 17.333 -27.833 31.166 -47.5 41.499s-41.167 15.5 -64.5 15.5c-19.333 0 -37.166 -3.5 -53.499 -10.5s-30.5 -16.667 -42.5 -29s-21.5 -27 -28.5 -44s-10.5 -35.167 -10.5 -54.5s3.5 -37.5 10.5 -54.5s16.5 -31.667 28.5 -44s26.167 -22 42.5 -29
s34.166 -10.5 53.499 -10.5c23.333 0 44.833 5.16699 64.5 15.5s35.5 24.166 47.5 41.499l85 -56c-22 -31.333 -50.167 -56.333 -84.5 -75s-71.833 -28 -112.5 -28c-33.333 0 -64.5 6.33301 -93.5 19s-54.333 29.834 -76 51.501s-38.834 47 -51.501 76s-19 60.167 -19 93.5
c0 32.667 6.33301 63.667 19 93s29.834 54.833 51.501 76.5s47 38.834 76 51.501s60.167 19 93.5 19c40.667 0 78.167 -9.33301 112.5 -28s62.5 -43.667 84.5 -75z" />
    <glyph glyph-name="d" unicode="d" horiz-adv-x="595" 
d="M415 225c0 19.333 -3.5 37.333 -10.5 54s-16.5 31.334 -28.5 44.001s-26.167 22.5 -42.5 29.5s-34.166 10.5 -53.499 10.5s-37.166 -3.5 -53.499 -10.5s-30.5 -16.833 -42.5 -29.5s-21.5 -27.334 -28.5 -44.001s-10.5 -34.667 -10.5 -54s3.5 -37.333 10.5 -54
s16.5 -31.334 28.5 -44.001s26.167 -22.5 42.5 -29.5s34.166 -10.5 53.499 -10.5s37.166 3.5 53.499 10.5s30.5 16.833 42.5 29.5s21.5 27.334 28.5 44.001s10.5 34.667 10.5 54zM415 0v40c-17.333 -17.333 -38 -30.833 -62 -40.5s-51 -14.5 -81 -14.5
c-32.667 0 -63 6.33301 -91 19s-52.5 30 -73.5 52s-37.5 47.5 -49.5 76.5s-18 59.833 -18 92.5s6 63.5 18 92.5s28.5 54.5 49.5 76.5s45.5 39.333 73.5 52s58.333 19 91 19c30 0 57 -4.83301 81 -14.5s44.667 -23.167 62 -40.5v290h105v-700h-105z" />
    <glyph glyph-name="e" unicode="e" horiz-adv-x="530" 
d="M265 365c-32.667 0 -59.333 -9.5 -80 -28.5s-33.667 -43.167 -39 -72.5h238c-5.33301 29.333 -18.5 53.5 -39.5 72.5s-47.5 28.5 -79.5 28.5zM275.001 84c26 0 49 5.16699 69 15.5s37 24.833 51 43.5l81 -57c-22 -32.667 -50.333 -57.667 -85 -75s-74 -26 -118 -26
c-34 0 -65.333 6.16699 -94 18.5s-53.334 29.333 -74.001 51s-36.667 47 -48 76s-17 60.5 -17 94.5c0 32.667 5.5 63.667 16.5 93s26.5 54.833 46.5 76.5s43.667 38.834 71 51.501s57.666 19 90.999 19c32.667 0 62.834 -6.33301 90.501 -19s51.5 -29.834 71.5 -51.501
s35.5 -47.167 46.5 -76.5s16.5 -60.333 16.5 -93c0 -8 -0.333008 -16 -1 -24s-1.66699 -15.667 -3 -23h-334c6.66699 -28 20.834 -50.667 42.501 -68s48.5 -26 80.5 -26z" />
    <glyph glyph-name="f" unicode="f" horiz-adv-x="367" 
d="M302 603c-9.33301 6.66699 -20 9.99902 -32 9.99902c-11.333 0 -22 -4.33301 -32 -13c-5.33301 -5.33301 -9.66602 -12.166 -12.999 -20.499s-5 -21.5 -5 -39.5v-90h110v-102h-110v-348h-105v348h-80v102h80v87c0 34 4.66699 62.167 14 84.5s22.666 40.833 39.999 55.5
c13.333 11.333 29 20.5 47 27.5s36.667 10.5 56 10.5c33.333 0 63.333 -9.33301 90 -28z" />
    <glyph glyph-name="g" unicode="g" horiz-adv-x="595" 
d="M280 87c19.333 0 37.166 3.5 53.499 10.5s30.5 16.833 42.5 29.5s21.5 27.334 28.5 44.001s10.5 34.667 10.5 54s-3.5 37.333 -10.5 54s-16.5 31.334 -28.5 44.001s-26.167 22.5 -42.5 29.5s-34.166 10.5 -53.499 10.5s-37.166 -3.5 -53.499 -10.5
s-30.5 -16.833 -42.5 -29.5s-21.5 -27.334 -28.5 -44.001s-10.5 -34.667 -10.5 -54s3.5 -37.333 10.5 -54s16.5 -31.334 28.5 -44.001s26.167 -22.5 42.5 -29.5s34.166 -10.5 53.499 -10.5zM415 40c-17.333 -17.333 -38 -30.833 -62 -40.5s-51 -14.5 -81 -14.5
c-32.667 0 -63 6.33301 -91 19s-52.5 30 -73.5 52s-37.5 47.5 -49.5 76.5s-18 59.833 -18 92.5s6 63.5 18 92.5s28.5 54.5 49.5 76.5s45.5 39.333 73.5 52s58.333 19 91 19c30 0 57 -4.83301 81 -14.5s44.667 -23.167 62 -40.5v40h105v-440c0 -40 -5 -74.333 -15 -103
s-24.333 -53.667 -43 -75c-22 -25.333 -48.833 -45.333 -80.5 -60s-65.5 -22 -101.5 -22c-40.667 0 -78.167 9.33301 -112.5 28s-62.5 43.667 -84.5 75l85 56c12 -17.333 27.833 -31.166 47.5 -41.499s41.167 -15.5 64.5 -15.5c18.667 0 36 3.33301 52 10s30 15.667 42 27
c13.333 12.667 23.5 28.167 30.5 46.5s10.5 42.166 10.5 71.499v33z" />
    <glyph glyph-name="h" unicode="h" horiz-adv-x="539" 
d="M364 249c0 24 -2.66504 43.001 -7.99805 57.001s-12.666 25.333 -21.999 34c-16.667 15.333 -37.334 23 -62.001 23s-45.334 -7.66699 -62.001 -23c-9.33301 -8.66699 -16.666 -20 -21.999 -34s-8 -33 -8 -57v-249h-105v700h105v-280c15.333 14 32.666 25 51.999 33
s40.333 12 63 12c28.667 0 55.167 -6.83301 79.5 -20.5s44.166 -31.5 59.499 -53.5c10.667 -15.333 19.167 -32.833 25.5 -52.5s9.5 -46.834 9.5 -81.501v-257h-105v249z" />
    <glyph glyph-name="i" unicode="i" horiz-adv-x="255" 
d="M60 597c0 19.333 6.33301 35.5 19 48.5s28.667 19.5 48 19.5s35.5 -6.5 48.5 -19.5s19.5 -29.167 19.5 -48.5s-6.5 -35.333 -19.5 -48s-29.167 -19 -48.5 -19s-35.333 6.33301 -48 19s-19 28.667 -19 48zM75 0v450h105v-450h-105z" />
    <glyph glyph-name="j" unicode="j" horiz-adv-x="255" 
d="M60 597c0 19.333 6.33301 35.5 19 48.5s28.667 19.5 48 19.5s35.5 -6.5 48.5 -19.5s19.5 -29.167 19.5 -48.5s-6.5 -35.333 -19.5 -48s-29.167 -19 -48.5 -19s-35.333 6.33301 -48 19s-19 28.667 -19 48zM75 -235v685h105v-685h-105z" />
    <glyph glyph-name="k" unicode="k" horiz-adv-x="516" 
d="M506 0h-139l-187 215v-215h-105v700h105v-438l166 188h142l-194 -212z" />
    <glyph glyph-name="l" unicode="l" horiz-adv-x="255" 
d="M75 0v700h105v-700h-105z" />
    <glyph glyph-name="m" unicode="m" horiz-adv-x="792" 
d="M722 0l-105 0.00195312v260c0 21.333 -1.83301 37.666 -5.5 48.999s-9.16699 20.666 -16.5 27.999c-16 17.333 -36.333 26 -61 26s-45 -8.66699 -61 -26c-7.33301 -7.33301 -12.833 -16.666 -16.5 -27.999s-5.5 -27.666 -5.5 -48.999v-260h-105v260
c0 21.333 -1.83301 37.666 -5.5 48.999s-9.16699 20.666 -16.5 27.999c-16 17.333 -36.333 26 -61 26s-45 -8.66699 -61 -26c-7.33301 -7.33301 -12.833 -16.666 -16.5 -27.999s-5.5 -27.666 -5.5 -48.999v-260h-105v450h105v-30c13.333 15.333 29 26.666 47 33.999
s37.667 11 59 11c26.667 0 50.334 -6 71.001 -18s36.667 -26 48 -42c16.667 19.333 37.167 34.166 61.5 44.499s49.5 15.5 75.5 15.5c27.333 0 52.666 -5.5 75.999 -16.5s43.333 -25.833 60 -44.5c14 -16 24.833 -35 32.5 -57s11.5 -49.333 11.5 -82v-265z" />
    <glyph glyph-name="n" unicode="n" horiz-adv-x="539" 
d="M364 249c0 24 -2.66504 42.999 -7.99805 56.999s-12.666 25.333 -21.999 34c-16.667 15.333 -37.334 23 -62.001 23s-45.334 -7.66699 -62.001 -23c-9.33301 -8.66699 -16.666 -20 -21.999 -34s-8 -33 -8 -57v-249h-105v450h105v-30c15.333 14 32.666 25 51.999 33
s40.333 12 63 12c28.667 0 55.167 -6.83301 79.5 -20.5s44.166 -31.5 59.499 -53.5c10.667 -15.333 19.167 -33.666 25.5 -54.999s9.5 -49.333 9.5 -84v-252h-105v249z" />
    <glyph glyph-name="o" unicode="o" 
d="M145 225c0 -19.333 3.5 -37.333 10.5 -54s16.5 -31.334 28.5 -44.001s26.167 -22.5 42.5 -29.5s34.166 -10.5 53.499 -10.5s37.166 3.5 53.499 10.5s30.5 16.833 42.5 29.5s21.5 27.334 28.5 44.001s10.5 34.667 10.5 54s-3.5 37.333 -10.5 54s-16.5 31.334 -28.5 44.001
s-26.167 22.5 -42.5 29.5s-34.166 10.5 -53.499 10.5s-37.166 -3.5 -53.499 -10.5s-30.5 -16.833 -42.5 -29.5s-21.5 -27.334 -28.5 -44.001s-10.5 -34.667 -10.5 -54zM40 225c0 32.667 6.33301 63.667 19 93s29.834 54.833 51.501 76.5s47 38.834 76 51.501
s60.167 19 93.5 19c32.667 0 63.667 -6.33301 93 -19s54.833 -29.834 76.5 -51.501s38.834 -47.167 51.501 -76.5s19 -60.333 19 -93c0 -33.333 -6.33301 -64.5 -19 -93.5s-29.834 -54.333 -51.501 -76s-47.167 -38.834 -76.5 -51.501s-60.333 -19 -93 -19
c-33.333 0 -64.5 6.33301 -93.5 19s-54.333 29.834 -76 51.501s-38.834 47 -51.501 76s-19 60.167 -19 93.5z" />
    <glyph glyph-name="p" unicode="p" horiz-adv-x="595" 
d="M315 87c19.333 0 37.166 3.5 53.499 10.5s30.5 16.833 42.5 29.5s21.5 27.334 28.5 44.001s10.5 34.667 10.5 54s-3.5 37.333 -10.5 54s-16.5 31.334 -28.5 44.001s-26.167 22.5 -42.5 29.5s-34.166 10.5 -53.499 10.5s-37.166 -3.5 -53.499 -10.5
s-30.5 -16.833 -42.5 -29.5s-21.5 -27.334 -28.5 -44.001s-10.5 -34.667 -10.5 -54s3.5 -37.333 10.5 -54s16.5 -31.334 28.5 -44.001s26.167 -22.5 42.5 -29.5s34.166 -10.5 53.499 -10.5zM75 -235v685h105v-41c17.333 17.333 37.833 31 61.5 41s50.834 15 81.501 15
c32.667 0 63 -6.33301 91 -19s52.5 -30 73.5 -52s37.5 -47.5 49.5 -76.5s18 -59.833 18 -92.5s-6 -63.5 -18 -92.5s-28.5 -54.5 -49.5 -76.5s-45.5 -39.333 -73.5 -52s-58.333 -19 -91 -19c-30.667 0 -57.834 5 -81.501 15s-44.167 23.667 -61.5 41v-276h-105z" />
    <glyph glyph-name="q" unicode="q" horiz-adv-x="595" 
d="M280 87c19.333 0 37.166 3.5 53.499 10.5s30.5 16.833 42.5 29.5s21.5 27.334 28.5 44.001s10.5 34.667 10.5 54s-3.5 37.333 -10.5 54s-16.5 31.334 -28.5 44.001s-26.167 22.5 -42.5 29.5s-34.166 10.5 -53.499 10.5s-37.166 -3.5 -53.499 -10.5
s-30.5 -16.833 -42.5 -29.5s-21.5 -27.334 -28.5 -44.001s-10.5 -34.667 -10.5 -54s3.5 -37.333 10.5 -54s16.5 -31.334 28.5 -44.001s26.167 -22.5 42.5 -29.5s34.166 -10.5 53.499 -10.5zM415 -235v276c-17.333 -17.333 -38 -31 -62 -41s-51 -15 -81 -15
c-32.667 0 -63 6.33301 -91 19s-52.5 30 -73.5 52s-37.5 47.5 -49.5 76.5s-18 59.833 -18 92.5s6 63.5 18 92.5s28.5 54.5 49.5 76.5s45.5 39.333 73.5 52s58.333 19 91 19c30 0 57 -5 81 -15s44.667 -23.667 62 -41v41h105v-685h-105z" />
    <glyph glyph-name="r" unicode="r" horiz-adv-x="369" 
d="M75 0l0.00195312 450.001h105v-30c13.333 15.333 28.333 26.666 45 33.999s33.667 11 51 11c19.333 0 36 -3.33301 50 -10s26.667 -14.667 38 -24l-55 -84c-14.667 10.667 -32 16 -52 16c-8.66699 0 -16.834 -1.33301 -24.501 -4s-14.834 -6.33398 -21.501 -11.001
c-9.33301 -7.33301 -16.833 -17.166 -22.5 -29.499s-8.5 -29.833 -8.5 -52.5v-266h-105z" />
    <glyph glyph-name="s" unicode="s" horiz-adv-x="393" 
d="M164 305c6 -8 14.668 -14.501 26.001 -19.501s23.666 -10.167 36.999 -15.5s26.833 -11.5 40.5 -18.5s25.5 -15.833 35.5 -26.5c11.333 -12 20 -25.667 26 -41s9 -33.666 9 -54.999c0 -20 -3.66699 -38.833 -11 -56.5s-17.5 -33 -30.5 -46s-28.5 -23.167 -46.5 -30.5
s-37.333 -11 -58 -11c-34.667 0 -65 10.333 -91 31s-43 47 -51 79l97 23c2.66699 -10 8 -18.167 16 -24.5s17.333 -9.5 28 -9.5c12.667 0 23.334 4.33301 32.001 13s13 19.334 13 32.001c0 7.33301 -1.83301 14.333 -5.5 21s-8.16699 12 -13.5 16
c-7.33301 5.33301 -16 9.66602 -26 12.999s-20.833 7.16602 -32.5 11.499s-23.667 10 -36 17s-24.166 16.833 -35.499 29.5c-10.667 12 -18.834 26 -24.501 42s-8.5 32.333 -8.5 49c0 18.667 3.66699 36.334 11 53.001s17.166 31.334 29.499 44.001s26.833 22.5 43.5 29.5
s34.667 10.5 54 10.5c32.667 0 61.167 -9.66699 85.5 -29s40.5 -44 48.5 -74l-96 -24c-2 8 -6.5 14.667 -13.5 20s-14.833 8 -23.5 8c-10.667 0 -19.5 -3.66699 -26.5 -11s-10.5 -16.333 -10.5 -27c0 -8.66699 2.66699 -16.334 8 -23.001z" />
    <glyph glyph-name="t" unicode="t" horiz-adv-x="360" 
d="M330 450v-102h-110v-348h-105v348h-80v102h80v148h105v-148h110z" />
    <glyph glyph-name="u" unicode="u" horiz-adv-x="530" 
d="M265 -15c-24.667 0 -47.6689 4.16699 -69.002 12.5s-40.666 19.833 -57.999 34.5c-20.667 18 -37.167 40.5 -49.5 67.5s-18.5 60.5 -18.5 100.5v250h105v-253c0 -24 3 -43 9 -57s14 -25 24 -33c15.333 -13.333 34.333 -20 57 -20s41.667 6.66699 57 20c10 8 18 19 24 33
s9 33 9 57v253h105v-250c0 -40 -6.16699 -73.5 -18.5 -100.5s-28.833 -49.5 -49.5 -67.5c-17.333 -14.667 -36.666 -26.167 -57.999 -34.5s-44.333 -12.5 -69 -12.5z" />
    <glyph glyph-name="v" unicode="v" horiz-adv-x="490" 
d="M15 450h117l113 -237l113 237h117l-230 -470z" />
    <glyph glyph-name="w" unicode="w" horiz-adv-x="716" 
d="M15 450h117l100 -231l126 251l126 -251l100 231h117l-211 -470l-132 267l-132 -267z" />
    <glyph glyph-name="x" unicode="x" horiz-adv-x="528" 
d="M35 0l164 235l-150 215h129l86 -128l86 128h129l-151 -215l165 -235h-129l-100 148l-100 -148h-129z" />
    <glyph glyph-name="y" unicode="y" horiz-adv-x="516" 
d="M128 -220l82 220l-180 450h114l120 -314l114 314h113l-251 -670h-112z" />
    <glyph glyph-name="z" unicode="z" horiz-adv-x="488" 
d="M438 450l-213 -348h206v-102h-391l212 348h-181v102h367z" />
    <glyph glyph-name="braceleft" unicode="{" horiz-adv-x="335" 
d="M30 272c17.333 0 29.666 1.33203 36.999 3.99902s13.333 6.33398 18 11.001s8.33398 10.834 11.001 18.501s4 19.834 4 36.501v183c0 31.333 3.83301 56.833 11.5 76.5s18.167 36.5 31.5 50.5c14 14.667 31.5 26.334 52.5 35.001s47.5 13 79.5 13h50v-102h-50
c-17.333 0 -29.666 -1.33301 -36.999 -4s-13.333 -6.33398 -18 -11.001s-8.33398 -10.834 -11.001 -18.501s-4 -19.834 -4 -36.501v-186c0 -26.667 -3.5 -48.834 -10.5 -66.501s-16.833 -32.167 -29.5 -43.5c12.667 -11.333 22.5 -25.833 29.5 -43.5s10.5 -39.5 10.5 -65.5
v-186c0 -16.667 1.33301 -28.834 4 -36.501s6.33398 -13.834 11.001 -18.501s10.667 -8.33398 18 -11.001s19.666 -4 36.999 -4h50v-102h-50c-32 0 -58.5 4.33301 -79.5 13s-38.5 20.334 -52.5 35.001c-13.333 14 -23.833 30.833 -31.5 50.5s-11.5 45.167 -11.5 76.5v183
c0 16.667 -1.33301 28.834 -4 36.501s-6.33398 13.834 -11.001 18.501s-10.667 8.33398 -18 11.001s-19.666 4 -36.999 4v79z" />
    <glyph glyph-name="bar" unicode="|" horiz-adv-x="225" 
d="M60 -235v935h105v-935h-105z" />
    <glyph glyph-name="braceright" unicode="}" horiz-adv-x="335" 
d="M305 193c-17.333 0 -29.666 -1.33203 -36.999 -3.99902s-13.333 -6.33398 -18 -11.001s-8.33398 -10.834 -11.001 -18.501s-4 -19.834 -4 -36.501v-183c0 -31.333 -3.83301 -56.833 -11.5 -76.5s-18.167 -36.5 -31.5 -50.5c-14 -14.667 -31.5 -26.334 -52.5 -35.001
s-47.5 -13 -79.5 -13h-50v102h50c17.333 0 29.666 1.33301 36.999 4s13.333 6.33398 18 11.001s8.33398 10.834 11.001 18.501s4 19.834 4 36.501v186c0 26 3.5 47.833 10.5 65.5s16.833 32.167 29.5 43.5c-12.667 11.333 -22.5 25.833 -29.5 43.5
s-10.5 39.834 -10.5 66.501v186c0 16.667 -1.33301 28.834 -4 36.501s-6.33398 13.834 -11.001 18.501s-10.667 8.33398 -18 11.001s-19.666 4 -36.999 4h-50v102h50c32 0 58.5 -4.33301 79.5 -13s38.5 -20.334 52.5 -35.001c13.333 -14 23.833 -30.833 31.5 -50.5
s11.5 -45.167 11.5 -76.5v-183c0 -16.667 1.33301 -28.834 4 -36.501s6.33398 -13.834 11.001 -18.501s10.667 -8.33398 18 -11.001s19.666 -4 36.999 -4v-79z" />
    <glyph glyph-name="asciitilde" unicode="~" 
d="M376 120c-26 0 -47.5 4 -64.5 12s-32.333 17 -46 27l-38 27c-11.667 8 -24.834 12 -39.501 12c-20.667 0 -35.167 -6.33301 -43.5 -19s-13.833 -27 -16.5 -43l-94 20c2 20 7.16699 38.667 15.5 56s19.166 32.5 32.499 45.5s28.666 23.333 45.999 31s36 11.5 56 11.5
c26 0 47.5 -4 64.5 -12s32.333 -17 46 -27l38 -27c11.667 -8 24.834 -12 39.501 -12c20.667 0 35.167 6.33301 43.5 19s13.833 27 16.5 43l94 -20c-2 -20 -7.16699 -38.833 -15.5 -56.5s-19.166 -33 -32.499 -46s-28.666 -23.167 -45.999 -30.5s-36 -11 -56 -11z" />
    <glyph glyph-name="Zcaron" horiz-adv-x="586" 
d="M154 950h108l40 -85l41 85h108l-74 -155h-149zM546 700l-346 -598h351v-102h-531l346 598h-310v102h490z" />
    <glyph glyph-name="Zcaron" unicode="&#x17d;" horiz-adv-x="586" 
d="M154 950h108l40 -85l41 85h108l-74 -155h-149zM546 700l-346 -598h351v-102h-531l346 598h-310v102h490z" />
    <glyph glyph-name="zcaron" horiz-adv-x="488" 
d="M111 700h108l40 -85l41 85h108l-74 -155h-149zM438 450l-213 -348h206v-102h-391l212 348h-181v102h367z" />
    <glyph glyph-name="zcaron" unicode="&#x17e;" horiz-adv-x="488" 
d="M111 700h108l40 -85l41 85h108l-74 -155h-149zM438 450l-213 -348h206v-102h-391l212 348h-181v102h367z" />
    <glyph glyph-name="uni00A0" unicode="&#xa0;" horiz-adv-x="250" 
 />
    <glyph glyph-name="exclamdown" unicode="&#xa1;" horiz-adv-x="305" 
d="M100 -235v465h105v-465h-105zM75 388c0 21.333 7.5 39.5 22.5 54.5s33.167 22.5 54.5 22.5s39.666 -7.5 54.999 -22.5s23 -33.167 23 -54.5s-7.66699 -39.666 -23 -54.999s-33.666 -23 -54.999 -23s-39.5 7.66699 -54.5 23s-22.5 33.666 -22.5 54.999z" />
    <glyph glyph-name="cent" unicode="&#xa2;" 
d="M424 306c-12 17.333 -27.833 31.1689 -47.5 41.502s-41.167 15.5 -64.5 15.5c-19.333 0 -37.166 -3.5 -53.499 -10.5s-30.5 -16.667 -42.5 -29s-21.5 -27 -28.5 -44s-10.5 -35.167 -10.5 -54.5s3.5 -37.5 10.5 -54.5s16.5 -31.667 28.5 -44s26.167 -22 42.5 -29
s34.166 -10.5 53.499 -10.5c23.333 0 44.833 5.16699 64.5 15.5s35.5 24.166 47.5 41.499l85 -56c-18 -25.333 -39.833 -46.5 -65.5 -63.5s-53.834 -28.5 -84.501 -34.5v-80h-95v80c-27.333 5.33301 -52.666 15.166 -75.999 29.499s-43.666 31.833 -60.999 52.5
s-30.833 44 -40.5 70s-14.5 53.667 -14.5 83c0 28.667 4.83301 56 14.5 82s23.167 49.333 40.5 70s37.666 38.167 60.999 52.5s48.666 24.5 75.999 30.5v80h95v-80c30.667 -6 58.834 -17.667 84.501 -35s47.5 -38.333 65.5 -63z" />
    <glyph glyph-name="sterling" unicode="&#xa3;" 
d="M423 508c-7.33301 30.667 -22.667 55.834 -46 75.501s-51.666 29.5 -84.999 29.5c-19.333 0 -37.166 -3.5 -53.499 -10.5s-30.5 -16.833 -42.5 -29.5s-21.5 -27.334 -28.5 -44.001s-10.5 -34.667 -10.5 -54c0 -15.333 2.33301 -29.666 7 -42.999
s10.5 -26.166 17.5 -38.499s15 -24.5 24 -36.5l27.5 -37h180v-85h-136c2 -8 3.66699 -16.167 5 -24.5s2 -17.166 2 -26.499c0 -17.333 -2.16699 -33 -6.5 -47s-9.16602 -25.667 -14.499 -35h129c13.333 0 23 1.16699 29 3.5s11.333 5.5 16 9.5
c6.66699 5.33301 11.834 12.166 15.501 20.499l10.5 23.5l92 -45c-6.66699 -23.333 -17.834 -44.5 -33.501 -63.5s-35.5 -32.833 -59.5 -41.5c-8 -3.33301 -16.833 -5.66602 -26.5 -6.99902s-22.167 -2 -37.5 -2h-346v102h99c8 9.33301 14.667 20.5 20 33.5s8 27.5 8 43.5
c0 10 -1.33301 19.5 -4 28.5s-6.33398 18.167 -11.001 27.5h-112v85h53c-14 20 -26.333 42.667 -37 68s-16 56 -16 92c0 32.667 6.33301 63.167 19 91.5s30 53.166 52 74.499s47.5 38.166 76.5 50.499s59.833 18.5 92.5 18.5c27.333 0 53.5 -4.5 78.5 -13.5
s47.667 -21.333 68 -37s37.666 -34.334 51.999 -56.001s25.166 -45.167 32.499 -70.5z" />
    <glyph glyph-name="currency" unicode="&#xa4;" horiz-adv-x="670" 
d="M200 350c0 -19.333 3.5 -37.333 10.5 -54s16.5 -31.334 28.5 -44.001s26.167 -22.5 42.5 -29.5s34.166 -10.5 53.499 -10.5s37.166 3.5 53.499 10.5s30.5 16.833 42.5 29.5s21.5 27.334 28.5 44.001s10.5 34.667 10.5 54s-3.5 37.333 -10.5 54s-16.5 31.334 -28.5 44.001
s-26.167 22.5 -42.5 29.5s-34.166 10.5 -53.499 10.5s-37.166 -3.5 -53.499 -10.5s-30.5 -16.833 -42.5 -29.5s-21.5 -27.334 -28.5 -44.001s-10.5 -34.667 -10.5 -54zM95 350c0 47.333 12.333 90.001 37 128.001l-82 83l74 74l82 -83c18.667 12 39 21.333 61 28
s44.667 10 68 10s45.833 -3.33301 67.5 -10s41.834 -16 60.501 -28l83 83l74 -74l-83 -83c12 -18.667 21.333 -38.834 28 -60.501s10 -44.167 10 -67.5s-3.33301 -46 -10 -68s-16 -42.333 -28 -61l82 -81l-74 -74l-82 81c-18.667 -11.333 -38.834 -20.333 -60.501 -27
s-44.167 -10 -67.5 -10s-46 3.33301 -68 10s-42.333 15.667 -61 27l-81 -81l-74 74l81 81c-24.667 38 -37 81 -37 129z" />
    <glyph glyph-name="yen" unicode="&#xa5;" 
d="M228 0v139h-160v85h160v60h-160v85h129l-207 331h124l166 -272l167 272h124l-207 -331h129v-85h-160v-60h160v-85h-160v-139h-105z" />
    <glyph glyph-name="brokenbar" unicode="&#xa6;" horiz-adv-x="245" 
d="M70 -235v380h105v-380h-105zM70 320v380h105v-380h-105z" />
    <glyph glyph-name="section" unicode="&#xa7;" horiz-adv-x="537" 
d="M304 304l-53.502 17.0029c-19 6 -37.5 13.333 -55.5 22c-9.33301 -8 -18.333 -18.667 -27 -32s-13 -30.333 -13 -51c0 -48 26 -81 78 -99c16.667 -6 34.334 -11.833 53.001 -17.5s37.334 -12.834 56.001 -21.501c9.33301 7.33301 18.333 17.666 27 30.999
s13 30.666 13 51.999c0 48 -26 81 -78 99zM486.998 217.003c0 -16.667 -1.99902 -32.8369 -5.99902 -48.5039s-9.33301 -30.167 -16 -43.5s-13.834 -25.5 -21.501 -36.5s-14.834 -19.833 -21.501 -26.5c10 -13.333 18.833 -30.166 26.5 -50.499s11.5 -42.166 11.5 -65.499
c0 -28 -5.33301 -54 -16 -78s-25 -44.667 -43 -62s-39.167 -31 -63.5 -41s-49.833 -15 -76.5 -15c-22.667 0 -44.5 3.83301 -65.5 11.5s-40 18.167 -57 31.5s-31.5 29 -43.5 47s-21 37.667 -27 59l99 24c6.66699 -20.667 18.5 -37.667 35.5 -51s36.5 -20 58.5 -20
c13.333 0 25.666 2.5 36.999 7.5s21.333 11.5 30 19.5s15.334 17.5 20.001 28.5s7 22.5 7 34.5c0 19.333 -4.16699 35.333 -12.5 48s-19.5 23.334 -33.5 32.001s-29.833 16 -47.5 22l-54.5 19c-18.667 6.66699 -37 14.167 -55 22.5s-34 19.166 -48 32.499
c-15.333 14 -28.166 32.167 -38.499 54.5s-15.5 47.5 -15.5 75.5c0 16.667 2 32.834 6 48.501s9.16699 30.167 15.5 43.5s13.333 25.333 21 36s15.167 19.334 22.5 26.001c-10.667 13.333 -19.667 30.333 -27 51s-11 42.667 -11 66c0 28 5.33301 54 16 78s25 44.667 43 62
s39 31 63 41s49.667 15 77 15c22.667 0 44.334 -3.83301 65.001 -11.5s39.5 -18.167 56.5 -31.5s31.667 -29 44 -47s21.5 -37.667 27.5 -59l-99 -24c-6.66699 20.667 -18.5 37.667 -35.5 51s-36.5 20 -58.5 20c-13.333 0 -25.666 -2.5 -36.999 -7.5s-21.333 -11.5 -30 -19.5
s-15.334 -17.5 -20.001 -28.5s-7 -22.5 -7 -34.5c0 -19.333 4.16699 -35.333 12.5 -48s19.5 -23.334 33.5 -32.001s29.833 -16 47.5 -22l54.5 -19c18.667 -6.66699 37 -14.167 55 -22.5s34 -19.166 48 -32.499c15.333 -14 28.166 -32.167 38.499 -54.5
s15.5 -47.5 15.5 -75.5z" />
    <glyph glyph-name="dieresis" unicode="&#xa8;" horiz-adv-x="436" 
d="M256 597c0 19.333 6.33301 35.5 19 48.5s28.667 19.5 48 19.5s35.5 -6.5 48.5 -19.5s19.5 -29.167 19.5 -48.5s-6.5 -35.333 -19.5 -48s-29.167 -19 -48.5 -19s-35.333 6.33301 -48 19s-19 28.667 -19 48zM45 597c0 19.333 6.33301 35.5 19 48.5s28.667 19.5 48 19.5
s35.5 -6.5 48.5 -19.5s19.5 -29.167 19.5 -48.5s-6.5 -35.333 -19.5 -48s-29.167 -19 -48.5 -19s-35.333 6.33301 -48 19s-19 28.667 -19 48z" />
    <glyph glyph-name="copyright" unicode="&#xa9;" horiz-adv-x="790" 
d="M685 350c0 40 -7.5 77.833 -22.5 113.5s-35.5 66.834 -61.5 93.501s-56.667 47.667 -92 63s-73.333 23 -114 23s-78.667 -7.66699 -114 -23s-66 -36.333 -92 -63s-46.5 -57.834 -61.5 -93.501s-22.5 -73.5 -22.5 -113.5s7.5 -77.833 22.5 -113.5
s35.5 -66.834 61.5 -93.501s56.667 -47.667 92 -63s73.333 -23 114 -23s78.667 7.66699 114 23s66 36.333 92 63s46.5 57.834 61.5 93.501s22.5 73.5 22.5 113.5zM30 350c0 50 9.66699 97.167 29 141.5s45.5 83 78.5 116s71.667 59.167 116 78.5s91.5 29 141.5 29
s97.167 -9.66699 141.5 -29s83 -45.5 116 -78.5s59.167 -71.667 78.5 -116s29 -91.5 29 -141.5s-9.66699 -97.167 -29 -141.5s-45.5 -83 -78.5 -116s-71.667 -59.167 -116 -78.5s-91.5 -29 -141.5 -29s-97.167 9.66699 -141.5 29s-83 45.5 -116 78.5
s-59.167 71.667 -78.5 116s-29 91.5 -29 141.5zM173 350c0 31.333 5.83301 60.8311 17.5 88.498s27.834 51.667 48.501 72s44.834 36.5 72.501 48.5s57.167 18 88.5 18c39.333 0 75.166 -8.83301 107.499 -26.5s58.833 -41.5 79.5 -71.5l-61 -42
c-13.333 20.667 -31 37 -53 49s-46.333 18 -73 18c-21.333 0 -41.333 -4 -60 -12s-34.834 -19 -48.501 -33s-24.334 -30.333 -32.001 -49s-11.5 -38.667 -11.5 -60s3.83301 -41.333 11.5 -60s18.334 -35 32.001 -49s29.834 -25 48.501 -33s38.667 -12 60 -12
c26.667 0 51 6 73 18s39.667 28.333 53 49l61 -42c-20.667 -30 -47.167 -53.833 -79.5 -71.5s-68.166 -26.5 -107.499 -26.5c-31.333 0 -60.833 5.83301 -88.5 17.5s-51.834 27.834 -72.501 48.501s-36.834 44.834 -48.501 72.501s-17.5 57.167 -17.5 88.5z" />
    <glyph glyph-name="ordfeminine" unicode="&#xaa;" horiz-adv-x="418" 
d="M140 556c0 -20 6.66699 -36.833 20 -50.5s29.666 -20.5 48.999 -20.5s35.666 6.83301 48.999 20.5s20 30.5 20 50.5s-6.66699 36.833 -20 50.5s-29.666 20.5 -48.999 20.5s-35.666 -6.83301 -48.999 -20.5s-20 -30.5 -20 -50.5zM298 407v26.999
c-11.333 -11.333 -25 -20.333 -41 -27s-33.667 -10 -53 -10c-21.333 0 -41.333 4.16699 -60 12.5s-35 19.833 -49 34.5s-25 31.5 -33 50.5s-12 39.5 -12 61.5s4 42.5 12 61.5s19 35.833 33 50.5s30.333 26.167 49 34.5s38.667 12.5 60 12.5c19.333 0 37 -3.16699 53 -9.5
s29.667 -15.166 41 -26.499v26h70v-298h-70z" />
    <glyph glyph-name="guillemotleft" unicode="&#xab;" horiz-adv-x="571" 
d="M424 225l122 -150h-135l-116 150l116 150h135zM189 225l122 -150h-135l-116 150l116 150h135z" />
    <glyph glyph-name="logicalnot" unicode="&#xac;" 
d="M515 399v-254h-105v152h-365v102h470z" />
    <glyph glyph-name="uni00AD" unicode="&#xad;" horiz-adv-x="440" 
d="M55 324h330v-102h-330v102z" />
    <glyph glyph-name="registered" unicode="&#xae;" horiz-adv-x="790" 
d="M395 385c18 0 31.333 1.66895 40 5.00195s15.667 7.66602 21 12.999c9.33301 10.667 14 23 14 37s-4.66699 26.333 -14 37c-5.33301 5.33301 -12.333 9.66602 -21 12.999s-22 5 -40 5h-67v-110h67zM328 312.002v-177.999h-75v434h144c29.333 0 53 -3.83301 71 -11.5
s33 -18.167 45 -31.5c10 -11.333 17.833 -24.333 23.5 -39s8.5 -30 8.5 -46s-2.83301 -31.333 -8.5 -46s-13.5 -27.667 -23.5 -39s-21.667 -20.333 -35 -27s-30 -11.334 -50 -14.001l135 -180h-95l-134 178h-6zM685 350.003c0 40 -7.5 77.833 -22.5 113.5
s-35.5 66.834 -61.5 93.501s-56.667 47.667 -92 63s-73.333 23 -114 23s-78.667 -7.66699 -114 -23s-66 -36.333 -92 -63s-46.5 -57.834 -61.5 -93.501s-22.5 -73.5 -22.5 -113.5s7.5 -77.833 22.5 -113.5s35.5 -66.834 61.5 -93.501s56.667 -47.667 92 -63
s73.333 -23 114 -23s78.667 7.66699 114 23s66 36.333 92 63s46.5 57.834 61.5 93.501s22.5 73.5 22.5 113.5zM30 350.003c0 50 9.66699 97.167 29 141.5s45.5 83 78.5 116s71.667 59.167 116 78.5s91.5 29 141.5 29s97.167 -9.66699 141.5 -29s83 -45.5 116 -78.5
s59.167 -71.667 78.5 -116s29 -91.5 29 -141.5s-9.66699 -97.167 -29 -141.5s-45.5 -83 -78.5 -116s-71.667 -59.167 -116 -78.5s-91.5 -29 -141.5 -29s-97.167 9.66699 -141.5 29s-83 45.5 -116 78.5s-59.167 71.667 -78.5 116s-29 91.5 -29 141.5z" />
    <glyph glyph-name="macron" unicode="&#xaf;" horiz-adv-x="500" 
d="M45 640h410v-95h-410v95z" />
    <glyph glyph-name="degree" unicode="&#xb0;" horiz-adv-x="435" 
d="M146 537c0 -20 7 -37 21 -51s31 -21 51 -21s37.167 7 51.5 21s21.5 31 21.5 51s-7.16699 37.167 -21.5 51.5s-31.5 21.5 -51.5 21.5s-37 -7.16699 -51 -21.5s-21 -31.5 -21 -51.5zM40 537c0 24.667 4.66699 47.834 14 69.501s22 40.5 38 56.5s34.833 28.667 56.5 38
s44.834 14 69.501 14c24 0 46.833 -4.66699 68.5 -14s40.5 -22 56.5 -38s28.667 -34.833 38 -56.5s14 -44.834 14 -69.501c0 -24 -4.66699 -46.833 -14 -68.5s-22 -40.5 -38 -56.5s-34.833 -28.667 -56.5 -38s-44.5 -14 -68.5 -14c-24.667 0 -47.834 4.66699 -69.501 14
s-40.5 22 -56.5 38s-28.667 34.833 -38 56.5s-14 44.5 -14 68.5z" />
    <glyph glyph-name="plusminus" unicode="&#xb1;" 
d="M485 11h-410v102h410v-102zM228 281h-153v102h153v113h105v-113h152v-102h-152v-113h-105v113z" />
    <glyph glyph-name="twosuperior" unicode="&#xb2;" horiz-adv-x="364" 
d="M185 550c8.66699 13.333 14.668 23.3311 18.001 29.998s5 13.334 5 20.001c0 6 -1.83301 11 -5.5 15s-8.5 6 -14.5 6c-6.66699 0 -11.667 -2.5 -15 -7.5s-5 -10.833 -5 -17.5h-95c0 16 3 30.833 9 44.5s14.167 25.834 24.5 36.501s22.5 19 36.5 25s29 9 45 9
c19.333 0 37.666 -4.16699 54.999 -12.5s31.333 -20.166 42 -35.499c5.33301 -7.33301 9.5 -15.833 12.5 -25.5s4.5 -19.834 4.5 -30.501c0 -16.667 -3.33301 -32.167 -10 -46.5s-14.667 -29.5 -24 -45.5l-48 -79h84v-90h-244z" />
    <glyph glyph-name="threesuperior" unicode="&#xb3;" horiz-adv-x="361" 
d="M256 533c12.667 -8 23.3311 -19.501 31.998 -34.501s13 -31.5 13 -49.5c0 -16 -3.16699 -30.833 -9.5 -44.5s-14.833 -25.667 -25.5 -36s-23.167 -18.333 -37.5 -24s-29.5 -8.5 -45.5 -8.5c-16.667 0 -32.5 3 -47.5 9s-28 14.5 -39 25.5s-19.833 23.667 -26.5 38
s-10 30.166 -10 47.499h89c0 -8.66699 2.83301 -15.834 8.5 -21.501s12.834 -8.5 21.501 -8.5s16 2.83301 22 8.5s9 12.834 9 21.501c0 11.333 -3.83301 19.333 -11.5 24s-17.5 7 -29.5 7h-9v91h9c7.33301 0 12.666 0.5 15.999 1.5s6 2.16699 8 3.5
c5.33301 4 8 9.33301 8 16c0 14.667 -7.33301 22 -22 22c-6 0 -11.167 -2.33301 -15.5 -7s-6.5 -10 -6.5 -16h-89c0 16 3 30.833 9 44.5s14.167 25.5 24.5 35.5s22.333 18 36 24s28.167 9 43.5 9c14.667 0 28.834 -2.66699 42.501 -8s25.5 -12.666 35.5 -21.999
s18 -20.5 24 -33.5s9 -26.833 9 -41.5s-3.16699 -28.667 -9.5 -42s-15.166 -23.666 -26.499 -30.999z" />
    <glyph glyph-name="acute" unicode="&#xb4;" horiz-adv-x="278" 
d="M118 700h115l-72 -155h-116z" />
    <glyph glyph-name="mu" unicode="&#xb5;" horiz-adv-x="539" 
d="M364 450l104.998 -0.000976562v-252c0 -34.667 -3.16699 -62.667 -9.5 -84s-14.833 -39.666 -25.5 -54.999c-15.333 -22 -35.166 -39.833 -59.499 -53.5s-50.833 -20.5 -79.5 -20.5c-22.667 0 -43.667 4 -63 12s-36.666 19 -51.999 33v-265h-105v685h105v-246
c0 -24 2.66699 -43 8 -57s12.666 -25.333 21.999 -34c16.667 -15.333 37.334 -23 62.001 -23s45.334 7.66699 62.001 23c9.33301 8.66699 16.666 20 21.999 34s8 33 8 57v246z" />
    <glyph glyph-name="paragraph" unicode="&#xb6;" horiz-adv-x="595" 
d="M210 -236l-0.000976562 535c-27.333 0 -53.166 5.16699 -77.499 15.5s-45.5 24.5 -63.5 42.5s-32.333 39.167 -43 63.5s-16 50.5 -16 78.5c0 30 6 57.833 18 83.5s28.667 47.834 50 66.501c17.333 15.333 38 27.666 62 36.999s54 14 90 14h380v-102h-90v-834h-105v834
h-100v-834h-105z" />
    <glyph glyph-name="periodcentered" unicode="&#xb7;" horiz-adv-x="295" 
d="M70 398c0 21.333 7.5 39.666 22.5 54.999s33.167 23 54.5 23s39.666 -7.66699 54.999 -23s23 -33.666 23 -54.999s-7.66699 -39.5 -23 -54.5s-33.666 -22.5 -54.999 -22.5s-39.5 7.5 -54.5 22.5s-22.5 33.167 -22.5 54.5z" />
    <glyph glyph-name="cedilla" unicode="&#xb8;" horiz-adv-x="292" 
d="M45 -180l89 135h113l-88 -135h-114z" />
    <glyph glyph-name="onesuperior" unicode="&#xb9;" horiz-adv-x="288" 
d="M60 492v115l168 113v-370h-95v192z" />
    <glyph glyph-name="ordmasculine" unicode="&#xba;" horiz-adv-x="418" 
d="M140 556c0 -20 6.66699 -36.833 20 -50.5s29.666 -20.5 48.999 -20.5s35.666 6.83301 48.999 20.5s20 30.5 20 50.5s-6.66699 36.833 -20 50.5s-29.666 20.5 -48.999 20.5s-35.666 -6.83301 -48.999 -20.5s-20 -30.5 -20 -50.5zM50 556c0 22 4.16699 42.5 12.5 61.5
s19.833 35.833 34.5 50.5s31.5 26.167 50.5 34.5s39.5 12.5 61.5 12.5s42.5 -4.16699 61.5 -12.5s35.833 -19.833 50.5 -34.5s26.167 -31.5 34.5 -50.5s12.5 -39.5 12.5 -61.5s-4.16699 -42.5 -12.5 -61.5s-19.833 -35.833 -34.5 -50.5s-31.5 -26.167 -50.5 -34.5
s-39.5 -12.5 -61.5 -12.5s-42.5 4.16699 -61.5 12.5s-35.833 19.833 -50.5 34.5s-26.167 31.5 -34.5 50.5s-12.5 39.5 -12.5 61.5z" />
    <glyph glyph-name="guillemotright" unicode="&#xbb;" horiz-adv-x="571" 
d="M25 375h135l116 -150l-116 -150h-135l122 150zM260 375h135l116 -150l-116 -150h-135l122 150z" />
    <glyph glyph-name="onequarter" unicode="&#xbc;" horiz-adv-x="775" 
d="M72 492v115l168 113v-370h-95v192zM582 129v31l-25 -31h25zM582 0v47h-176l263 323v-241h46v-82h-46v-47h-87zM116 0l445 700h123l-445 -700h-123z" />
    <glyph glyph-name="onehalf" unicode="&#xbd;" horiz-adv-x="792" 
d="M623 204c8.66699 13.333 14.668 23.3311 18.001 29.998s5 13.334 5 20.001c0 6 -1.83301 11 -5.5 15s-8.5 6 -14.5 6c-6.66699 0 -11.667 -2.5 -15 -7.5s-5 -10.833 -5 -17.5h-95c0 16 3 30.833 9 44.5s14.167 25.834 24.5 36.501s22.5 19 36.5 25s29 9 45 9
c19.333 0 37.666 -4.16699 54.999 -12.5s31.333 -20.166 42 -35.499c5.33301 -7.33301 9.5 -15.833 12.5 -25.5s4.5 -19.834 4.5 -30.501c0 -16.667 -3.33301 -32.167 -10 -46.5s-14.667 -29.5 -24 -45.5l-48 -79h84v-90h-244zM72.001 491.998v115l168 113v-370h-95v192z
M116.001 -0.00195312l445 700h123l-445 -700h-123z" />
    <glyph glyph-name="threequarters" unicode="&#xbe;" horiz-adv-x="816" 
d="M623 129v31l-25 -31h25zM623 0v47h-176l263 323v-241h46v-82h-46v-47h-87zM256 533c12.667 -8 23.3311 -19.501 31.998 -34.501s13 -31.5 13 -49.5c0 -16 -3.16699 -30.833 -9.5 -44.5s-14.833 -25.667 -25.5 -36s-23.167 -18.333 -37.5 -24s-29.5 -8.5 -45.5 -8.5
c-16.667 0 -32.5 3 -47.5 9s-28 14.5 -39 25.5s-19.833 23.667 -26.5 38s-10 30.166 -10 47.499h89c0 -8.66699 2.83301 -15.834 8.5 -21.501s12.834 -8.5 21.501 -8.5s16 2.83301 22 8.5s9 12.834 9 21.501c0 11.333 -3.83301 19.333 -11.5 24s-17.5 7 -29.5 7h-9v91h9
c7.33301 0 12.666 0.5 15.999 1.5s6 2.16699 8 3.5c5.33301 4 8 9.33301 8 16c0 14.667 -7.33301 22 -22 22c-6 0 -11.167 -2.33301 -15.5 -7s-6.5 -10 -6.5 -16h-89c0 16 3 30.833 9 44.5s14.167 25.5 24.5 35.5s22.333 18 36 24s28.167 9 43.5 9
c14.667 0 28.834 -2.66699 42.501 -8s25.5 -12.666 35.5 -21.999s18 -20.5 24 -33.5s9 -26.833 9 -41.5s-3.16699 -28.667 -9.5 -42s-15.166 -23.666 -26.499 -30.999zM156.997 -0.000976562l445 700h123l-445 -700h-123z" />
    <glyph glyph-name="questiondown" unicode="&#xbf;" horiz-adv-x="426" 
d="M217 -250c-21.333 0 -41.5029 3.83398 -60.5029 11.501s-35.667 18.334 -50 32.001s-25.666 29.5 -33.999 47.5s-12.5 37.667 -12.5 59c0 18.667 2.5 35 7.5 49s11.167 26.333 18.5 37c15.333 20.667 34.5 37.167 57.5 49.5l72.5 37.5c21.333 10 32 23.667 32 41
c0 9.33301 -3.16699 17 -9.5 23s-13.5 9 -21.5 9c-10 0 -18.167 -3.5 -24.5 -10.5s-9.5 -15.5 -9.5 -25.5h-104c0 18.667 3.66699 36.167 11 52.5s17.333 30.666 30 42.999s27.334 22 44.001 29s34.667 10.5 54 10.5c18 0 35.167 -3.33301 51.5 -10
s30.666 -15.834 42.999 -27.501s22 -25.334 29 -41.001s10.5 -32.5 10.5 -50.5c0 -16.667 -2.33301 -31.167 -7 -43.5s-10.667 -23.5 -18 -33.5c-8.66699 -12 -18.667 -22.333 -30 -31s-23 -16.5 -35 -23.5s-24 -13.333 -36 -19s-23 -11.5 -33 -17.5
c-19.333 -11.333 -29 -26.666 -29 -45.999c0 -15.333 5.33301 -28 16 -38s23 -15 37 -15c17.333 0 30.833 5.66699 40.5 17s14.5 25 14.5 41h104c0 -22 -4.16699 -42.5 -12.5 -61.5s-19.666 -35.5 -33.999 -49.5s-31.166 -25.167 -50.499 -33.5s-40 -12.5 -62 -12.5z
M294.997 388.001c0 -21.333 -7.5 -39.666 -22.5 -54.999s-33.167 -23 -54.5 -23s-39.666 7.66699 -54.999 23s-23 33.666 -23 54.999s7.66699 39.5 23 54.5s33.666 22.5 54.999 22.5s39.5 -7.5 54.5 -22.5s22.5 -33.167 22.5 -54.5z" />
    <glyph glyph-name="Agrave" unicode="&#xc0;" horiz-adv-x="734" 
d="M426 795h-116l-72 155h115zM239 239h255l-127 255zM0 0l367 720l367 -720h-119l-70 137h-357l-69 -137h-119z" />
    <glyph glyph-name="Aacute" unicode="&#xc1;" horiz-adv-x="734" 
d="M381 950h115l-72 -155h-116zM239 239h255l-127 255zM0 0l367 720l367 -720h-119l-70 137h-357l-69 -137h-119z" />
    <glyph glyph-name="Acircumflex" unicode="&#xc2;" horiz-adv-x="734" 
d="M293 950h149l74 -155h-108l-41 85l-40 -85h-108zM239 239h255l-127 255zM0 0l367 720l367 -720h-119l-70 137h-357l-69 -137h-119z" />
    <glyph glyph-name="Atilde" unicode="&#xc3;" horiz-adv-x="734" 
d="M543 903c0 -16.667 -3.16699 -32.5 -9.5 -47.5s-14.833 -28 -25.5 -39s-23.167 -19.833 -37.5 -26.5s-29.833 -10 -46.5 -10c-16 0 -29.333 2.33301 -40 7s-20.167 9.83398 -28.5 15.501l-23 15.5c-7 4.66699 -14.5 7 -22.5 7s-14.667 -3 -20 -9s-8 -13 -8 -21h-92
c0 16.667 3.16699 32.5 9.5 47.5s14.833 28 25.5 39s23.167 19.833 37.5 26.5s29.833 10 46.5 10c16 0 29.333 -2.33301 40 -7s20.167 -9.83398 28.5 -15.501l23 -15.5c7 -4.66699 14.5 -7 22.5 -7s14.667 3 20 9s8 13 8 21h92zM239 239h255l-127 255zM0 0l367 720l367 -720
h-119l-70 137h-357l-69 -137h-119z" />
    <glyph glyph-name="Adieresis" unicode="&#xc4;" horiz-adv-x="734" 
d="M405 847c0 19.333 6.33301 35.5 19 48.5s28.667 19.5 48 19.5s35.5 -6.5 48.5 -19.5s19.5 -29.167 19.5 -48.5s-6.5 -35.333 -19.5 -48s-29.167 -19 -48.5 -19s-35.333 6.33301 -48 19s-19 28.667 -19 48zM194 847c0 19.333 6.33301 35.5 19 48.5s28.667 19.5 48 19.5
s35.5 -6.5 48.5 -19.5s19.5 -29.167 19.5 -48.5s-6.5 -35.333 -19.5 -48s-29.167 -19 -48.5 -19s-35.333 6.33301 -48 19s-19 28.667 -19 48zM239 239h255l-127 255zM0 0l367 720l367 -720h-119l-70 137h-357l-69 -137h-119z" />
    <glyph glyph-name="Aring" unicode="&#xc5;" horiz-adv-x="734" 
d="M311 870c0 -16 5.33301 -29.333 16 -40s24 -16 40 -16c15.333 0 28.5 5.33301 39.5 16s16.5 24 16.5 40c0 15.333 -5.5 28.5 -16.5 39.5s-24.167 16.5 -39.5 16.5c-16 0 -29.333 -5.5 -40 -16.5s-16 -24.167 -16 -39.5zM247 870c0 16.667 3.16699 32.167 9.5 46.5
s15 27 26 38s23.667 19.667 38 26s29.833 9.5 46.5 9.5s32.167 -3.16699 46.5 -9.5s27 -15 38 -26s19.667 -23.667 26 -38s9.5 -29.833 9.5 -46.5s-3.16699 -32.167 -9.5 -46.5s-15 -27 -26 -38s-23.667 -19.667 -38 -26s-29.833 -9.5 -46.5 -9.5s-32.167 3.16699 -46.5 9.5
s-27 15 -38 26s-19.667 23.667 -26 38s-9.5 29.833 -9.5 46.5zM239 239h255l-127 255zM0 0l367 720l367 -720h-119l-70 137h-357l-69 -137h-119z" />
    <glyph glyph-name="AE" unicode="&#xc6;" horiz-adv-x="997" 
d="M309 239h218v288zM-5 0l532 700h425v-102h-320v-196h310v-102h-310v-198h320v-102h-425v137h-295l-104 -137h-133z" />
    <glyph glyph-name="Ccedilla" unicode="&#xc7;" horiz-adv-x="738" 
d="M353 -45h115l-72 -155h-116zM150 350c0 -36.667 6.66699 -70.998 20 -102.998s31.666 -59.833 54.999 -83.5s50.833 -42.334 82.5 -56.001s65.834 -20.5 102.501 -20.5c45.333 0 86.5 10.333 123.5 31s67.167 48 90.5 82l84 -60c-33.333 -47.333 -75.833 -85 -127.5 -113
s-108.5 -42 -170.5 -42c-50 0 -97.167 9.66699 -141.5 29s-83 45.5 -116 78.5s-59.167 71.667 -78.5 116s-29 91.5 -29 141.5s9.66699 97.167 29 141.5s45.5 83 78.5 116s71.667 59.167 116 78.5s91.5 29 141.5 29c62 0 118.833 -14 170.5 -42s94.167 -65.667 127.5 -113
l-84 -60c-23.333 34 -53.5 61.333 -90.5 82s-78.167 31 -123.5 31c-36.667 0 -70.834 -6.83301 -102.501 -20.5s-59.167 -32.334 -82.5 -56.001s-41.666 -51.5 -54.999 -83.5s-20 -66.333 -20 -103z" />
    <glyph glyph-name="Egrave" unicode="&#xc8;" 
d="M345 795h-116l-72 155h115zM500 700v-102h-320v-196h310v-102h-310v-198h320v-102h-425v700h425z" />
    <glyph glyph-name="Eacute" unicode="&#xc9;" 
d="M302 950h115l-72 -155h-116zM500 700v-102h-320v-196h310v-102h-310v-198h320v-102h-425v700h425z" />
    <glyph glyph-name="Ecircumflex" unicode="&#xca;" 
d="M213 950h149l74 -155h-108l-41 85l-40 -85h-108zM500 700v-102h-320v-196h310v-102h-310v-198h320v-102h-425v700h425z" />
    <glyph glyph-name="Edieresis" unicode="&#xcb;" 
d="M326 847c0 19.333 6.33301 35.5 19 48.5s28.667 19.5 48 19.5s35.5 -6.5 48.5 -19.5s19.5 -29.167 19.5 -48.5s-6.5 -35.333 -19.5 -48s-29.167 -19 -48.5 -19s-35.333 6.33301 -48 19s-19 28.667 -19 48zM115 847c0 19.333 6.33301 35.5 19 48.5s28.667 19.5 48 19.5
s35.5 -6.5 48.5 -19.5s19.5 -29.167 19.5 -48.5s-6.5 -35.333 -19.5 -48s-29.167 -19 -48.5 -19s-35.333 6.33301 -48 19s-19 28.667 -19 48zM500 700v-102h-320v-196h310v-102h-310v-198h320v-102h-425v700h425z" />
    <glyph glyph-name="Igrave" unicode="&#xcc;" horiz-adv-x="255" 
d="M191 795h-116l-72 155h115zM75 0v700h105v-700h-105z" />
    <glyph glyph-name="Iacute" unicode="&#xcd;" horiz-adv-x="255" 
d="M136 950h115l-72 -155h-116zM75 0v700h105v-700h-105z" />
    <glyph glyph-name="Icircumflex" unicode="&#xce;" horiz-adv-x="255" 
d="M54 950h149l74 -155h-108l-41 85l-40 -85h-108zM75 0v700h105v-700h-105z" />
    <glyph glyph-name="Idieresis" unicode="&#xcf;" horiz-adv-x="255" 
d="M166 847c0 19.333 6.33301 35.5 19 48.5s28.667 19.5 48 19.5s35.5 -6.5 48.5 -19.5s19.5 -29.167 19.5 -48.5s-6.5 -35.333 -19.5 -48s-29.167 -19 -48.5 -19s-35.333 6.33301 -48 19s-19 28.667 -19 48zM-45 847c0 19.333 6.33301 35.5 19 48.5s28.667 19.5 48 19.5
s35.5 -6.5 48.5 -19.5s19.5 -29.167 19.5 -48.5s-6.5 -35.333 -19.5 -48s-29.167 -19 -48.5 -19s-35.333 6.33301 -48 19s-19 28.667 -19 48zM75 0v700h105v-700h-105z" />
    <glyph glyph-name="Eth" unicode="&#xd0;" horiz-adv-x="670" 
d="M380 393v-85.002h-200v-206h75c46 0 85 6.83301 117 20.5s59.333 32.834 82 57.501c20.667 22.667 36.834 48.667 48.501 78s17.5 60 17.5 92s-5.83301 62.667 -17.5 92s-27.834 55.333 -48.501 78c-22.667 24.667 -50 43.834 -82 57.501s-71 20.5 -117 20.5h-75v-205
h200zM255 699.998c62 0 116.167 -10.0039 162.5 -30.0039s85.5 -48 117.5 -84c28 -31.333 50 -67.166 66 -107.499s24 -83.166 24 -128.499s-8 -88.166 -24 -128.499s-38 -76.166 -66 -107.499c-32 -36 -71.167 -64 -117.5 -84s-100.5 -30 -162.5 -30h-180v308h-100v85h100
v307h180z" />
    <glyph glyph-name="Ntilde" unicode="&#xd1;" horiz-adv-x="680" 
d="M518 903c0 -16.667 -3.16699 -32.5 -9.5 -47.5s-14.833 -28 -25.5 -39s-23.167 -19.833 -37.5 -26.5s-29.833 -10 -46.5 -10c-16 0 -29.333 2.33301 -40 7s-20.167 9.83398 -28.5 15.501l-23 15.5c-7 4.66699 -14.5 7 -22.5 7s-14.667 -3 -20 -9s-8 -13 -8 -21h-92
c0 16.667 3.16699 32.5 9.5 47.5s14.833 28 25.5 39s23.167 19.833 37.5 26.5s29.833 10 46.5 10c16 0 29.333 -2.33301 40 -7s20.167 -9.83398 28.5 -15.501l23 -15.5c7 -4.66699 14.5 -7 22.5 -7s14.667 3 20 9s8 13 8 21h92zM180 449v-449h-105v720l425 -469v449h105
v-720z" />
    <glyph glyph-name="Ograve" unicode="&#xd2;" horiz-adv-x="820" 
d="M467 795h-116l-72 155h115zM670 350c0 36.667 -6.66699 71 -20 103s-31.666 59.833 -54.999 83.5s-50.833 42.334 -82.5 56.001s-65.834 20.5 -102.501 20.5s-70.834 -6.83301 -102.501 -20.5s-59.167 -32.334 -82.5 -56.001s-41.666 -51.5 -54.999 -83.5
s-20 -66.333 -20 -103s6.66699 -71 20 -103s31.666 -59.833 54.999 -83.5s50.833 -42.334 82.5 -56.001s65.834 -20.5 102.501 -20.5s70.834 6.83301 102.501 20.5s59.167 32.334 82.5 56.001s41.666 51.5 54.999 83.5s20 66.333 20 103zM45 350
c0 50 9.66699 97.167 29 141.5s45.5 83 78.5 116s71.667 59.167 116 78.5s91.5 29 141.5 29s97.167 -9.66699 141.5 -29s83 -45.5 116 -78.5s59.167 -71.667 78.5 -116s29 -91.5 29 -141.5s-9.66699 -97.167 -29 -141.5s-45.5 -83 -78.5 -116s-71.667 -59.167 -116 -78.5
s-91.5 -29 -141.5 -29s-97.167 9.66699 -141.5 29s-83 45.5 -116 78.5s-59.167 71.667 -78.5 116s-29 91.5 -29 141.5z" />
    <glyph glyph-name="Oacute" unicode="&#xd3;" horiz-adv-x="820" 
d="M425 950h115l-72 -155h-116zM670 350c0 36.667 -6.66699 71 -20 103s-31.666 59.833 -54.999 83.5s-50.833 42.334 -82.5 56.001s-65.834 20.5 -102.501 20.5s-70.834 -6.83301 -102.501 -20.5s-59.167 -32.334 -82.5 -56.001s-41.666 -51.5 -54.999 -83.5
s-20 -66.333 -20 -103s6.66699 -71 20 -103s31.666 -59.833 54.999 -83.5s50.833 -42.334 82.5 -56.001s65.834 -20.5 102.501 -20.5s70.834 6.83301 102.501 20.5s59.167 32.334 82.5 56.001s41.666 51.5 54.999 83.5s20 66.333 20 103zM45 350
c0 50 9.66699 97.167 29 141.5s45.5 83 78.5 116s71.667 59.167 116 78.5s91.5 29 141.5 29s97.167 -9.66699 141.5 -29s83 -45.5 116 -78.5s59.167 -71.667 78.5 -116s29 -91.5 29 -141.5s-9.66699 -97.167 -29 -141.5s-45.5 -83 -78.5 -116s-71.667 -59.167 -116 -78.5
s-91.5 -29 -141.5 -29s-97.167 9.66699 -141.5 29s-83 45.5 -116 78.5s-59.167 71.667 -78.5 116s-29 91.5 -29 141.5z" />
    <glyph glyph-name="Ocircumflex" unicode="&#xd4;" horiz-adv-x="820" 
d="M336 950h149l74 -155h-108l-41 85l-40 -85h-108zM670 350c0 36.667 -6.66699 71 -20 103s-31.666 59.833 -54.999 83.5s-50.833 42.334 -82.5 56.001s-65.834 20.5 -102.501 20.5s-70.834 -6.83301 -102.501 -20.5s-59.167 -32.334 -82.5 -56.001
s-41.666 -51.5 -54.999 -83.5s-20 -66.333 -20 -103s6.66699 -71 20 -103s31.666 -59.833 54.999 -83.5s50.833 -42.334 82.5 -56.001s65.834 -20.5 102.501 -20.5s70.834 6.83301 102.501 20.5s59.167 32.334 82.5 56.001s41.666 51.5 54.999 83.5s20 66.333 20 103z
M45 350c0 50 9.66699 97.167 29 141.5s45.5 83 78.5 116s71.667 59.167 116 78.5s91.5 29 141.5 29s97.167 -9.66699 141.5 -29s83 -45.5 116 -78.5s59.167 -71.667 78.5 -116s29 -91.5 29 -141.5s-9.66699 -97.167 -29 -141.5s-45.5 -83 -78.5 -116
s-71.667 -59.167 -116 -78.5s-91.5 -29 -141.5 -29s-97.167 9.66699 -141.5 29s-83 45.5 -116 78.5s-59.167 71.667 -78.5 116s-29 91.5 -29 141.5z" />
    <glyph glyph-name="Otilde" unicode="&#xd5;" horiz-adv-x="820" 
d="M586 903c0 -16.667 -3.16699 -32.5 -9.5 -47.5s-14.833 -28 -25.5 -39s-23.167 -19.833 -37.5 -26.5s-29.833 -10 -46.5 -10c-16 0 -29.333 2.33301 -40 7s-20.167 9.83398 -28.5 15.501l-23 15.5c-7 4.66699 -14.5 7 -22.5 7s-14.667 -3 -20 -9s-8 -13 -8 -21h-92
c0 16.667 3.16699 32.5 9.5 47.5s14.833 28 25.5 39s23.167 19.833 37.5 26.5s29.833 10 46.5 10c16 0 29.333 -2.33301 40 -7s20.167 -9.83398 28.5 -15.501l23 -15.5c7 -4.66699 14.5 -7 22.5 -7s14.667 3 20 9s8 13 8 21h92zM670 350c0 36.667 -6.66699 71 -20 103
s-31.666 59.833 -54.999 83.5s-50.833 42.334 -82.5 56.001s-65.834 20.5 -102.501 20.5s-70.834 -6.83301 -102.501 -20.5s-59.167 -32.334 -82.5 -56.001s-41.666 -51.5 -54.999 -83.5s-20 -66.333 -20 -103s6.66699 -71 20 -103s31.666 -59.833 54.999 -83.5
s50.833 -42.334 82.5 -56.001s65.834 -20.5 102.501 -20.5s70.834 6.83301 102.501 20.5s59.167 32.334 82.5 56.001s41.666 51.5 54.999 83.5s20 66.333 20 103zM45 350c0 50 9.66699 97.167 29 141.5s45.5 83 78.5 116s71.667 59.167 116 78.5s91.5 29 141.5 29
s97.167 -9.66699 141.5 -29s83 -45.5 116 -78.5s59.167 -71.667 78.5 -116s29 -91.5 29 -141.5s-9.66699 -97.167 -29 -141.5s-45.5 -83 -78.5 -116s-71.667 -59.167 -116 -78.5s-91.5 -29 -141.5 -29s-97.167 9.66699 -141.5 29s-83 45.5 -116 78.5
s-59.167 71.667 -78.5 116s-29 91.5 -29 141.5z" />
    <glyph glyph-name="Odieresis" unicode="&#xd6;" horiz-adv-x="820" 
d="M448 847c0 19.333 6.33301 35.5 19 48.5s28.667 19.5 48 19.5s35.5 -6.5 48.5 -19.5s19.5 -29.167 19.5 -48.5s-6.5 -35.333 -19.5 -48s-29.167 -19 -48.5 -19s-35.333 6.33301 -48 19s-19 28.667 -19 48zM237 847c0 19.333 6.33301 35.5 19 48.5s28.667 19.5 48 19.5
s35.5 -6.5 48.5 -19.5s19.5 -29.167 19.5 -48.5s-6.5 -35.333 -19.5 -48s-29.167 -19 -48.5 -19s-35.333 6.33301 -48 19s-19 28.667 -19 48zM670 350c0 36.667 -6.66699 71 -20 103s-31.666 59.833 -54.999 83.5s-50.833 42.334 -82.5 56.001s-65.834 20.5 -102.501 20.5
s-70.834 -6.83301 -102.501 -20.5s-59.167 -32.334 -82.5 -56.001s-41.666 -51.5 -54.999 -83.5s-20 -66.333 -20 -103s6.66699 -71 20 -103s31.666 -59.833 54.999 -83.5s50.833 -42.334 82.5 -56.001s65.834 -20.5 102.501 -20.5s70.834 6.83301 102.501 20.5
s59.167 32.334 82.5 56.001s41.666 51.5 54.999 83.5s20 66.333 20 103zM45 350c0 50 9.66699 97.167 29 141.5s45.5 83 78.5 116s71.667 59.167 116 78.5s91.5 29 141.5 29s97.167 -9.66699 141.5 -29s83 -45.5 116 -78.5s59.167 -71.667 78.5 -116s29 -91.5 29 -141.5
s-9.66699 -97.167 -29 -141.5s-45.5 -83 -78.5 -116s-71.667 -59.167 -116 -78.5s-91.5 -29 -141.5 -29s-97.167 9.66699 -141.5 29s-83 45.5 -116 78.5s-59.167 71.667 -78.5 116s-29 91.5 -29 141.5z" />
    <glyph glyph-name="multiply" unicode="&#xd7;" 
d="M477 367l-123 -123l122 -121l-74 -75l-122 122l-122 -122l-74 75l122 121l-123 123l75 74l122 -122l122 122z" />
    <glyph glyph-name="Oslash" unicode="&#xd8;" horiz-adv-x="820" 
d="M775 350c0 -50 -9.66699 -97.167 -29 -141.5s-45.5 -83 -78.5 -116s-71.667 -59.167 -116 -78.5s-91.5 -29 -141.5 -29c-32 0 -62.5 3.83301 -91.5 11.5s-56.5 18.5 -82.5 32.5l-31 -44h-105l66 93c-37.333 34 -66.833 74.333 -88.5 121s-32.5 97 -32.5 151
c0 50 9.66699 97.167 29 141.5s45.5 83 78.5 116s71.667 59.167 116 78.5s91.5 29 141.5 29c32 0 62.5 -3.83301 91.5 -11.5s56.5 -18.5 82.5 -32.5l31 44h105l-66 -93c37.333 -34 66.833 -74.333 88.5 -121s32.5 -97 32.5 -151zM150 350
c0 -37.333 6.83301 -71.999 20.5 -103.999s32.167 -59.667 55.5 -83l299 424c-36 17.333 -74.333 26 -115 26c-36.667 0 -70.834 -6.83301 -102.501 -20.5s-59.167 -32.334 -82.5 -56.001s-41.666 -51.5 -54.999 -83.5s-20 -66.333 -20 -103zM670 350.001
c0 37.333 -6.83301 71.832 -20.5 103.499s-32.167 59.5 -55.5 83.5l-299 -424c34.667 -17.333 73 -26 115 -26c36.667 0 70.834 6.83301 102.501 20.5s59.167 32.334 82.5 56.001s41.666 51.5 54.999 83.5s20 66.333 20 103z" />
    <glyph glyph-name="Ugrave" unicode="&#xd9;" horiz-adv-x="670" 
d="M393 795h-116l-72 155h115zM335 -15c-40.667 0 -78.3301 8.33301 -112.997 25s-64.334 39.334 -89.001 68.001c-20 23.333 -35.5 50.5 -46.5 81.5s-16.5 67.833 -16.5 110.5v430h105v-433c0 -31.333 3.83301 -57 11.5 -77s18.167 -37.333 31.5 -52
c14.667 -16 32 -28.5 52 -37.5s41.667 -13.5 65 -13.5s45 4.5 65 13.5s37.333 21.5 52 37.5c13.333 14.667 23.833 32 31.5 52s11.5 45.667 11.5 77v433h105v-430c0 -42.667 -5.5 -79.5 -16.5 -110.5s-26.5 -58.167 -46.5 -81.5
c-24.667 -28.667 -54.334 -51.334 -89.001 -68.001s-72.334 -25 -113.001 -25z" />
    <glyph glyph-name="Uacute" unicode="&#xda;" horiz-adv-x="670" 
d="M350 950h115l-72 -155h-116zM335 -15c-40.667 0 -78.3301 8.33301 -112.997 25s-64.334 39.334 -89.001 68.001c-20 23.333 -35.5 50.5 -46.5 81.5s-16.5 67.833 -16.5 110.5v430h105v-433c0 -31.333 3.83301 -57 11.5 -77s18.167 -37.333 31.5 -52
c14.667 -16 32 -28.5 52 -37.5s41.667 -13.5 65 -13.5s45 4.5 65 13.5s37.333 21.5 52 37.5c13.333 14.667 23.833 32 31.5 52s11.5 45.667 11.5 77v433h105v-430c0 -42.667 -5.5 -79.5 -16.5 -110.5s-26.5 -58.167 -46.5 -81.5
c-24.667 -28.667 -54.334 -51.334 -89.001 -68.001s-72.334 -25 -113.001 -25z" />
    <glyph glyph-name="Ucircumflex" unicode="&#xdb;" horiz-adv-x="670" 
d="M261 950h149l74 -155h-108l-41 85l-40 -85h-108zM335 -15c-40.667 0 -78.3301 8.33301 -112.997 25s-64.334 39.334 -89.001 68.001c-20 23.333 -35.5 50.5 -46.5 81.5s-16.5 67.833 -16.5 110.5v430h105v-433c0 -31.333 3.83301 -57 11.5 -77s18.167 -37.333 31.5 -52
c14.667 -16 32 -28.5 52 -37.5s41.667 -13.5 65 -13.5s45 4.5 65 13.5s37.333 21.5 52 37.5c13.333 14.667 23.833 32 31.5 52s11.5 45.667 11.5 77v433h105v-430c0 -42.667 -5.5 -79.5 -16.5 -110.5s-26.5 -58.167 -46.5 -81.5
c-24.667 -28.667 -54.334 -51.334 -89.001 -68.001s-72.334 -25 -113.001 -25z" />
    <glyph glyph-name="Udieresis" unicode="&#xdc;" horiz-adv-x="670" 
d="M373 847c0 19.333 6.33301 35.5 19 48.5s28.667 19.5 48 19.5s35.5 -6.5 48.5 -19.5s19.5 -29.167 19.5 -48.5s-6.5 -35.333 -19.5 -48s-29.167 -19 -48.5 -19s-35.333 6.33301 -48 19s-19 28.667 -19 48zM162 847c0 19.333 6.33301 35.5 19 48.5s28.667 19.5 48 19.5
s35.5 -6.5 48.5 -19.5s19.5 -29.167 19.5 -48.5s-6.5 -35.333 -19.5 -48s-29.167 -19 -48.5 -19s-35.333 6.33301 -48 19s-19 28.667 -19 48zM335 -15c-40.667 0 -78.3301 8.33301 -112.997 25s-64.334 39.334 -89.001 68.001c-20 23.333 -35.5 50.5 -46.5 81.5
s-16.5 67.833 -16.5 110.5v430h105v-433c0 -31.333 3.83301 -57 11.5 -77s18.167 -37.333 31.5 -52c14.667 -16 32 -28.5 52 -37.5s41.667 -13.5 65 -13.5s45 4.5 65 13.5s37.333 21.5 52 37.5c13.333 14.667 23.833 32 31.5 52s11.5 45.667 11.5 77v433h105v-430
c0 -42.667 -5.5 -79.5 -16.5 -110.5s-26.5 -58.167 -46.5 -81.5c-24.667 -28.667 -54.334 -51.334 -89.001 -68.001s-72.334 -25 -113.001 -25z" />
    <glyph glyph-name="Yacute" unicode="&#xdd;" horiz-adv-x="571" 
d="M301 950h115l-72 -155h-116zM233 0v319l-238 381h124l166 -272l167 272h124l-238 -381v-319h-105z" />
    <glyph glyph-name="Thorn" unicode="&#xde;" 
d="M401 284c16 19.333 24 41.333 24 66s-8 46.667 -24 66c-9.33301 11.333 -21.666 20.5 -36.999 27.5s-35.666 10.5 -60.999 10.5h-123v-208h123c25.333 0 45.666 3.5 60.999 10.5s27.666 16.167 36.999 27.5zM75 700l105 -0.00195312v-144h123
c38 0 69.833 -5.16699 95.5 -15.5s47.834 -24.166 66.501 -41.499c20 -18.667 35.833 -40.667 47.5 -66s17.5 -53 17.5 -83s-5.83301 -57.667 -17.5 -83s-27.5 -47.333 -47.5 -66c-18.667 -17.333 -40.834 -31.166 -66.501 -41.499s-57.5 -15.5 -95.5 -15.5h-123v-144h-105
v700z" />
    <glyph glyph-name="germandbls" unicode="&#xdf;" horiz-adv-x="531" 
d="M75 341l-80.001 0.00195312v102h80v64c0 39.333 6 72.5 18 99.5s28.333 49.167 49 66.5c34 28 74.333 42 121 42c26 0 50.333 -5 73 -15s42.5 -23.5 59.5 -40.5s30.333 -36.833 40 -59.5s14.5 -47 14.5 -73c0 -29.333 -6 -54.5 -18 -75.5s-25 -37.167 -39 -48.5
c30 -16.667 54.667 -40.5 74 -71.5s29 -67.5 29 -109.5c0 -30.667 -5.83301 -59.5 -17.5 -86.5s-27.667 -50.5 -48 -70.5s-44 -35.833 -71 -47.5s-55.833 -17.5 -86.5 -17.5h-20v102c25.333 0 45.5 2.66699 60.5 8s27.833 12.666 38.5 21.999c12 11.333 21.5 24.5 28.5 39.5
s10.5 31.5 10.5 49.5c0 30.667 -9.33301 57 -28 79c-11.333 12.667 -25.5 22.667 -42.5 30s-39.5 11 -67.5 11h-32v102h22c21.333 0 38 2.16699 50 6.5s21.667 10.166 29 17.499c16 16 24 36 24 60s-7.83301 44.333 -23.5 61s-35.5 25 -59.5 25
c-19.333 0 -36.666 -6 -51.999 -18c-9.33301 -8 -16.833 -18.667 -22.5 -32s-8.5 -32 -8.5 -56v-507h-105v341z" />
    <glyph glyph-name="agrave" unicode="&#xe0;" horiz-adv-x="595" 
d="M348 545h-116l-72 155h115zM415 225c0 19.333 -3.5 37.333 -10.5 54s-16.5 31.334 -28.5 44.001s-26.167 22.5 -42.5 29.5s-34.166 10.5 -53.499 10.5s-37.166 -3.5 -53.499 -10.5s-30.5 -16.833 -42.5 -29.5s-21.5 -27.334 -28.5 -44.001s-10.5 -34.667 -10.5 -54
s3.5 -37.333 10.5 -54s16.5 -31.334 28.5 -44.001s26.167 -22.5 42.5 -29.5s34.166 -10.5 53.499 -10.5s37.166 3.5 53.499 10.5s30.5 16.833 42.5 29.5s21.5 27.334 28.5 44.001s10.5 34.667 10.5 54zM415 0v40c-17.333 -17.333 -38 -30.833 -62 -40.5s-51 -14.5 -81 -14.5
c-32.667 0 -63 6.33301 -91 19s-52.5 30 -73.5 52s-37.5 47.5 -49.5 76.5s-18 59.833 -18 92.5s6 63.5 18 92.5s28.5 54.5 49.5 76.5s45.5 39.333 73.5 52s58.333 19 91 19c30 0 57 -4.83301 81 -14.5s44.667 -23.167 62 -40.5v40h105v-450h-105z" />
    <glyph glyph-name="aacute" unicode="&#xe1;" horiz-adv-x="595" 
d="M294 700h115l-72 -155h-116zM415 225c0 19.333 -3.5 37.333 -10.5 54s-16.5 31.334 -28.5 44.001s-26.167 22.5 -42.5 29.5s-34.166 10.5 -53.499 10.5s-37.166 -3.5 -53.499 -10.5s-30.5 -16.833 -42.5 -29.5s-21.5 -27.334 -28.5 -44.001s-10.5 -34.667 -10.5 -54
s3.5 -37.333 10.5 -54s16.5 -31.334 28.5 -44.001s26.167 -22.5 42.5 -29.5s34.166 -10.5 53.499 -10.5s37.166 3.5 53.499 10.5s30.5 16.833 42.5 29.5s21.5 27.334 28.5 44.001s10.5 34.667 10.5 54zM415 0v40c-17.333 -17.333 -38 -30.833 -62 -40.5s-51 -14.5 -81 -14.5
c-32.667 0 -63 6.33301 -91 19s-52.5 30 -73.5 52s-37.5 47.5 -49.5 76.5s-18 59.833 -18 92.5s6 63.5 18 92.5s28.5 54.5 49.5 76.5s45.5 39.333 73.5 52s58.333 19 91 19c30 0 57 -4.83301 81 -14.5s44.667 -23.167 62 -40.5v40h105v-450h-105z" />
    <glyph glyph-name="acircumflex" unicode="&#xe2;" horiz-adv-x="595" 
d="M230 700h149l74 -155h-108l-41 85l-40 -85h-108zM415 225c0 19.333 -3.5 37.333 -10.5 54s-16.5 31.334 -28.5 44.001s-26.167 22.5 -42.5 29.5s-34.166 10.5 -53.499 10.5s-37.166 -3.5 -53.499 -10.5s-30.5 -16.833 -42.5 -29.5s-21.5 -27.334 -28.5 -44.001
s-10.5 -34.667 -10.5 -54s3.5 -37.333 10.5 -54s16.5 -31.334 28.5 -44.001s26.167 -22.5 42.5 -29.5s34.166 -10.5 53.499 -10.5s37.166 3.5 53.499 10.5s30.5 16.833 42.5 29.5s21.5 27.334 28.5 44.001s10.5 34.667 10.5 54zM415 0v40
c-17.333 -17.333 -38 -30.833 -62 -40.5s-51 -14.5 -81 -14.5c-32.667 0 -63 6.33301 -91 19s-52.5 30 -73.5 52s-37.5 47.5 -49.5 76.5s-18 59.833 -18 92.5s6 63.5 18 92.5s28.5 54.5 49.5 76.5s45.5 39.333 73.5 52s58.333 19 91 19c30 0 57 -4.83301 81 -14.5
s44.667 -23.167 62 -40.5v40h105v-450h-105z" />
    <glyph glyph-name="atilde" unicode="&#xe3;" horiz-adv-x="595" 
d="M477 653c0 -16.667 -3.16699 -32.5 -9.5 -47.5s-14.833 -28 -25.5 -39s-23.167 -19.833 -37.5 -26.5s-29.833 -10 -46.5 -10c-16 0 -29.333 2.33301 -40 7s-20.167 9.83398 -28.5 15.501l-23 15.5c-7 4.66699 -14.5 7 -22.5 7s-14.667 -3 -20 -9s-8 -13 -8 -21h-92
c0 16.667 3.16699 32.5 9.5 47.5s14.833 28 25.5 39s23.167 19.833 37.5 26.5s29.833 10 46.5 10c16 0 29.333 -2.33301 40 -7s20.167 -9.83398 28.5 -15.501l23 -15.5c7 -4.66699 14.5 -7 22.5 -7s14.667 3 20 9s8 13 8 21h92zM415 225c0 19.333 -3.5 37.333 -10.5 54
s-16.5 31.334 -28.5 44.001s-26.167 22.5 -42.5 29.5s-34.166 10.5 -53.499 10.5s-37.166 -3.5 -53.499 -10.5s-30.5 -16.833 -42.5 -29.5s-21.5 -27.334 -28.5 -44.001s-10.5 -34.667 -10.5 -54s3.5 -37.333 10.5 -54s16.5 -31.334 28.5 -44.001s26.167 -22.5 42.5 -29.5
s34.166 -10.5 53.499 -10.5s37.166 3.5 53.499 10.5s30.5 16.833 42.5 29.5s21.5 27.334 28.5 44.001s10.5 34.667 10.5 54zM415 0v40c-17.333 -17.333 -38 -30.833 -62 -40.5s-51 -14.5 -81 -14.5c-32.667 0 -63 6.33301 -91 19s-52.5 30 -73.5 52s-37.5 47.5 -49.5 76.5
s-18 59.833 -18 92.5s6 63.5 18 92.5s28.5 54.5 49.5 76.5s45.5 39.333 73.5 52s58.333 19 91 19c30 0 57 -4.83301 81 -14.5s44.667 -23.167 62 -40.5v40h105v-450h-105z" />
    <glyph glyph-name="adieresis" unicode="&#xe4;" horiz-adv-x="595" 
d="M332 597c0 19.333 6.33301 35.5 19 48.5s28.667 19.5 48 19.5s35.5 -6.5 48.5 -19.5s19.5 -29.167 19.5 -48.5s-6.5 -35.333 -19.5 -48s-29.167 -19 -48.5 -19s-35.333 6.33301 -48 19s-19 28.667 -19 48zM121 597c0 19.333 6.33301 35.5 19 48.5s28.667 19.5 48 19.5
s35.5 -6.5 48.5 -19.5s19.5 -29.167 19.5 -48.5s-6.5 -35.333 -19.5 -48s-29.167 -19 -48.5 -19s-35.333 6.33301 -48 19s-19 28.667 -19 48zM415 225c0 19.333 -3.5 37.333 -10.5 54s-16.5 31.334 -28.5 44.001s-26.167 22.5 -42.5 29.5s-34.166 10.5 -53.499 10.5
s-37.166 -3.5 -53.499 -10.5s-30.5 -16.833 -42.5 -29.5s-21.5 -27.334 -28.5 -44.001s-10.5 -34.667 -10.5 -54s3.5 -37.333 10.5 -54s16.5 -31.334 28.5 -44.001s26.167 -22.5 42.5 -29.5s34.166 -10.5 53.499 -10.5s37.166 3.5 53.499 10.5s30.5 16.833 42.5 29.5
s21.5 27.334 28.5 44.001s10.5 34.667 10.5 54zM415 0v40c-17.333 -17.333 -38 -30.833 -62 -40.5s-51 -14.5 -81 -14.5c-32.667 0 -63 6.33301 -91 19s-52.5 30 -73.5 52s-37.5 47.5 -49.5 76.5s-18 59.833 -18 92.5s6 63.5 18 92.5s28.5 54.5 49.5 76.5
s45.5 39.333 73.5 52s58.333 19 91 19c30 0 57 -4.83301 81 -14.5s44.667 -23.167 62 -40.5v40h105v-450h-105z" />
    <glyph glyph-name="aring" unicode="&#xe5;" horiz-adv-x="595" 
d="M239 620c0 -16 5.33301 -29.333 16 -40s24 -16 40 -16c15.333 0 28.5 5.33301 39.5 16s16.5 24 16.5 40c0 15.333 -5.5 28.5 -16.5 39.5s-24.167 16.5 -39.5 16.5c-16 0 -29.333 -5.5 -40 -16.5s-16 -24.167 -16 -39.5zM175 620c0 16.667 3.16699 32.167 9.5 46.5
s15 27 26 38s23.667 19.667 38 26s29.833 9.5 46.5 9.5s32.167 -3.16699 46.5 -9.5s27 -15 38 -26s19.667 -23.667 26 -38s9.5 -29.833 9.5 -46.5s-3.16699 -32.167 -9.5 -46.5s-15 -27 -26 -38s-23.667 -19.667 -38 -26s-29.833 -9.5 -46.5 -9.5s-32.167 3.16699 -46.5 9.5
s-27 15 -38 26s-19.667 23.667 -26 38s-9.5 29.833 -9.5 46.5zM415 225c0 19.333 -3.5 37.333 -10.5 54s-16.5 31.334 -28.5 44.001s-26.167 22.5 -42.5 29.5s-34.166 10.5 -53.499 10.5s-37.166 -3.5 -53.499 -10.5s-30.5 -16.833 -42.5 -29.5s-21.5 -27.334 -28.5 -44.001
s-10.5 -34.667 -10.5 -54s3.5 -37.333 10.5 -54s16.5 -31.334 28.5 -44.001s26.167 -22.5 42.5 -29.5s34.166 -10.5 53.499 -10.5s37.166 3.5 53.499 10.5s30.5 16.833 42.5 29.5s21.5 27.334 28.5 44.001s10.5 34.667 10.5 54zM415 0v40
c-17.333 -17.333 -38 -30.833 -62 -40.5s-51 -14.5 -81 -14.5c-32.667 0 -63 6.33301 -91 19s-52.5 30 -73.5 52s-37.5 47.5 -49.5 76.5s-18 59.833 -18 92.5s6 63.5 18 92.5s28.5 54.5 49.5 76.5s45.5 39.333 73.5 52s58.333 19 91 19c30 0 57 -4.83301 81 -14.5
s44.667 -23.167 62 -40.5v40h105v-450h-105z" />
    <glyph glyph-name="ae" unicode="&#xe6;" horiz-adv-x="831" 
d="M566 365c-32.667 0 -59.333 -9.5 -80 -28.5s-33.667 -43.167 -39 -72.5h238c-5.33301 29.333 -18.5 53.5 -39.5 72.5s-47.5 28.5 -79.5 28.5zM198.001 178c-15.333 0 -26.333 -2.00098 -33 -6.00098c-5.33301 -3.33301 -10 -7.66602 -14 -12.999s-6 -12.333 -6 -21
c0 -18 7.5 -31.5 22.5 -40.5s33.833 -13.5 56.5 -13.5c32 0 59.333 8 82 24s35.667 39.333 39 70h-147zM398.001 383.999c17.333 22 40.1641 40.998 68.4971 56.998s61.5 24 99.5 24c32.667 0 62.834 -6.33301 90.501 -19s51.5 -29.834 71.5 -51.501
s35.5 -47.167 46.5 -76.5s16.5 -60.333 16.5 -93c0 -8 -0.333008 -16 -1 -24s-1.66699 -15.667 -3 -23h-334c6.66699 -28 20.834 -50.667 42.501 -68s48.5 -26 80.5 -26c26 0 49 5.16699 69 15.5s37 24.833 51 43.5l81 -57c-22 -32.667 -50.333 -57.667 -85 -75
s-74 -26 -118 -26c-38.667 0 -73.667 7.83301 -105 23.5s-55.666 37.167 -72.999 64.5c-7.33301 -10 -16.166 -20.333 -26.499 -31s-22.833 -20.167 -37.5 -28.5s-31.5 -15.166 -50.5 -20.499s-40.5 -8 -64.5 -8c-23.333 0 -45.5 3.33301 -66.5 10
s-39.833 16.334 -56.5 29.001s-29.834 28.5 -39.501 47.5s-14.5 40.5 -14.5 64.5c0 30 6.16699 53.833 18.5 71.5s26.833 31.167 43.5 40.5c10.667 6 22.5 10.5 35.5 13.5s29.5 4.5 49.5 4.5h159c-2 29.333 -13 52.833 -33 70.5s-47 26.5 -81 26.5
c-24 0 -44.667 -4.83301 -62 -14.5s-32 -22.5 -44 -38.5l-85 60c21.333 28.667 47.333 51.667 78 69s67.667 26 111 26c40.667 0 74.5 -7.66699 101.5 -23s49.167 -34.666 66.5 -57.999z" />
    <glyph glyph-name="ccedilla" unicode="&#xe7;" horiz-adv-x="507" 
d="M222 -45h115l-72 -155h-116zM392 306c-12 17.333 -27.833 31.166 -47.5 41.499s-41.167 15.5 -64.5 15.5c-19.333 0 -37.166 -3.5 -53.499 -10.5s-30.5 -16.667 -42.5 -29s-21.5 -27 -28.5 -44s-10.5 -35.167 -10.5 -54.5s3.5 -37.5 10.5 -54.5s16.5 -31.667 28.5 -44
s26.167 -22 42.5 -29s34.166 -10.5 53.499 -10.5c23.333 0 44.833 5.16699 64.5 15.5s35.5 24.166 47.5 41.499l85 -56c-22 -31.333 -50.167 -56.333 -84.5 -75s-71.833 -28 -112.5 -28c-33.333 0 -64.5 6.33301 -93.5 19s-54.333 29.834 -76 51.501s-38.834 47 -51.501 76
s-19 60.167 -19 93.5c0 32.667 6.33301 63.667 19 93s29.834 54.833 51.501 76.5s47 38.834 76 51.501s60.167 19 93.5 19c40.667 0 78.167 -9.33301 112.5 -28s62.5 -43.667 84.5 -75z" />
    <glyph glyph-name="egrave" unicode="&#xe8;" horiz-adv-x="530" 
d="M323 545h-116l-72 155h115zM265 365c-32.667 0 -59.333 -9.5 -80 -28.5s-33.667 -43.167 -39 -72.5h238c-5.33301 29.333 -18.5 53.5 -39.5 72.5s-47.5 28.5 -79.5 28.5zM275.001 84c26 0 49 5.16699 69 15.5s37 24.833 51 43.5l81 -57
c-22 -32.667 -50.333 -57.667 -85 -75s-74 -26 -118 -26c-34 0 -65.333 6.16699 -94 18.5s-53.334 29.333 -74.001 51s-36.667 47 -48 76s-17 60.5 -17 94.5c0 32.667 5.5 63.667 16.5 93s26.5 54.833 46.5 76.5s43.667 38.834 71 51.501s57.666 19 90.999 19
c32.667 0 62.834 -6.33301 90.501 -19s51.5 -29.834 71.5 -51.501s35.5 -47.167 46.5 -76.5s16.5 -60.333 16.5 -93c0 -8 -0.333008 -16 -1 -24s-1.66699 -15.667 -3 -23h-334c6.66699 -28 20.834 -50.667 42.501 -68s48.5 -26 80.5 -26z" />
    <glyph glyph-name="eacute" unicode="&#xe9;" horiz-adv-x="530" 
d="M280 700h115l-72 -155h-116zM265 365c-32.667 0 -59.333 -9.5 -80 -28.5s-33.667 -43.167 -39 -72.5h238c-5.33301 29.333 -18.5 53.5 -39.5 72.5s-47.5 28.5 -79.5 28.5zM275.001 84c26 0 49 5.16699 69 15.5s37 24.833 51 43.5l81 -57
c-22 -32.667 -50.333 -57.667 -85 -75s-74 -26 -118 -26c-34 0 -65.333 6.16699 -94 18.5s-53.334 29.333 -74.001 51s-36.667 47 -48 76s-17 60.5 -17 94.5c0 32.667 5.5 63.667 16.5 93s26.5 54.833 46.5 76.5s43.667 38.834 71 51.501s57.666 19 90.999 19
c32.667 0 62.834 -6.33301 90.501 -19s51.5 -29.834 71.5 -51.501s35.5 -47.167 46.5 -76.5s16.5 -60.333 16.5 -93c0 -8 -0.333008 -16 -1 -24s-1.66699 -15.667 -3 -23h-334c6.66699 -28 20.834 -50.667 42.501 -68s48.5 -26 80.5 -26z" />
    <glyph glyph-name="ecircumflex" unicode="&#xea;" horiz-adv-x="530" 
d="M191 700h149l74 -155h-108l-41 85l-40 -85h-108zM265 365c-32.667 0 -59.333 -9.5 -80 -28.5s-33.667 -43.167 -39 -72.5h238c-5.33301 29.333 -18.5 53.5 -39.5 72.5s-47.5 28.5 -79.5 28.5zM275.001 84c26 0 49 5.16699 69 15.5s37 24.833 51 43.5l81 -57
c-22 -32.667 -50.333 -57.667 -85 -75s-74 -26 -118 -26c-34 0 -65.333 6.16699 -94 18.5s-53.334 29.333 -74.001 51s-36.667 47 -48 76s-17 60.5 -17 94.5c0 32.667 5.5 63.667 16.5 93s26.5 54.833 46.5 76.5s43.667 38.834 71 51.501s57.666 19 90.999 19
c32.667 0 62.834 -6.33301 90.501 -19s51.5 -29.834 71.5 -51.501s35.5 -47.167 46.5 -76.5s16.5 -60.333 16.5 -93c0 -8 -0.333008 -16 -1 -24s-1.66699 -15.667 -3 -23h-334c6.66699 -28 20.834 -50.667 42.501 -68s48.5 -26 80.5 -26z" />
    <glyph glyph-name="edieresis" unicode="&#xeb;" horiz-adv-x="530" 
d="M265 365c-32.667 0 -59.333 -9.5 -80 -28.5s-33.667 -43.167 -39 -72.5h238c-5.33301 29.333 -18.5 53.5 -39.5 72.5s-47.5 28.5 -79.5 28.5zM303.001 597c0 19.333 6.33301 35.5 19 48.5s28.667 19.5 48 19.5s35.5 -6.5 48.5 -19.5s19.5 -29.167 19.5 -48.5
s-6.5 -35.333 -19.5 -48s-29.167 -19 -48.5 -19s-35.333 6.33301 -48 19s-19 28.667 -19 48zM92.001 597c0 19.333 6.33301 35.5 19 48.5s28.667 19.5 48 19.5s35.5 -6.5 48.5 -19.5s19.5 -29.167 19.5 -48.5s-6.5 -35.333 -19.5 -48s-29.167 -19 -48.5 -19
s-35.333 6.33301 -48 19s-19 28.667 -19 48zM275.001 84c26 0 49 5.16699 69 15.5s37 24.833 51 43.5l81 -57c-22 -32.667 -50.333 -57.667 -85 -75s-74 -26 -118 -26c-34 0 -65.333 6.16699 -94 18.5s-53.334 29.333 -74.001 51s-36.667 47 -48 76s-17 60.5 -17 94.5
c0 32.667 5.5 63.667 16.5 93s26.5 54.833 46.5 76.5s43.667 38.834 71 51.501s57.666 19 90.999 19c32.667 0 62.834 -6.33301 90.501 -19s51.5 -29.834 71.5 -51.501s35.5 -47.167 46.5 -76.5s16.5 -60.333 16.5 -93c0 -8 -0.333008 -16 -1 -24s-1.66699 -15.667 -3 -23
h-334c6.66699 -28 20.834 -50.667 42.501 -68s48.5 -26 80.5 -26z" />
    <glyph glyph-name="igrave" unicode="&#xec;" horiz-adv-x="255" 
d="M191 545h-116l-72 155h115zM75 0v450h105v-450h-105z" />
    <glyph glyph-name="iacute" unicode="&#xed;" horiz-adv-x="255" 
d="M137 700h115l-72 -155h-116zM75 0v450h105v-450h-105z" />
    <glyph glyph-name="icircumflex" unicode="&#xee;" horiz-adv-x="255" 
d="M54 700h149l74 -155h-108l-41 85l-40 -85h-108zM75 0v450h105v-450h-105z" />
    <glyph glyph-name="idieresis" unicode="&#xef;" horiz-adv-x="255" 
d="M166 597c0 19.333 6.33301 35.5 19 48.5s28.667 19.5 48 19.5s35.5 -6.5 48.5 -19.5s19.5 -29.167 19.5 -48.5s-6.5 -35.333 -19.5 -48s-29.167 -19 -48.5 -19s-35.333 6.33301 -48 19s-19 28.667 -19 48zM-45 597c0 19.333 6.33301 35.5 19 48.5s28.667 19.5 48 19.5
s35.5 -6.5 48.5 -19.5s19.5 -29.167 19.5 -48.5s-6.5 -35.333 -19.5 -48s-29.167 -19 -48.5 -19s-35.333 6.33301 -48 19s-19 28.667 -19 48zM75 0v450h105v-450h-105z" />
    <glyph glyph-name="eth" unicode="&#xf0;" 
d="M280 87c19.333 0 37.333 3.66699 54 11s31 17.333 43 30s21.333 27.334 28 44.001s10 34.334 10 53.001s-3.33301 36.334 -10 53.001s-16 31.334 -28 44.001s-26.333 22.667 -43 30s-34.667 11 -54 11s-37.333 -3.66699 -54 -11s-31 -17.333 -43 -30
s-21.333 -27.334 -28 -44.001s-10 -34.334 -10 -53.001s3.33301 -36.334 10 -53.001s16 -31.334 28 -44.001s26.333 -22.667 43 -30s34.667 -11 54 -11zM137 478l0.00488281 95.9971l75 39l-50 87h122l21 -38l109 58v-96l-67 -35l118 -205
c11.333 -20 20.666 -37.667 27.999 -53s13 -29.333 17 -42s6.66699 -24.5 8 -35.5s2 -22.167 2 -33.5c0 -32.667 -6.33301 -63.167 -19 -91.5s-29.834 -53.166 -51.501 -74.499s-47.167 -38.166 -76.5 -50.499s-60.333 -18.5 -93 -18.5c-33.333 0 -64.5 6.33301 -93.5 19
s-54.333 29.834 -76 51.501s-38.834 47 -51.501 76s-19 60.167 -19 93.5c0 37.333 7 70.5 21 99.5s31.667 53.5 53 73.5s45.166 35.167 71.499 45.5s51.833 15.5 76.5 15.5c7.33301 0 14.666 -0.333008 21.999 -1s14 -1.66699 20 -3l-50 85z" />
    <glyph glyph-name="ntilde" unicode="&#xf1;" horiz-adv-x="539" 
d="M448 653c0 -16.667 -3.16699 -32.5 -9.5 -47.5s-14.833 -28 -25.5 -39s-23.167 -19.833 -37.5 -26.5s-29.833 -10 -46.5 -10c-16 0 -29.333 2.33301 -40 7s-20.167 9.83398 -28.5 15.501l-23 15.5c-7 4.66699 -14.5 7 -22.5 7s-14.667 -3 -20 -9s-8 -13 -8 -21h-92
c0 16.667 3.16699 32.5 9.5 47.5s14.833 28 25.5 39s23.167 19.833 37.5 26.5s29.833 10 46.5 10c16 0 29.333 -2.33301 40 -7s20.167 -9.83398 28.5 -15.501l23 -15.5c7 -4.66699 14.5 -7 22.5 -7s14.667 3 20 9s8 13 8 21h92zM364 246
c0 24 -2.66504 42.999 -7.99805 56.999s-12.666 25.333 -21.999 34c-16.667 15.333 -37.334 23 -62.001 23s-45.334 -7.66699 -62.001 -23c-9.33301 -8.66699 -16.666 -20 -21.999 -34s-8 -33 -8 -57v-246h-105v450h105v-30c15.333 14 32.666 25 51.999 33s40.333 12 63 12
c28.667 0 55.167 -6.83301 79.5 -20.5s44.166 -31.5 59.499 -53.5c10.667 -15.333 19.167 -33.666 25.5 -54.999s9.5 -49.333 9.5 -84v-252h-105v246z" />
    <glyph glyph-name="ograve" unicode="&#xf2;" 
d="M338 545h-116l-72 155h115zM145 225c0 -19.333 3.5 -37.333 10.5 -54s16.5 -31.334 28.5 -44.001s26.167 -22.5 42.5 -29.5s34.166 -10.5 53.499 -10.5s37.166 3.5 53.499 10.5s30.5 16.833 42.5 29.5s21.5 27.334 28.5 44.001s10.5 34.667 10.5 54s-3.5 37.333 -10.5 54
s-16.5 31.334 -28.5 44.001s-26.167 22.5 -42.5 29.5s-34.166 10.5 -53.499 10.5s-37.166 -3.5 -53.499 -10.5s-30.5 -16.833 -42.5 -29.5s-21.5 -27.334 -28.5 -44.001s-10.5 -34.667 -10.5 -54zM40 225c0 32.667 6.33301 63.667 19 93s29.834 54.833 51.501 76.5
s47 38.834 76 51.501s60.167 19 93.5 19c32.667 0 63.667 -6.33301 93 -19s54.833 -29.834 76.5 -51.501s38.834 -47.167 51.501 -76.5s19 -60.333 19 -93c0 -33.333 -6.33301 -64.5 -19 -93.5s-29.834 -54.333 -51.501 -76s-47.167 -38.834 -76.5 -51.501
s-60.333 -19 -93 -19c-33.333 0 -64.5 6.33301 -93.5 19s-54.333 29.834 -76 51.501s-38.834 47 -51.501 76s-19 60.167 -19 93.5z" />
    <glyph glyph-name="oacute" unicode="&#xf3;" 
d="M294 700h115l-72 -155h-116zM145 225c0 -19.333 3.5 -37.333 10.5 -54s16.5 -31.334 28.5 -44.001s26.167 -22.5 42.5 -29.5s34.166 -10.5 53.499 -10.5s37.166 3.5 53.499 10.5s30.5 16.833 42.5 29.5s21.5 27.334 28.5 44.001s10.5 34.667 10.5 54
s-3.5 37.333 -10.5 54s-16.5 31.334 -28.5 44.001s-26.167 22.5 -42.5 29.5s-34.166 10.5 -53.499 10.5s-37.166 -3.5 -53.499 -10.5s-30.5 -16.833 -42.5 -29.5s-21.5 -27.334 -28.5 -44.001s-10.5 -34.667 -10.5 -54zM40 225c0 32.667 6.33301 63.667 19 93
s29.834 54.833 51.501 76.5s47 38.834 76 51.501s60.167 19 93.5 19c32.667 0 63.667 -6.33301 93 -19s54.833 -29.834 76.5 -51.501s38.834 -47.167 51.501 -76.5s19 -60.333 19 -93c0 -33.333 -6.33301 -64.5 -19 -93.5s-29.834 -54.333 -51.501 -76
s-47.167 -38.834 -76.5 -51.501s-60.333 -19 -93 -19c-33.333 0 -64.5 6.33301 -93.5 19s-54.333 29.834 -76 51.501s-38.834 47 -51.501 76s-19 60.167 -19 93.5z" />
    <glyph glyph-name="ocircumflex" unicode="&#xf4;" 
d="M206 700h149l74 -155h-108l-41 85l-40 -85h-108zM145 225c0 -19.333 3.5 -37.333 10.5 -54s16.5 -31.334 28.5 -44.001s26.167 -22.5 42.5 -29.5s34.166 -10.5 53.499 -10.5s37.166 3.5 53.499 10.5s30.5 16.833 42.5 29.5s21.5 27.334 28.5 44.001s10.5 34.667 10.5 54
s-3.5 37.333 -10.5 54s-16.5 31.334 -28.5 44.001s-26.167 22.5 -42.5 29.5s-34.166 10.5 -53.499 10.5s-37.166 -3.5 -53.499 -10.5s-30.5 -16.833 -42.5 -29.5s-21.5 -27.334 -28.5 -44.001s-10.5 -34.667 -10.5 -54zM40 225c0 32.667 6.33301 63.667 19 93
s29.834 54.833 51.501 76.5s47 38.834 76 51.501s60.167 19 93.5 19c32.667 0 63.667 -6.33301 93 -19s54.833 -29.834 76.5 -51.501s38.834 -47.167 51.501 -76.5s19 -60.333 19 -93c0 -33.333 -6.33301 -64.5 -19 -93.5s-29.834 -54.333 -51.501 -76
s-47.167 -38.834 -76.5 -51.501s-60.333 -19 -93 -19c-33.333 0 -64.5 6.33301 -93.5 19s-54.333 29.834 -76 51.501s-38.834 47 -51.501 76s-19 60.167 -19 93.5z" />
    <glyph glyph-name="otilde" unicode="&#xf5;" 
d="M456 653c0 -16.667 -3.16699 -32.5 -9.5 -47.5s-14.833 -28 -25.5 -39s-23.167 -19.833 -37.5 -26.5s-29.833 -10 -46.5 -10c-16 0 -29.333 2.33301 -40 7s-20.167 9.83398 -28.5 15.501l-23 15.5c-7 4.66699 -14.5 7 -22.5 7s-14.667 -3 -20 -9s-8 -13 -8 -21h-92
c0 16.667 3.16699 32.5 9.5 47.5s14.833 28 25.5 39s23.167 19.833 37.5 26.5s29.833 10 46.5 10c16 0 29.333 -2.33301 40 -7s20.167 -9.83398 28.5 -15.501l23 -15.5c7 -4.66699 14.5 -7 22.5 -7s14.667 3 20 9s8 13 8 21h92zM145 225c0 -19.333 3.5 -37.333 10.5 -54
s16.5 -31.334 28.5 -44.001s26.167 -22.5 42.5 -29.5s34.166 -10.5 53.499 -10.5s37.166 3.5 53.499 10.5s30.5 16.833 42.5 29.5s21.5 27.334 28.5 44.001s10.5 34.667 10.5 54s-3.5 37.333 -10.5 54s-16.5 31.334 -28.5 44.001s-26.167 22.5 -42.5 29.5
s-34.166 10.5 -53.499 10.5s-37.166 -3.5 -53.499 -10.5s-30.5 -16.833 -42.5 -29.5s-21.5 -27.334 -28.5 -44.001s-10.5 -34.667 -10.5 -54zM40 225c0 32.667 6.33301 63.667 19 93s29.834 54.833 51.501 76.5s47 38.834 76 51.501s60.167 19 93.5 19
c32.667 0 63.667 -6.33301 93 -19s54.833 -29.834 76.5 -51.501s38.834 -47.167 51.501 -76.5s19 -60.333 19 -93c0 -33.333 -6.33301 -64.5 -19 -93.5s-29.834 -54.333 -51.501 -76s-47.167 -38.834 -76.5 -51.501s-60.333 -19 -93 -19c-33.333 0 -64.5 6.33301 -93.5 19
s-54.333 29.834 -76 51.501s-38.834 47 -51.501 76s-19 60.167 -19 93.5z" />
    <glyph glyph-name="odieresis" unicode="&#xf6;" 
d="M318 597c0 19.333 6.33301 35.5 19 48.5s28.667 19.5 48 19.5s35.5 -6.5 48.5 -19.5s19.5 -29.167 19.5 -48.5s-6.5 -35.333 -19.5 -48s-29.167 -19 -48.5 -19s-35.333 6.33301 -48 19s-19 28.667 -19 48zM107 597c0 19.333 6.33301 35.5 19 48.5s28.667 19.5 48 19.5
s35.5 -6.5 48.5 -19.5s19.5 -29.167 19.5 -48.5s-6.5 -35.333 -19.5 -48s-29.167 -19 -48.5 -19s-35.333 6.33301 -48 19s-19 28.667 -19 48zM145 225c0 -19.333 3.5 -37.333 10.5 -54s16.5 -31.334 28.5 -44.001s26.167 -22.5 42.5 -29.5s34.166 -10.5 53.499 -10.5
s37.166 3.5 53.499 10.5s30.5 16.833 42.5 29.5s21.5 27.334 28.5 44.001s10.5 34.667 10.5 54s-3.5 37.333 -10.5 54s-16.5 31.334 -28.5 44.001s-26.167 22.5 -42.5 29.5s-34.166 10.5 -53.499 10.5s-37.166 -3.5 -53.499 -10.5s-30.5 -16.833 -42.5 -29.5
s-21.5 -27.334 -28.5 -44.001s-10.5 -34.667 -10.5 -54zM40 225c0 32.667 6.33301 63.667 19 93s29.834 54.833 51.501 76.5s47 38.834 76 51.501s60.167 19 93.5 19c32.667 0 63.667 -6.33301 93 -19s54.833 -29.834 76.5 -51.501s38.834 -47.167 51.501 -76.5
s19 -60.333 19 -93c0 -33.333 -6.33301 -64.5 -19 -93.5s-29.834 -54.333 -51.501 -76s-47.167 -38.834 -76.5 -51.501s-60.333 -19 -93 -19c-33.333 0 -64.5 6.33301 -93.5 19s-54.333 29.834 -76 51.501s-38.834 47 -51.501 76s-19 60.167 -19 93.5z" />
    <glyph glyph-name="divide" unicode="&#xf7;" 
d="M515 195h-470v102h470v-102zM203 424c0 21.333 7.5 39.666 22.5 54.999s33.167 23 54.5 23s39.666 -7.66699 54.999 -23s23 -33.666 23 -54.999s-7.66699 -39.5 -23 -54.5s-33.666 -22.5 -54.999 -22.5s-39.5 7.5 -54.5 22.5s-22.5 33.167 -22.5 54.5zM203 67
c0 21.333 7.5 39.666 22.5 54.999s33.167 23 54.5 23s39.666 -7.66699 54.999 -23s23 -33.666 23 -54.999s-7.66699 -39.5 -23 -54.5s-33.666 -22.5 -54.999 -22.5s-39.5 7.5 -54.5 22.5s-22.5 33.167 -22.5 54.5z" />
    <glyph glyph-name="oslash" unicode="&#xf8;" 
d="M145 225c0 -30.667 8.33203 -57.999 24.999 -81.999l150 214c-12 4 -25.333 6 -40 6c-19.333 0 -37.166 -3.5 -53.499 -10.5s-30.5 -16.833 -42.5 -29.5s-21.5 -27.334 -28.5 -44.001s-10.5 -34.667 -10.5 -54zM279.999 87.001c19.333 0 37.166 3.49902 53.499 10.499
s30.5 16.833 42.5 29.5s21.5 27.334 28.5 44.001s10.5 34.667 10.5 54c0 15.333 -2.33301 29.833 -7 43.5s-11 26.167 -19 37.5l-150 -213c12.667 -4 26.334 -6 41.001 -6zM39.999 225c0 32.667 6.33301 63.667 19 93s29.834 54.833 51.501 76.5s47 38.834 76 51.501
s60.167 19 93.5 19c36 0 69.333 -7.66699 100 -23l17 23h104l-51 -72c21.333 -21.333 38.333 -46.5 51 -75.5s19 -59.833 19 -92.5c0 -33.333 -6.33301 -64.5 -19 -93.5s-29.834 -54.333 -51.501 -76s-47.167 -38.834 -76.5 -51.501s-60.333 -19 -93 -19
c-36 0 -69.333 7.66699 -100 23l-17 -23h-104l51 72c-21.333 21.333 -38.333 46.5 -51 75.5s-19 59.833 -19 92.5z" />
    <glyph glyph-name="ugrave" unicode="&#xf9;" horiz-adv-x="530" 
d="M322 545h-116l-72 155h115zM265 -15c-24.667 0 -47.6689 4.16699 -69.002 12.5s-40.666 19.833 -57.999 34.5c-20.667 18 -37.167 40.5 -49.5 67.5s-18.5 60.5 -18.5 100.5v250h105v-253c0 -24 3 -43 9 -57s14 -25 24 -33c15.333 -13.333 34.333 -20 57 -20
s41.667 6.66699 57 20c10 8 18 19 24 33s9 33 9 57v253h105v-250c0 -40 -6.16699 -73.5 -18.5 -100.5s-28.833 -49.5 -49.5 -67.5c-17.333 -14.667 -36.666 -26.167 -57.999 -34.5s-44.333 -12.5 -69 -12.5z" />
    <glyph glyph-name="uacute" unicode="&#xfa;" horiz-adv-x="530" 
d="M280 700h115l-72 -155h-116zM265 -15c-24.667 0 -47.6689 4.16699 -69.002 12.5s-40.666 19.833 -57.999 34.5c-20.667 18 -37.167 40.5 -49.5 67.5s-18.5 60.5 -18.5 100.5v250h105v-253c0 -24 3 -43 9 -57s14 -25 24 -33c15.333 -13.333 34.333 -20 57 -20
s41.667 6.66699 57 20c10 8 18 19 24 33s9 33 9 57v253h105v-250c0 -40 -6.16699 -73.5 -18.5 -100.5s-28.833 -49.5 -49.5 -67.5c-17.333 -14.667 -36.666 -26.167 -57.999 -34.5s-44.333 -12.5 -69 -12.5z" />
    <glyph glyph-name="ucircumflex" unicode="&#xfb;" horiz-adv-x="530" 
d="M191 700h149l74 -155h-108l-41 85l-40 -85h-108zM265 -15c-24.667 0 -47.6689 4.16699 -69.002 12.5s-40.666 19.833 -57.999 34.5c-20.667 18 -37.167 40.5 -49.5 67.5s-18.5 60.5 -18.5 100.5v250h105v-253c0 -24 3 -43 9 -57s14 -25 24 -33
c15.333 -13.333 34.333 -20 57 -20s41.667 6.66699 57 20c10 8 18 19 24 33s9 33 9 57v253h105v-250c0 -40 -6.16699 -73.5 -18.5 -100.5s-28.833 -49.5 -49.5 -67.5c-17.333 -14.667 -36.666 -26.167 -57.999 -34.5s-44.333 -12.5 -69 -12.5z" />
    <glyph glyph-name="udieresis" unicode="&#xfc;" horiz-adv-x="530" 
d="M303 597c0 19.333 6.33301 35.5 19 48.5s28.667 19.5 48 19.5s35.5 -6.5 48.5 -19.5s19.5 -29.167 19.5 -48.5s-6.5 -35.333 -19.5 -48s-29.167 -19 -48.5 -19s-35.333 6.33301 -48 19s-19 28.667 -19 48zM92 597c0 19.333 6.33301 35.5 19 48.5s28.667 19.5 48 19.5
s35.5 -6.5 48.5 -19.5s19.5 -29.167 19.5 -48.5s-6.5 -35.333 -19.5 -48s-29.167 -19 -48.5 -19s-35.333 6.33301 -48 19s-19 28.667 -19 48zM265 -15c-24.667 0 -47.6689 4.16699 -69.002 12.5s-40.666 19.833 -57.999 34.5c-20.667 18 -37.167 40.5 -49.5 67.5
s-18.5 60.5 -18.5 100.5v250h105v-253c0 -24 3 -43 9 -57s14 -25 24 -33c15.333 -13.333 34.333 -20 57 -20s41.667 6.66699 57 20c10 8 18 19 24 33s9 33 9 57v253h105v-250c0 -40 -6.16699 -73.5 -18.5 -100.5s-28.833 -49.5 -49.5 -67.5
c-17.333 -14.667 -36.666 -26.167 -57.999 -34.5s-44.333 -12.5 -69 -12.5z" />
    <glyph glyph-name="yacute" unicode="&#xfd;" horiz-adv-x="516" 
d="M279 700h115l-72 -155h-116zM128 -220l82 220l-180 450h114l120 -314l114 314h113l-251 -670h-112z" />
    <glyph glyph-name="thorn" unicode="&#xfe;" horiz-adv-x="595" 
d="M315 87c19.333 0 37.166 3.5 53.499 10.5s30.5 16.833 42.5 29.5s21.5 27.334 28.5 44.001s10.5 34.667 10.5 54s-3.5 37.333 -10.5 54s-16.5 31.334 -28.5 44.001s-26.167 22.5 -42.5 29.5s-34.166 10.5 -53.499 10.5s-37.166 -3.5 -53.499 -10.5
s-30.5 -16.833 -42.5 -29.5s-21.5 -27.334 -28.5 -44.001s-10.5 -34.667 -10.5 -54s3.5 -37.333 10.5 -54s16.5 -31.334 28.5 -44.001s26.167 -22.5 42.5 -29.5s34.166 -10.5 53.499 -10.5zM75 -235v935h105v-291c17.333 17.333 37.833 31 61.5 41s50.834 15 81.501 15
c32.667 0 63 -6.33301 91 -19s52.5 -30 73.5 -52s37.5 -47.5 49.5 -76.5s18 -59.833 18 -92.5s-6 -63.5 -18 -92.5s-28.5 -54.5 -49.5 -76.5s-45.5 -39.333 -73.5 -52s-58.333 -19 -91 -19c-30.667 0 -57.834 5 -81.501 15s-44.167 23.667 -61.5 41v-276h-105z" />
    <glyph glyph-name="ydieresis" unicode="&#xff;" horiz-adv-x="516" 
d="M299 597c0 19.333 6.33301 35.5 19 48.5s28.667 19.5 48 19.5s35.5 -6.5 48.5 -19.5s19.5 -29.167 19.5 -48.5s-6.5 -35.333 -19.5 -48s-29.167 -19 -48.5 -19s-35.333 6.33301 -48 19s-19 28.667 -19 48zM88 597c0 19.333 6.33301 35.5 19 48.5s28.667 19.5 48 19.5
s35.5 -6.5 48.5 -19.5s19.5 -29.167 19.5 -48.5s-6.5 -35.333 -19.5 -48s-29.167 -19 -48.5 -19s-35.333 6.33301 -48 19s-19 28.667 -19 48zM128 -220l82 220l-180 450h114l120 -314l114 314h113l-251 -670h-112z" />
    <glyph glyph-name="dotlessi" unicode="&#x131;" horiz-adv-x="255" 
d="M75 0v450h105v-450h-105z" />
    <glyph glyph-name="Lslash" unicode="&#x141;" horiz-adv-x="515" 
d="M180 102h320v-102h-425v313l-100 -52v96l100 52v291h105v-235l110 57v-96l-110 -57v-267z" />
    <glyph glyph-name="lslash" unicode="&#x142;" horiz-adv-x="255" 
d="M290 522v-96l-110 -57v-369h-105v313l-100 -52v96l100 52v291h105v-235z" />
    <glyph glyph-name="OE" unicode="&#x152;" horiz-adv-x="1140" 
d="M410 87c36.667 0 70.834 6.83301 102.501 20.5s59.167 32.334 82.5 56.001s41.666 51.5 54.999 83.5s20 66.333 20 103s-6.66699 71 -20 103s-31.666 59.833 -54.999 83.5s-50.833 42.334 -82.5 56.001s-65.834 20.5 -102.501 20.5s-70.834 -6.83301 -102.501 -20.5
s-59.167 -32.334 -82.5 -56.001s-41.666 -51.5 -54.999 -83.5s-20 -66.333 -20 -103s6.66699 -71 20 -103s31.666 -59.833 54.999 -83.5s50.833 -42.334 82.5 -56.001s65.834 -20.5 102.501 -20.5zM1095 700v-102h-320v-196h310v-102h-310v-198h320v-102h-425v94
c-34 -34 -73.167 -60.667 -117.5 -80s-91.833 -29 -142.5 -29c-50 0 -97.167 9.66699 -141.5 29s-83 45.5 -116 78.5s-59.167 71.667 -78.5 116s-29 91.5 -29 141.5s9.66699 97.167 29 141.5s45.5 83 78.5 116s71.667 59.167 116 78.5s91.5 29 141.5 29
c50.667 0 98.167 -9.66699 142.5 -29s83.5 -46 117.5 -80v94h425z" />
    <glyph glyph-name="oe" unicode="&#x153;" horiz-adv-x="899" 
d="M634 365c-32.667 0 -59.333 -9.5 -80 -28.5s-33.667 -43.167 -39 -72.5h238c-5.33301 29.333 -18.5 53.5 -39.5 72.5s-47.5 28.5 -79.5 28.5zM521.001 178c6.66699 -28 20.8291 -50.668 42.4961 -68.001s48.5 -26 80.5 -26c26 0 49 5.16699 69 15.5s37 24.833 51 43.5
l81 -57c-21.333 -32 -49.166 -56.833 -83.499 -74.5s-73.166 -26.5 -116.499 -26.5c-40.667 0 -76.167 8.16699 -106.5 24.5s-56.166 37.5 -77.499 63.5c-22 -25.333 -47.667 -46.333 -77 -63s-64 -25 -104 -25c-33.333 0 -64.5 6.33301 -93.5 19s-54.333 29.834 -76 51.501
s-38.834 47 -51.501 76s-19 60.167 -19 93.5c0 32.667 6.33301 63.667 19 93s29.834 54.833 51.501 76.5s47 38.834 76 51.501s60.167 19 93.5 19c39.333 0 73.833 -8.5 103.5 -25.5s55.5 -38.167 77.5 -63.5c20 25.333 44.167 46.5 72.5 63.5s61.833 25.5 100.5 25.5
c32.667 0 62.834 -6.33301 90.501 -19s51.5 -29.834 71.5 -51.501s35.5 -47.167 46.5 -76.5s16.5 -60.333 16.5 -93c0 -8 -0.333008 -16 -1 -24s-1.66699 -15.667 -3 -23h-334zM144.996 224.999c0 -19.333 3.5 -37.333 10.5 -54s16.5 -31.334 28.5 -44.001
s26.167 -22.5 42.5 -29.5s34.166 -10.5 53.499 -10.5s37.166 3.5 53.499 10.5s30.5 16.833 42.5 29.5s21.5 27.334 28.5 44.001s10.5 34.667 10.5 54s-3.5 37.333 -10.5 54s-16.5 31.334 -28.5 44.001s-26.167 22.5 -42.5 29.5s-34.166 10.5 -53.499 10.5
s-37.166 -3.5 -53.499 -10.5s-30.5 -16.833 -42.5 -29.5s-21.5 -27.334 -28.5 -44.001s-10.5 -34.667 -10.5 -54z" />
    <glyph glyph-name="Scaron" unicode="&#x160;" horiz-adv-x="509" 
d="M99 950h108l40 -85l41 85h108l-74 -155h-149zM145 162c6 -21.333 18.6641 -39.168 37.9971 -53.501s40.666 -21.5 63.999 -21.5c30.667 0 55.334 10.167 74.001 30.5s28 44.5 28 72.5c0 15.333 -3 29.5 -9 42.5s-13.333 23.167 -22 30.5
c-14 12.667 -29.833 22.167 -47.5 28.5l-55 19.5c-19 6.66699 -38.167 14.667 -57.5 24s-37.666 23.333 -54.999 42c-16.667 17.333 -30 38 -40 62s-15 50 -15 78c0 27.333 5.33301 53 16 77s25 45 43 63s39 32.167 63 42.5s49.667 15.5 77 15.5
c22.667 0 44.5 -3.83301 65.5 -11.5s40 -18.167 57 -31.5s31.5 -29 43.5 -47s21 -37.667 27 -59l-99 -24c-6.66699 20.667 -18.5 37.667 -35.5 51s-36.5 20 -58.5 20c-14 0 -26.667 -2.5 -38 -7.5s-21.166 -11.833 -29.499 -20.5s-14.833 -18.667 -19.5 -30
s-7 -23.333 -7 -36c0 -14 2.33301 -26.667 7 -38s10.667 -21 18 -29c13.333 -15.333 29 -26.5 47 -33.5s36.833 -13.833 56.5 -20.5s39.667 -14.5 60 -23.5s39.5 -22.833 57.5 -41.5c15.333 -15.333 28.333 -34.666 39 -57.999s16 -51 16 -83
c0 -28.667 -5.16699 -55.5 -15.5 -80.5s-24.666 -46.833 -42.999 -65.5s-40.166 -33.5 -65.499 -44.5s-53 -16.5 -83 -16.5c-24 0 -47 3.83301 -69 11.5s-41.833 18.5 -59.5 32.5s-32.834 30.5 -45.501 49.5s-22 39.5 -28 61.5z" />
    <glyph glyph-name="scaron" unicode="&#x161;" horiz-adv-x="393" 
d="M45 700h108l40 -85l41 85h108l-74 -155h-149zM165 305c6 -8 14.668 -14.501 26.001 -19.501s23.666 -10.167 36.999 -15.5s26.833 -11.5 40.5 -18.5s25.5 -15.833 35.5 -26.5c11.333 -12 20 -25.667 26 -41s9 -33.666 9 -54.999c0 -20 -3.66699 -38.833 -11 -56.5
s-17.5 -33 -30.5 -46s-28.5 -23.167 -46.5 -30.5s-37.333 -11 -58 -11c-34.667 0 -65 10.333 -91 31s-43 47 -51 79l97 23c2.66699 -10 8 -18.167 16 -24.5s17.333 -9.5 28 -9.5c12.667 0 23.334 4.33301 32.001 13s13 19.334 13 32.001c0 7.33301 -1.83301 14.333 -5.5 21
s-8.16699 12 -13.5 16c-7.33301 5.33301 -16 9.66602 -26 12.999s-20.833 7.16602 -32.5 11.499s-23.667 10 -36 17s-24.166 16.833 -35.499 29.5c-10.667 12 -18.834 26 -24.501 42s-8.5 32.333 -8.5 49c0 18.667 3.66699 36.334 11 53.001s17.166 31.334 29.499 44.001
s26.833 22.5 43.5 29.5s34.667 10.5 54 10.5c32.667 0 61.167 -9.66699 85.5 -29s40.5 -44 48.5 -74l-96 -24c-2 8 -6.5 14.667 -13.5 20s-14.833 8 -23.5 8c-10.667 0 -19.5 -3.66699 -26.5 -11s-10.5 -16.333 -10.5 -27c0 -8.66699 2.66699 -16.334 8 -23.001z" />
    <glyph glyph-name="Ydieresis" unicode="&#x178;" horiz-adv-x="571" 
d="M233 0v319l-238 381h124l166 -272l167 272h124l-238 -381v-319h-105zM323 847c0 19.333 6.33301 35.5 19 48.5s28.667 19.5 48 19.5s35.5 -6.5 48.5 -19.5s19.5 -29.167 19.5 -48.5s-6.5 -35.333 -19.5 -48s-29.167 -19 -48.5 -19s-35.333 6.33301 -48 19
s-19 28.667 -19 48zM112 847c0 19.333 6.33301 35.5 19 48.5s28.667 19.5 48 19.5s35.5 -6.5 48.5 -19.5s19.5 -29.167 19.5 -48.5s-6.5 -35.333 -19.5 -48s-29.167 -19 -48.5 -19s-35.333 6.33301 -48 19s-19 28.667 -19 48z" />
    <glyph glyph-name="florin" unicode="&#x192;" horiz-adv-x="396" 
d="M208 -72c-2.66699 -20.667 -6 -38.5 -10 -53.5s-8.66699 -28 -14 -39s-11.666 -20.667 -18.999 -29s-15.666 -16.166 -24.999 -23.499c-14 -11.333 -30.333 -19.666 -49 -24.999s-37.667 -8 -57 -8s-37 2.5 -53 7.5s-29.667 11.833 -41 20.5l72 84
c8.66699 -6.66699 18.667 -10 30 -10c6 0 12 0.833008 18 2.5s11.667 4.5 17 8.5c6.66699 5.33301 12 12.5 16 21.5s7.33301 22.5 10 40.5l58 423h-80l15 102h80l12 87c2.66699 20.667 6 38.5 10 53.5s8.66699 28 14 39s11.666 20.667 18.999 29
s15.666 16.166 24.999 23.499c14 11.333 30.333 19.666 49 24.999s37.667 8 57 8s37 -2.5 53 -7.5s29.667 -11.833 41 -20.5l-72 -84c-8.66699 6.66699 -18.667 10 -30 10c-6 0 -12 -0.833008 -18 -2.5s-11.667 -4.5 -17 -8.5c-6.66699 -5.33301 -12 -12.5 -16 -21.5
s-7.33301 -22.5 -10 -40.5l-12 -90h110l-15 -102h-110z" />
    <glyph glyph-name="circumflex" unicode="&#x2c6;" horiz-adv-x="387" 
d="M119 700h149l74 -155h-108l-41 85l-40 -85h-108z" />
    <glyph glyph-name="caron" unicode="&#x2c7;" horiz-adv-x="387" 
d="M45 700h108l40 -85l41 85h108l-74 -155h-149z" />
    <glyph glyph-name="breve" unicode="&#x2d8;" horiz-adv-x="360" 
d="M315 665c0 -18.667 -3.50195 -36.167 -10.502 -52.5s-16.667 -30.666 -29 -42.999s-26.666 -22 -42.999 -29s-33.833 -10.5 -52.5 -10.5s-36.167 3.5 -52.5 10.5s-30.666 16.667 -42.999 29s-22 26.666 -29 42.999s-10.5 33.833 -10.5 52.5h95
c0 -12 3.5 -22.167 10.5 -30.5s16.833 -12.5 29.5 -12.5s22.5 4.16699 29.5 12.5s10.5 18.5 10.5 30.5h95z" />
    <glyph glyph-name="dotaccent" unicode="&#x2d9;" horiz-adv-x="225" 
d="M45 597c0 19.333 6.33301 35.5 19 48.5s28.667 19.5 48 19.5s35.5 -6.5 48.5 -19.5s19.5 -29.167 19.5 -48.5s-6.5 -35.333 -19.5 -48s-29.167 -19 -48.5 -19s-35.333 6.33301 -48 19s-19 28.667 -19 48z" />
    <glyph glyph-name="ring" unicode="&#x2da;" horiz-adv-x="330" 
d="M109 620c0 -16 5.33301 -29.333 16 -40s24 -16 40 -16c15.333 0 28.5 5.33301 39.5 16s16.5 24 16.5 40c0 15.333 -5.5 28.5 -16.5 39.5s-24.167 16.5 -39.5 16.5c-16 0 -29.333 -5.5 -40 -16.5s-16 -24.167 -16 -39.5zM45 620c0 16.667 3.16699 32.167 9.5 46.5
s15 27 26 38s23.667 19.667 38 26s29.833 9.5 46.5 9.5s32.167 -3.16699 46.5 -9.5s27 -15 38 -26s19.667 -23.667 26 -38s9.5 -29.833 9.5 -46.5s-3.16699 -32.167 -9.5 -46.5s-15 -27 -26 -38s-23.667 -19.667 -38 -26s-29.833 -9.5 -46.5 -9.5s-32.167 3.16699 -46.5 9.5
s-27 15 -38 26s-19.667 23.667 -26 38s-9.5 29.833 -9.5 46.5z" />
    <glyph glyph-name="ogonek" unicode="&#x2db;" horiz-adv-x="292" 
d="M133 -180l-88 135h113l89 -135h-114z" />
    <glyph glyph-name="tilde" unicode="&#x2dc;" horiz-adv-x="443" 
d="M398 653c0 -16.667 -3.16699 -32.5 -9.5 -47.5s-14.833 -28 -25.5 -39s-23.167 -19.833 -37.5 -26.5s-29.833 -10 -46.5 -10c-16 0 -29.333 2.33301 -40 7s-20.167 9.83398 -28.5 15.501l-23 15.5c-7 4.66699 -14.5 7 -22.5 7s-14.667 -3 -20 -9s-8 -13 -8 -21h-92
c0 16.667 3.16699 32.5 9.5 47.5s14.833 28 25.5 39s23.167 19.833 37.5 26.5s29.833 10 46.5 10c16 0 29.333 -2.33301 40 -7s20.167 -9.83398 28.5 -15.501l23 -15.5c7 -4.66699 14.5 -7 22.5 -7s14.667 3 20 9s8 13 8 21h92z" />
    <glyph glyph-name="hungarumlaut" unicode="&#x2dd;" horiz-adv-x="476" 
d="M229 545l89 135h113l-88 -135h-114zM45 545l89 135h113l-88 -135h-114z" />
    <glyph glyph-name="pi" unicode="&#x3c0;" horiz-adv-x="571" 
d="M130 0v348h-100v102h511v-102h-100v-348h-105v348h-101v-348h-105z" />
    <glyph glyph-name="endash" unicode="&#x2013;" horiz-adv-x="430" 
d="M20 324h390v-102h-390v102z" />
    <glyph glyph-name="emdash" unicode="&#x2014;" horiz-adv-x="685" 
d="M20 324h645v-102h-645v102z" />
    <glyph glyph-name="quoteleft" unicode="&#x2018;" horiz-adv-x="252" 
d="M127 700h115l-116 -250h-116z" />
    <glyph glyph-name="quoteright" unicode="&#x2019;" horiz-adv-x="252" 
d="M127 700h115l-116 -250h-116z" />
    <glyph glyph-name="quotesinglbase" unicode="&#x201a;" horiz-adv-x="252" 
d="M127 125h115l-116 -250h-116z" />
    <glyph glyph-name="quotedblleft" unicode="&#x201c;" horiz-adv-x="467" 
d="M342 700h115l-116 -250h-116zM127 700h115l-116 -250h-116z" />
    <glyph glyph-name="quotedblright" unicode="&#x201d;" horiz-adv-x="467" 
d="M342 700h115l-116 -250h-116zM127 700h115l-116 -250h-116z" />
    <glyph glyph-name="quotedblbase" unicode="&#x201e;" horiz-adv-x="467" 
d="M342 125h115l-116 -250h-116zM127 125h115l-116 -250h-116z" />
    <glyph glyph-name="dagger" unicode="&#x2020;" horiz-adv-x="535" 
d="M215 -235v580h-175v105h175v250h105v-250h175v-105h-175v-580h-105z" />
    <glyph glyph-name="daggerdbl" unicode="&#x2021;" horiz-adv-x="535" 
d="M215 -235v250h-175v105h175v225h-175v105h175v250h105v-250h175v-105h-175v-225h175v-105h-175v-250h-105z" />
    <glyph glyph-name="bullet" unicode="&#x2022;" horiz-adv-x="435" 
d="M50 297c0 23.333 4.33301 45.166 13 65.499s20.667 38.166 36 53.499s33.166 27.333 53.499 36s42.166 13 65.499 13c22.667 0 44.167 -4.33301 64.5 -13s38.166 -20.667 53.499 -36s27.333 -33.166 36 -53.499s13 -42.166 13 -65.499s-4.33301 -45 -13 -65
s-20.667 -37.667 -36 -53s-33.166 -27.333 -53.499 -36s-41.833 -13 -64.5 -13c-23.333 0 -45.166 4.33301 -65.499 13s-38.166 20.667 -53.499 36s-27.333 33 -36 53s-13 41.667 -13 65z" />
    <glyph glyph-name="ellipsis" unicode="&#x2026;" horiz-adv-x="805" 
d="M580 62c0 21.333 7.5 39.666 22.5 54.999s33.167 23 54.5 23s39.666 -7.66699 54.999 -23s23 -33.666 23 -54.999s-7.66699 -39.5 -23 -54.5s-33.666 -22.5 -54.999 -22.5s-39.5 7.5 -54.5 22.5s-22.5 33.167 -22.5 54.5zM325 62c0 21.333 7.5 39.666 22.5 54.999
s33.167 23 54.5 23s39.666 -7.66699 54.999 -23s23 -33.666 23 -54.999s-7.66699 -39.5 -23 -54.5s-33.666 -22.5 -54.999 -22.5s-39.5 7.5 -54.5 22.5s-22.5 33.167 -22.5 54.5zM70 62c0 21.333 7.5 39.666 22.5 54.999s33.167 23 54.5 23s39.666 -7.66699 54.999 -23
s23 -33.666 23 -54.999s-7.66699 -39.5 -23 -54.5s-33.666 -22.5 -54.999 -22.5s-39.5 7.5 -54.5 22.5s-22.5 33.167 -22.5 54.5z" />
    <glyph glyph-name="perthousand" unicode="&#x2030;" horiz-adv-x="1208" 
d="M185 0l445 700h123l-445 -700h-123zM155 527c0 -23.333 7.5 -43.333 22.5 -60s34.833 -25 59.5 -25s44.667 8.33301 60 25s23 36.667 23 60s-7.66699 43.5 -23 60.5s-35.333 25.5 -60 25.5s-44.5 -8.5 -59.5 -25.5s-22.5 -37.167 -22.5 -60.5zM50 527
c0 26 4.83301 50.333 14.5 73s23 42.5 40 59.5s36.833 30.5 59.5 40.5s47 15 73 15s50.333 -5 73 -15s42.5 -23.5 59.5 -40.5s30.5 -36.833 40.5 -59.5s15 -47 15 -73s-5 -50.333 -15 -73s-23.5 -42.5 -40.5 -59.5s-36.833 -30.333 -59.5 -40s-47 -14.5 -73 -14.5
s-50.333 4.83301 -73 14.5s-42.5 23 -59.5 40s-30.333 36.833 -40 59.5s-14.5 47 -14.5 73zM888 172c0 -23.333 7.5 -43.333 22.5 -60s34.833 -25 59.5 -25s44.667 8.33301 60 25s23 36.667 23 60s-7.66699 43.5 -23 60.5s-35.333 25.5 -60 25.5s-44.5 -8.5 -59.5 -25.5
s-22.5 -37.167 -22.5 -60.5zM618 172c0 -23.333 7.5 -43.333 22.5 -60s34.833 -25 59.5 -25s44.667 8.33301 60 25s23 36.667 23 60s-7.66699 43.5 -23 60.5s-35.333 25.5 -60 25.5s-44.5 -8.5 -59.5 -25.5s-22.5 -37.167 -22.5 -60.5zM513 172c0 26 4.83301 50.333 14.5 73
s23 42.5 40 59.5s36.833 30.5 59.5 40.5s47 15 73 15c28 0 53.667 -5.66699 77 -17s42.666 -25.666 57.999 -42.999c15.333 17.333 34.666 31.666 57.999 42.999s49 17 77 17c26 0 50.333 -5 73 -15s42.5 -23.5 59.5 -40.5s30.5 -36.833 40.5 -59.5s15 -47 15 -73
s-5 -50.333 -15 -73s-23.5 -42.5 -40.5 -59.5s-36.833 -30.333 -59.5 -40s-47 -14.5 -73 -14.5c-28 0 -53.667 6 -77 18s-42.666 26.667 -57.999 44c-15.333 -18 -34.666 -32.833 -57.999 -44.5s-49 -17.5 -77 -17.5c-26 0 -50.333 4.83301 -73 14.5s-42.5 23 -59.5 40
s-30.333 36.833 -40 59.5s-14.5 47 -14.5 73z" />
    <glyph glyph-name="guilsinglleft" unicode="&#x2039;" horiz-adv-x="336" 
d="M189 225l122 -150h-135l-116 150l116 150h135z" />
    <glyph glyph-name="guilsinglright" unicode="&#x203a;" horiz-adv-x="336" 
d="M25 375h135l116 -150l-116 -150h-135l122 150z" />
    <glyph glyph-name="fraction" unicode="&#x2044;" horiz-adv-x="568" 
d="M0 0l445 700h123l-445 -700h-123z" />
    <glyph glyph-name="Euro" unicode="&#x20ac;" 
d="M217 235c0 -25.333 2.33301 -45.6699 7 -61.0029s11.334 -28.666 20.001 -39.999c11.333 -14.667 25.5 -26.167 42.5 -34.5s35.833 -12.5 56.5 -12.5c24.667 0 46.5 6 65.5 18s33.833 27.667 44.5 47l89 -51c-20 -35.333 -47.667 -63.5 -83 -84.5
s-74.333 -31.5 -117 -31.5c-42 0 -80.5 10 -115.5 30s-62.5 47 -82.5 81c-10.667 17.333 -18.667 36.833 -24 58.5s-8 48.5 -8 80.5h-90v85h90v60h-90v85h90c0 32 2.66699 58.833 8 80.5s13.333 41.167 24 58.5c20 34 47.5 61 82.5 81s73.5 30 115.5 30
c42.667 0 81.667 -10.5 117 -31.5s63 -49.167 83 -84.5l-89 -51c-10.667 19.333 -25.5 35 -44.5 47s-40.833 18 -65.5 18c-20.667 0 -39.5 -4.16699 -56.5 -12.5s-31.167 -19.833 -42.5 -34.5c-8.66699 -11.333 -15.334 -24.666 -20.001 -39.999s-7 -35.666 -7 -60.999h237
l-49 -85h-188v-60h154l-50 -85h-104z" />
    <glyph glyph-name="trademark" unicode="&#x2122;" horiz-adv-x="886" 
d="M591 437l127 267l138 -438h-78l-74 233l-113 -237l-113 237l-74 -233h-78l138 438zM150 632h-120v68h315v-68h-120v-366h-75v366z" />
    <glyph glyph-name="Omega" unicode="&#x2126;" horiz-adv-x="1122" 
d="M561 832c-54 0 -102.337 -10.167 -145.004 -30.5s-79 -47.666 -109 -81.999s-53 -73.833 -69 -118.5s-24 -91 -24 -139c0 -47.333 6.33301 -92.166 19 -134.499s30.167 -82.166 52.5 -119.499s48.833 -72.333 79.5 -105s64.334 -62.667 101.001 -90l-7 -13h-341l-74 141
h36l47 -70h175c-30 21.333 -58.5 45.833 -85.5 73.5s-50.667 57.667 -71 90s-36.333 67.333 -48 105s-17.5 77.167 -17.5 118.5c0 66 13.667 125 41 177s63.5 96 108.5 132s96.333 63.333 154 82s116.834 28 177.501 28s119.834 -9.33301 177.501 -28s109 -46 154 -82
s81.167 -80 108.5 -132s41 -111 41 -177c0 -41.333 -5.83301 -80.833 -17.5 -118.5s-27.667 -72.667 -48 -105s-44 -62.333 -71 -90s-55.5 -52.167 -85.5 -73.5h175l47 70h36l-74 -141h-341l-7 13c36.667 27.333 70.334 57.333 101.001 90s57.167 67.667 79.5 105
s39.833 77.166 52.5 119.499s19 87.166 19 134.499c0 48 -8 94.333 -24 139s-39 84.167 -69 118.5s-66.333 61.666 -109 81.999s-91 30.5 -145 30.5z" />
    <glyph glyph-name="partialdiff" unicode="&#x2202;" 
d="M465 384c11.333 -20 20.6709 -37.6699 28.0039 -53.0029s13 -29.333 17 -42s6.66699 -24.5 8 -35.5s2 -22.167 2 -33.5c0 -32.667 -6.33301 -63.167 -19 -91.5s-29.834 -53.166 -51.501 -74.499s-47.167 -38.166 -76.5 -50.499s-60.333 -18.5 -93 -18.5
c-33.333 0 -64.5 6.33301 -93.5 19s-54.333 29.834 -76 51.501s-38.834 47 -51.501 76s-19 60.167 -19 93.5c0 37.333 7 70.5 21 99.5s31.667 53.5 53 73.5s45.166 35.167 71.499 45.5s51.833 15.5 76.5 15.5c7.33301 0 14.666 -0.333008 21.999 -1s14 -1.66699 20 -3
l-142 245h122zM280.005 86.9971c19.333 0 37.333 3.66699 54 11s31 17.333 43 30s21.333 27.334 28 44.001s10 34.334 10 53.001s-3.33301 36.334 -10 53.001s-16 31.334 -28 44.001s-26.333 22.667 -43 30s-34.667 11 -54 11s-37.333 -3.66699 -54 -11s-31 -17.333 -43 -30
s-21.333 -27.334 -28 -44.001s-10 -34.334 -10 -53.001s3.33301 -36.334 10 -53.001s16 -31.334 28 -44.001s26.333 -22.667 43 -30s34.667 -11 54 -11z" />
    <glyph glyph-name="Delta" unicode="&#x2206;" 
d="M399 102l-119 319l-119 -319h238zM549 0h-538l269 720z" />
    <glyph glyph-name="product" unicode="&#x220f;" horiz-adv-x="591" 
d="M130 0v598h-100v102h531v-102h-100v-598h-105v598h-121v-598h-105z" />
    <glyph glyph-name="summation" unicode="&#x2211;" horiz-adv-x="599" 
d="M449 498v100h-209l154 -238l-167 -258h222v100h105v-202h-519l234 360l-220 340h505v-202h-105z" />
    <glyph glyph-name="minus" unicode="&#x2212;" 
d="M515 195h-470v102h470v-102z" />
    <glyph glyph-name="uni2219" unicode="&#x2219;" horiz-adv-x="295" 
d="M70 398c0 21.333 7.5 39.666 22.5 54.999s33.167 23 54.5 23s39.666 -7.66699 54.999 -23s23 -33.666 23 -54.999s-7.66699 -39.5 -23 -54.5s-33.666 -22.5 -54.999 -22.5s-39.5 7.5 -54.5 22.5s-22.5 33.167 -22.5 54.5z" />
    <glyph glyph-name="radical" unicode="&#x221a;" 
d="M504 700h114l-310 -720l-158 368h-130v102h201l87 -206z" />
    <glyph glyph-name="infinity" unicode="&#x221e;" horiz-adv-x="764" 
d="M554 191c23.333 0 42.5 8.5 57.5 25.5s22.5 37.167 22.5 60.5s-7.5 43.5 -22.5 60.5s-34.167 25.5 -57.5 25.5c-22.667 0 -42.5 -8.33301 -59.5 -25s-34.167 -37 -51.5 -61c17.333 -24 34.5 -44.333 51.5 -61s36.833 -25 59.5 -25zM382 195
c-8.66699 -13.333 -18.5 -26.333 -29.5 -39s-23.5 -24 -37.5 -34s-29.667 -18 -47 -24s-36.666 -9 -57.999 -9c-26.667 0 -51.334 4.83301 -74.001 14.5s-42.167 23 -58.5 40s-29.166 37 -38.499 60s-14 47.5 -14 73.5s4.66699 50.333 14 73s22.166 42.5 38.499 59.5
s35.833 30.5 58.5 40.5s47.334 15 74.001 15c21.333 0 40.666 -3 57.999 -9s33 -14 47 -24s26.5 -21.333 37.5 -34s20.833 -25.667 29.5 -39c8.66699 13.333 18.5 26.333 29.5 39s23.5 24 37.5 34s29.667 18 47 24s36.666 9 57.999 9c26.667 0 51.167 -5 73.5 -15
s41.833 -23.5 58.5 -40.5s29.667 -36.833 39 -59.5s14 -47 14 -73s-4.66699 -50.5 -14 -73.5s-22.333 -43 -39 -60s-36.167 -30.333 -58.5 -40s-46.833 -14.5 -73.5 -14.5c-21.333 0 -40.666 3 -57.999 9s-33 14 -47 24s-26.5 21.333 -37.5 34s-20.833 25.667 -29.5 39z
M210 191c22.667 0 42.5 8.33301 59.5 25s34.167 37 51.5 61c-17.333 24 -34.5 44.333 -51.5 61s-36.833 25 -59.5 25c-23.333 0 -42.5 -8.5 -57.5 -25.5s-22.5 -37.167 -22.5 -60.5s7.5 -43.5 22.5 -60.5s34.167 -25.5 57.5 -25.5z" />
    <glyph glyph-name="uni2224" unicode="&#x2224;" horiz-adv-x="295" 
d="M70 398c0 21.333 7.5 39.666 22.5 54.999s33.167 23 54.5 23s39.666 -7.66699 54.999 -23s23 -33.666 23 -54.999s-7.66699 -39.5 -23 -54.5s-33.666 -22.5 -54.999 -22.5s-39.5 7.5 -54.5 22.5s-22.5 33.167 -22.5 54.5z" />
    <glyph glyph-name="logicaland" unicode="&#x2227;" horiz-adv-x="295" 
d="M70 398c0 21.333 7.5 39.666 22.5 54.999s33.167 23 54.5 23s39.666 -7.66699 54.999 -23s23 -33.666 23 -54.999s-7.66699 -39.5 -23 -54.5s-33.666 -22.5 -54.999 -22.5s-39.5 7.5 -54.5 22.5s-22.5 33.167 -22.5 54.5z" />
    <glyph glyph-name="integral" unicode="&#x222b;" horiz-adv-x="429" 
d="M267 -72c0 -34 -4.66699 -62.167 -14 -84.5s-22.666 -40.833 -39.999 -55.5c-13.333 -11.333 -29 -20.5 -47 -27.5s-36.667 -10.5 -56 -10.5c-33.333 0 -63.333 9.33301 -90 28l60 84c9.33301 -6.66699 20 -10 32 -10c11.333 0 22 4.33301 32 13
c5.33301 5.33301 9.66602 12.166 12.999 20.499s5 21.5 5 39.5v612c0 34 4.66699 62.167 14 84.5s22.666 40.833 39.999 55.5c13.333 11.333 29 20.5 47 27.5s36.667 10.5 56 10.5c33.333 0 63.333 -9.33301 90 -28l-60 -84c-9.33301 6.66699 -20 10 -32 10
c-11.333 0 -22 -4.33301 -32 -13c-5.33301 -5.33301 -9.66602 -12.166 -12.999 -20.499s-5 -21.5 -5 -39.5v-612z" />
    <glyph glyph-name="approxequal" unicode="&#x2248;" 
d="M34 66c2 20 7.16699 38.667 15.5 56s19.166 32.5 32.499 45.5s28.666 23.333 45.999 31s36 11.5 56 11.5c24.667 0 45.5 -4 62.5 -12s32.167 -17 45.5 -27l37.5 -27c11.667 -8 25.167 -12 40.5 -12c21.333 0 36.333 6.16699 45 18.5s14.334 26.833 17.001 43.5l94 -20
c-2 -20 -7.16699 -38.833 -15.5 -56.5s-19.166 -33 -32.499 -46s-28.666 -23.167 -45.999 -30.5s-36 -11 -56 -11c-25.333 0 -46.333 4 -63 12s-31.667 17 -45 27s-26 19 -38 27s-25.333 12 -40 12c-21.333 0 -36.333 -6.16699 -45 -18.5s-14.334 -26.833 -17.001 -43.5z
M34 282c2 20 7.16699 38.667 15.5 56s19.166 32.5 32.499 45.5s28.666 23.333 45.999 31s36 11.5 56 11.5c24.667 0 45.5 -4 62.5 -12s32.167 -17 45.5 -27l37.5 -27c11.667 -8 25.167 -12 40.5 -12c21.333 0 36.333 6.16699 45 18.5s14.334 26.833 17.001 43.5l94 -20
c-2 -20 -7.16699 -38.833 -15.5 -56.5s-19.166 -33 -32.499 -46s-28.666 -23.167 -45.999 -30.5s-36 -11 -56 -11c-25.333 0 -46.333 4 -63 12s-31.667 17 -45 27s-26 19 -38 27s-25.333 12 -40 12c-21.333 0 -36.333 -6.16699 -45 -18.5s-14.334 -26.833 -17.001 -43.5z
" />
    <glyph glyph-name="notequal" unicode="&#x2260;" 
d="M224 93l-60 -86h-104l60 86h-75v102h149l71 102h-220v102h291l60 86h104l-60 -86h75v-102h-146l-71 -102h217v-102h-291z" />
    <glyph glyph-name="lessequal" unicode="&#x2264;" 
d="M472 11h-400v102h400v-102zM316 316l156 -69v-115l-410 184l410 184v-115z" />
    <glyph glyph-name="greaterequal" unicode="&#x2265;" 
d="M88 113h400v-102h-400v102zM88 385v115l410 -184l-410 -184v115l156 69z" />
    <glyph glyph-name="dotmath" unicode="&#x22c5;" horiz-adv-x="295" 
d="M70 398c0 21.333 7.5 39.666 22.5 54.999s33.167 23 54.5 23s39.666 -7.66699 54.999 -23s23 -33.666 23 -54.999s-7.66699 -39.5 -23 -54.5s-33.666 -22.5 -54.999 -22.5s-39.5 7.5 -54.5 22.5s-22.5 33.167 -22.5 54.5z" />
    <glyph glyph-name="uni2337" unicode="&#x2337;" horiz-adv-x="539" 
d="M362 102v496h-185v-496h185zM75 700h389v-700h-389v700z" />
    <glyph glyph-name="lozenge" unicode="&#x25ca;" 
d="M158 350l122 -183l122 183l-122 183zM528 350l-248 -370l-248 370l248 370z" />
    <glyph glyph-name="a.ss01" unicode="&#xe000;" horiz-adv-x="825" 
d="M413 416c-27.333 0 -51.6689 -5.16504 -73.002 -15.498s-39.5 -24 -54.5 -41s-26.5 -36.667 -34.5 -59s-12 -45.5 -12 -69.5c0 -47.333 11.833 -89.666 35.5 -126.999s53.834 -70 90.501 -98l-3 -6h-171l-37 70h18l24 -35h87c-30 21.333 -56 48.666 -78 81.999
s-33 70.666 -33 111.999c0 32.667 6.83301 62 20.5 88s31.834 48 54.501 66s48.5 31.667 77.5 41s58.5 14 88.5 14s59.5 -4.66699 88.5 -14s54.667 -23 77 -41s40.333 -40 54 -66s20.5 -55.333 20.5 -88c0 -42 -10.833 -79.5 -32.5 -112.5s-47.834 -60.167 -78.501 -81.5h88
l23 35h18l-37 -70h-170l-4 6c36.667 28 66.834 60.667 90.501 98s35.5 79.666 35.5 126.999c0 24 -4 47.167 -12 69.5s-19.5 42 -34.5 59s-33.167 30.667 -54.5 41s-45.333 15.5 -72 15.5z" />
    <glyph glyph-name="b.ss01" unicode="&#xe001;" horiz-adv-x="1902" 
d="M22 175c0 24.667 4.83301 48.167 14.5 70.5s22.667 41.666 39 57.999s35.666 29.333 57.999 39s46.166 14.5 71.499 14.5c24.667 0 48.167 -4.83301 70.5 -14.5s41.666 -22.667 57.999 -39s29.333 -35.666 39 -57.999s14.5 -45.833 14.5 -70.5
c0 -25.333 -4.83301 -49.166 -14.5 -71.499s-22.667 -41.666 -39 -57.999s-35.666 -29.333 -57.999 -39s-45.833 -14.5 -70.5 -14.5c-25.333 0 -49.166 4.83301 -71.499 14.5s-41.666 22.667 -57.999 39s-29.333 35.666 -39 57.999s-14.5 46.166 -14.5 71.499zM400 0
l113 360l103 -240l103 240l114 -360h-55l-66 212l-96 -222l-95 222l-66 -212h-55zM335 175c0 18 -3.33301 35 -10 51s-15.834 30 -27.501 42s-25.5 21.333 -41.5 28s-33 10 -51 10s-35 -3.33301 -51 -10s-29.833 -16 -41.5 -28s-20.834 -26 -27.501 -42s-10 -33 -10 -51
c0 -18.667 3.33301 -36 10 -52s15.834 -30 27.501 -42s25.5 -21.333 41.5 -28s33 -10 51 -10s35 3.33301 51 10s29.833 16 41.5 28s20.834 26 27.501 42s10 33.333 10 52zM1503 0l188 370l189 -370h-59l-37 72h-186l-36 -72h-59zM1325 306
c-18 0 -35.001 -3.33203 -51.001 -9.99902s-29.833 -16 -41.5 -28s-20.834 -26 -27.501 -42s-10 -33 -10 -51c0 -18.667 3.33301 -36 10 -52s15.834 -30 27.501 -42s25.5 -21.333 41.5 -28s33 -10 51 -10c30 0 56.667 8.83301 80 26.5s38.666 40.167 45.999 67.5h-123v51
h179c0.666992 -2 1 -4.33301 1 -7v-6c0 -25.333 -4.83301 -49.166 -14.5 -71.499s-22.667 -41.666 -39 -57.999s-35.666 -29.333 -57.999 -39s-46.166 -14.5 -71.499 -14.5s-49 4.83301 -71 14.5s-41.167 22.667 -57.5 39s-29.333 35.666 -39 57.999
s-14.5 46.166 -14.5 71.499c0 24.667 4.83301 48.167 14.5 70.5s22.667 41.666 39 57.999s35.5 29.333 57.5 39s45.667 14.5 71 14.5c31.333 0 59.833 -7 85.5 -21s46.834 -32.667 63.501 -56l-42 -30c-11.333 17.333 -26.333 31 -45 41s-39.334 15 -62.001 15z
M1090 350.001v-51h-160v-98h155v-51h-155v-99h160v-51h-212v350h212zM1624 123.001h134l-67 131z" />
    <glyph glyph-name="c.ss01" unicode="&#xe002;" horiz-adv-x="1902" 
d="M22 175c0 24.667 4.83301 48.167 14.5 70.5s22.667 41.666 39 57.999s35.666 29.333 57.999 39s46.166 14.5 71.499 14.5c24.667 0 48.167 -4.83301 70.5 -14.5s41.666 -22.667 57.999 -39s29.333 -35.666 39 -57.999s14.5 -45.833 14.5 -70.5
c0 -25.333 -4.83301 -49.166 -14.5 -71.499s-22.667 -41.666 -39 -57.999s-35.666 -29.333 -57.999 -39s-45.833 -14.5 -70.5 -14.5c-25.333 0 -49.166 4.83301 -71.499 14.5s-41.666 22.667 -57.999 39s-29.333 35.666 -39 57.999s-14.5 46.166 -14.5 71.499zM923 871
c-26.667 0 -50.668 -5.16895 -72.001 -15.502s-39.5 -24 -54.5 -41s-26.5 -36.667 -34.5 -59s-12 -45.5 -12 -69.5c0 -47.333 11.833 -89.666 35.5 -126.999s53.834 -70 90.501 -98l-4 -6h-170l-37 70h18l23 -35h88c-30.667 21.333 -56.834 48.5 -78.501 81.5
s-32.5 70.5 -32.5 112.5c0 32.667 6.83301 62 20.5 88s31.667 48 54 66s48 31.667 77 41s58.5 14 88.5 14s59.5 -4.66699 88.5 -14s54.833 -23 77.5 -41s40.834 -40 54.501 -66s20.5 -55.333 20.5 -88c0 -41.333 -11 -78.666 -33 -111.999s-48 -60.666 -78 -81.999h87l24 35
h18l-37 -70h-171l-3 6c36.667 28 66.834 60.667 90.501 98s35.5 79.666 35.5 126.999c0 24 -4 47.167 -12 69.5s-19.5 42 -34.5 59s-33.333 30.667 -55 41s-45.834 15.5 -72.501 15.5zM399.999 -0.00195312l113 360l103 -240l103 240l114 -360h-55l-66 212l-96 -222l-95 222
l-66 -212h-55zM334.999 174.998c0 18 -3.33301 35 -10 51s-15.834 30 -27.501 42s-25.5 21.333 -41.5 28s-33 10 -51 10s-35 -3.33301 -51 -10s-29.833 -16 -41.5 -28s-20.834 -26 -27.501 -42s-10 -33 -10 -51c0 -18.667 3.33301 -36 10 -52s15.834 -30 27.501 -42
s25.5 -21.333 41.5 -28s33 -10 51 -10s35 3.33301 51 10s29.833 16 41.5 28s20.834 26 27.501 42s10 33.333 10 52zM1503 -0.00195312l188 370l189 -370h-59l-37 72h-186l-36 -72h-59zM1325 305.998c-18 0 -35.001 -3.33203 -51.001 -9.99902s-29.833 -16 -41.5 -28
s-20.834 -26 -27.501 -42s-10 -33 -10 -51c0 -18.667 3.33301 -36 10 -52s15.834 -30 27.501 -42s25.5 -21.333 41.5 -28s33 -10 51 -10c30 0 56.667 8.83301 80 26.5s38.666 40.167 45.999 67.5h-123v51h179c0.666992 -2 1 -4.33301 1 -7v-6
c0 -25.333 -4.83301 -49.166 -14.5 -71.499s-22.667 -41.666 -39 -57.999s-35.666 -29.333 -57.999 -39s-46.166 -14.5 -71.499 -14.5s-49 4.83301 -71 14.5s-41.167 22.667 -57.5 39s-29.333 35.666 -39 57.999s-14.5 46.166 -14.5 71.499
c0 24.667 4.83301 48.167 14.5 70.5s22.667 41.666 39 57.999s35.5 29.333 57.5 39s45.667 14.5 71 14.5c31.333 0 59.833 -7 85.5 -21s46.834 -32.667 63.501 -56l-42 -30c-11.333 17.333 -26.333 31 -45 41s-39.334 15 -62.001 15zM1090 349.999v-51h-160v-98h155v-51
h-155v-99h160v-51h-212v350h212zM1624 122.999h134l-67 131z" />
    <glyph glyph-name="d.ss01" unicode="&#xe003;" horiz-adv-x="2596" 
d="M716 175c0 24.667 4.83301 48.167 14.5 70.5s22.667 41.666 39 57.999s35.666 29.333 57.999 39s46.166 14.5 71.499 14.5c24.667 0 48.167 -4.83301 70.5 -14.5s41.666 -22.667 57.999 -39s29.333 -35.666 39 -57.999s14.5 -45.833 14.5 -70.5
c0 -25.333 -4.83301 -49.166 -14.5 -71.499s-22.667 -41.666 -39 -57.999s-35.666 -29.333 -57.999 -39s-45.833 -14.5 -70.5 -14.5c-25.333 0 -49.166 4.83301 -71.499 14.5s-41.666 22.667 -57.999 39s-29.333 35.666 -39 57.999s-14.5 46.166 -14.5 71.499zM281 416
c-27.333 0 -51.6689 -5.16504 -73.002 -15.498s-39.5 -24 -54.5 -41s-26.5 -36.667 -34.5 -59s-12 -45.5 -12 -69.5c0 -47.333 11.833 -89.666 35.5 -126.999s53.834 -70 90.501 -98l-3 -6h-171l-37 70h18l24 -35h87c-30 21.333 -56 48.666 -78 81.999
s-33 70.666 -33 111.999c0 32.667 6.83301 62 20.5 88s31.834 48 54.501 66s48.5 31.667 77.5 41s58.5 14 88.5 14s59.5 -4.66699 88.5 -14s54.667 -23 77 -41s40.333 -40 54 -66s20.5 -55.333 20.5 -88c0 -42 -10.833 -79.5 -32.5 -112.5s-47.834 -60.167 -78.501 -81.5h88
l23 35h18l-37 -70h-170l-4 6c36.667 28 66.834 60.667 90.501 98s35.5 79.666 35.5 126.999c0 24 -4 47.167 -12 69.5s-19.5 42 -34.5 59s-33.167 30.667 -54.5 41s-45.333 15.5 -72 15.5zM1094 0.00195312l113 360l103 -240l103 240l114 -360h-55l-66 212l-96 -222l-95 222
l-66 -212h-55zM1029 175.002c0 18 -3.33301 35 -10 51s-15.834 30 -27.501 42s-25.5 21.333 -41.5 28s-33 10 -51 10s-35 -3.33301 -51 -10s-29.833 -16 -41.5 -28s-20.834 -26 -27.501 -42s-10 -33 -10 -51c0 -18.667 3.33301 -36 10 -52s15.834 -30 27.501 -42
s25.5 -21.333 41.5 -28s33 -10 51 -10s35 3.33301 51 10s29.833 16 41.5 28s20.834 26 27.501 42s10 33.333 10 52zM2197 0.00195312l188 370l189 -370h-59l-37 72h-186l-36 -72h-59zM2019 306.002c-18 0 -35.001 -3.33203 -51.001 -9.99902s-29.833 -16 -41.5 -28
s-20.834 -26 -27.501 -42s-10 -33 -10 -51c0 -18.667 3.33301 -36 10 -52s15.834 -30 27.501 -42s25.5 -21.333 41.5 -28s33 -10 51 -10c30 0 56.667 8.83301 80 26.5s38.666 40.167 46 67.5h-123v51h179c0.666992 -2 1 -4.33301 1 -7v-6
c0 -25.333 -4.83301 -49.166 -14.5 -71.499s-22.667 -41.666 -39 -57.999s-35.666 -29.333 -57.999 -39s-46.166 -14.5 -71.499 -14.5s-49 4.83301 -71 14.5s-41.167 22.667 -57.5 39s-29.333 35.666 -39 57.999s-14.5 46.166 -14.5 71.499
c0 24.667 4.83301 48.167 14.5 70.5s22.667 41.666 39 57.999s35.5 29.333 57.5 39s45.667 14.5 71 14.5c31.333 0 59.833 -7 85.5 -21s46.834 -32.667 63.5 -56l-42 -30c-11.333 17.333 -26.333 31 -45 41s-39.334 15 -62.001 15zM1784 350.003v-51h-160v-98h155v-51h-155
v-99h160v-51h-212v350h212zM2318 123.003h134l-67 131z" />
    <glyph glyph-name=".null" horiz-adv-x="0" 
 />
    <glyph glyph-name="nonmarkingreturn" horiz-adv-x="250" 
 />
    <glyph glyph-name="parenleft.case" horiz-adv-x="392" 
d="M80 350c0 50 5.66699 98.333 17 145s27.333 90.667 48 132s45.667 80 75 116s62 68 98 96l64 -84c-60.667 -47.333 -108.667 -106 -144 -176s-53 -146.333 -53 -229s17.667 -159 53 -229s83.333 -128.667 144 -176l-64 -84c-36 28 -68.667 60 -98 96
s-54.333 74.667 -75 116s-36.667 85.333 -48 132s-17 95 -17 145z" />
    <glyph glyph-name="parenright.case" horiz-adv-x="392" 
d="M312 350c0 -50 -5.66699 -98.333 -17 -145s-27.333 -90.667 -48 -132s-45.667 -80 -75 -116s-62 -68 -98 -96l-64 84c60.667 47.333 108.667 106 144 176s53 146.333 53 229s-17.667 159 -53 229s-83.333 128.667 -144 176l64 84c36 -28 68.667 -60 98 -96
s54.333 -74.667 75 -116s36.667 -85.333 48 -132s17 -95 17 -145z" />
    <glyph glyph-name="hyphen.case" horiz-adv-x="440" 
d="M55 401h330v-102h-330v102z" />
    <glyph glyph-name="bracketleft.case" horiz-adv-x="335" 
d="M325 -16v-102h-225v935h225v-102h-120v-731h120z" />
    <glyph glyph-name="bracketright.case" horiz-adv-x="335" 
d="M130 -16v731h-120v102h225v-935h-225v102h120z" />
    <glyph glyph-name="braceleft.case" horiz-adv-x="335" 
d="M30 389c17.333 0 29.666 1.33203 36.999 3.99902s13.333 6.33398 18 11.001s8.33398 10.834 11.001 18.501s4 19.834 4 36.501v183c0 31.333 3.83301 56.833 11.5 76.5s18.167 36.5 31.5 50.5c14 14.667 31.5 26.334 52.5 35.001s47.5 13 79.5 13h50v-102h-50
c-17.333 0 -29.666 -1.33301 -36.999 -4s-13.333 -6.33398 -18 -11.001s-8.33398 -10.834 -11.001 -18.501s-4 -19.834 -4 -36.501v-186c0 -26.667 -3.5 -48.834 -10.5 -66.501s-16.833 -32.167 -29.5 -43.5c12.667 -11.333 22.5 -25.833 29.5 -43.5s10.5 -39.5 10.5 -65.5
v-186c0 -16.667 1.33301 -28.834 4 -36.501s6.33398 -13.834 11.001 -18.501s10.667 -8.33398 18 -11.001s19.666 -4 36.999 -4h50v-102h-50c-32 0 -58.5 4.33301 -79.5 13s-38.5 20.334 -52.5 35.001c-13.333 14 -23.833 30.833 -31.5 50.5s-11.5 45.167 -11.5 76.5v183
c0 16.667 -1.33301 28.834 -4 36.501s-6.33398 13.834 -11.001 18.501s-10.667 8.33398 -18 11.001s-19.666 4 -36.999 4v79z" />
    <glyph glyph-name="braceright.case" horiz-adv-x="335" 
d="M305 310c-17.333 0 -29.666 -1.33203 -36.999 -3.99902s-13.333 -6.33398 -18 -11.001s-8.33398 -10.834 -11.001 -18.501s-4 -19.834 -4 -36.501v-183c0 -31.333 -3.83301 -56.833 -11.5 -76.5s-18.167 -36.5 -31.5 -50.5c-14 -14.667 -31.5 -26.334 -52.5 -35.001
s-47.5 -13 -79.5 -13h-50v102h50c17.333 0 29.666 1.33301 36.999 4s13.333 6.33398 18 11.001s8.33398 10.834 11.001 18.501s4 19.834 4 36.501v186c0 26 3.5 47.833 10.5 65.5s16.833 32.167 29.5 43.5c-12.667 11.333 -22.5 25.833 -29.5 43.5
s-10.5 39.834 -10.5 66.501v186c0 16.667 -1.33301 28.834 -4 36.501s-6.33398 13.834 -11.001 18.501s-10.667 8.33398 -18 11.001s-19.666 4 -36.999 4h-50v102h50c32 0 58.5 -4.33301 79.5 -13s38.5 -20.334 52.5 -35.001c13.333 -14 23.833 -30.833 31.5 -50.5
s11.5 -45.167 11.5 -76.5v-183c0 -16.667 1.33301 -28.834 4 -36.501s6.33398 -13.834 11.001 -18.501s10.667 -8.33398 18 -11.001s19.666 -4 36.999 -4v-79z" />
    <glyph glyph-name="guillemotleft.case" horiz-adv-x="571" 
d="M424 350l122 -150h-135l-116 150l116 150h135zM189 350l122 -150h-135l-116 150l116 150h135z" />
    <glyph glyph-name="uni00AD.case" horiz-adv-x="440" 
d="M55 401h330v-102h-330v102z" />
    <glyph glyph-name="guillemotright.case" horiz-adv-x="571" 
d="M25 500h135l116 -150l-116 -150h-135l122 150zM260 500h135l116 -150l-116 -150h-135l122 150z" />
    <glyph glyph-name="endash.case" horiz-adv-x="430" 
d="M20 401h390v-102h-390v102z" />
    <glyph glyph-name="emdash.case" horiz-adv-x="685" 
d="M20 401h645v-102h-645v102z" />
    <glyph glyph-name="guilsinglleft.case" horiz-adv-x="336" 
d="M189 350l122 -150h-135l-116 150l116 150h135z" />
    <glyph glyph-name="guilsinglright.case" horiz-adv-x="336" 
d="M25 500h135l116 -150l-116 -150h-135l122 150z" />
    <glyph glyph-name="zero.lf" horiz-adv-x="596" 
d="M531 302c0 -12 -0.166992 -22.667 -0.5 -32s-0.666016 -18 -0.999023 -26s-0.833008 -17.667 -1.5 -29c-2 -32 -9.16699 -61.833 -21.5 -89.5s-28.666 -52 -48.999 -73s-44 -37.5 -71 -49.5s-56.5 -18 -88.5 -18s-61.5 6 -88.5 18s-50.667 28.5 -71 49.5
s-36.666 45.333 -48.999 73s-19.5 57.5 -21.5 89.5c-0.666992 11.333 -1.16699 21 -1.5 29s-0.666016 16.667 -0.999023 26s-0.5 20 -0.5 32v95c0 12.667 0.166992 23.667 0.5 33s0.666016 18 0.999023 26s0.833008 17.667 1.5 29c2 32 9.16699 61.833 21.5 89.5
s28.666 52 48.999 73s44 37.5 71 49.5s56.5 18 88.5 18s61.5 -6 88.5 -18s50.667 -28.5 71 -49.5s36.666 -45.333 48.999 -73s19.5 -57.5 21.5 -89.5c0.666992 -11.333 1.16699 -21 1.5 -29s0.666016 -16.667 0.999023 -26s0.5 -20.333 0.5 -33v-95zM426 350
c0 25.333 -0.166992 50.166 -0.5 74.499s-1.16602 45.5 -2.49902 63.5c-1.33301 17.333 -5.33301 33.5 -12 48.5s-15.5 28.167 -26.5 39.5s-23.833 20.333 -38.5 27s-30.667 10 -48 10s-33.333 -3.33301 -48 -10s-27.5 -15.667 -38.5 -27s-19.833 -24.5 -26.5 -39.5
s-10.667 -31.167 -12 -48.5c-1.33301 -18 -2.16602 -39.167 -2.49902 -63.5s-0.5 -49.166 -0.5 -74.499s0.166992 -50.166 0.5 -74.499s1.16602 -45.5 2.49902 -63.5c1.33301 -17.333 5.33301 -33.5 12 -48.5s15.5 -28.167 26.5 -39.5s23.833 -20.333 38.5 -27
s30.667 -10 48 -10s33.333 3.33301 48 10s27.5 15.667 38.5 27s19.833 24.5 26.5 39.5s10.667 31.167 12 48.5c1.33301 18 2.16602 39.167 2.49902 63.5s0.5 49.166 0.5 74.499z" />
    <glyph glyph-name="one.lf" horiz-adv-x="370" 
d="M35 433v123l245 164v-720h-105v527z" />
    <glyph glyph-name="two.lf" horiz-adv-x="534" 
d="M234 102l250.003 0.000976562v-102h-464l299 378c19.333 24.667 33.166 46.5 41.499 65.5s12.5 37.167 12.5 54.5c0 16.667 -3.16699 32 -9.5 46s-15 26.167 -26 36.5s-23.667 18.333 -38 24s-29.833 8.5 -46.5 8.5c-17.333 0 -33.333 -3.33301 -48 -10
s-27.334 -15.667 -38.001 -27s-19 -24.333 -25 -39s-9 -30.334 -9 -47.001h-105c0 30.667 5.83301 59.667 17.5 87s27.834 51.333 48.501 72s44.5 36.834 71.5 48.501s56.167 17.5 87.5 17.5s60.666 -5.5 87.999 -16.5s51.166 -26.333 71.499 -46s36.333 -42.834 48 -69.501
s17.5 -56 17.5 -88c0 -26.667 -5.16699 -53.667 -15.5 -81s-29.833 -59.333 -58.5 -96z" />
    <glyph glyph-name="three.lf" horiz-adv-x="520" 
d="M442 524c0 -30 -6.16602 -57.499 -18.499 -82.499s-30.166 -44.833 -53.499 -59.5c27.333 -16 50.833 -39.167 70.5 -69.5s29.5 -65.5 29.5 -105.5c0 -30.667 -5.66699 -59.5 -17 -86.5s-27 -50.5 -47 -70.5s-43.333 -35.833 -70 -47.5s-55 -17.5 -85 -17.5
c-31.333 0 -60.666 5.66699 -87.999 17s-51.166 27 -71.499 47s-36.5 43.5 -48.5 70.5s-18 56.167 -18 87.5h105c0 -16.667 3 -32.167 9 -46.5s14.5 -27 25.5 -38s23.667 -19.667 38 -26s30.166 -9.5 47.499 -9.5c16.667 0 32.167 3.16699 46.5 9.5s26.5 15 36.5 26
s17.833 23.833 23.5 38.5s8.5 30 8.5 46c0 17.333 -3.33301 33.833 -10 49.5s-16 29.167 -28 40.5c-10 9.33301 -21.667 16.666 -35 21.999s-30 8 -50 8h-21v102h19c16 0 29.167 1.83301 39.5 5.5s19.166 8.83398 26.499 15.501c9.33301 8.66699 16.833 19 22.5 31
s8.5 25 8.5 39c0 12.667 -2.16699 24.5 -6.5 35.5s-10.5 20.833 -18.5 29.5s-17.5 15.5 -28.5 20.5s-22.833 7.5 -35.5 7.5c-13.333 0 -25.5 -2.5 -36.5 -7.5s-20.5 -11.833 -28.5 -20.5s-14.333 -18.5 -19 -29.5s-7 -22.833 -7 -35.5h-105c0 26.667 5.16699 52 15.5 76
s24.166 44.667 41.499 62s37.833 31.166 61.5 41.499s49.167 15.5 76.5 15.5c26.667 0 52 -5 76 -15s44.667 -23.667 62 -41s31.166 -37.5 41.499 -60.5s15.5 -47.833 15.5 -74.5z" />
    <glyph glyph-name="four.lf" horiz-adv-x="564" 
d="M344 189v220l-163 -220h163zM-10 90l459 630v-531h100v-99h-100v-90h-105v90h-354z" />
    <glyph glyph-name="five.lf" horiz-adv-x="550" 
d="M73 361l75 339h300v-102h-215l-35 -156c8.66699 4.66699 21 9.16699 37 13.5s32 6.5 48 6.5c33.333 0 64 -6.5 92 -19.5s52 -30.5 72 -52.5s35.5 -47.5 46.5 -76.5s16.5 -59.5 16.5 -91.5c0 -33.333 -6.33301 -64.333 -19 -93s-30 -53.667 -52 -75
s-47.5 -38.166 -76.5 -50.499s-59.833 -18.5 -92.5 -18.5c-33.333 0 -64.5 6.33301 -93.5 19s-54.333 29.834 -76 51.501s-38.834 47 -51.501 76s-19 60.167 -19 93.5h105c0 -18.667 3.33301 -36.334 10 -53.001s16 -31.334 28 -44.001s26.333 -22.667 43 -30
s34.667 -11 54 -11s37.333 3.66699 54 11s31 17.333 43 30s21.333 27.334 28 44.001s10 34.334 10 53.001c0 18 -3.33301 35.167 -10 51.5s-15.667 30.666 -27 42.999s-25.166 22.166 -41.499 29.499s-33.833 11 -52.5 11c-26.667 0 -49.167 -5 -67.5 -15
s-34.5 -24.667 -48.5 -44z" />
    <glyph glyph-name="six.lf" horiz-adv-x="570" 
d="M281 700l122.005 0.00292969l-142 -245c6 1.33301 12.667 2.33301 20 3s14.666 1 21.999 1c24.667 0 50.167 -5.16699 76.5 -15.5s50.166 -25.5 71.499 -45.5s39 -44.5 53 -73.5s21 -62.167 21 -99.5c0 -33.333 -6.33301 -64.5 -19 -93.5s-29.834 -54.333 -51.501 -76
s-47.167 -38.834 -76.5 -51.501s-60.333 -19 -93 -19c-33.333 0 -64.5 6.16699 -93.5 18.5s-54.333 29.166 -76 50.499s-38.834 46.166 -51.501 74.499s-19 58.833 -19 91.5c0 11.333 0.666992 22.5 2 33.5s4 22.833 8 35.5s9.66699 26.667 17 42s16.666 33 27.999 53z
M285.005 87.0029c19.333 0 37.333 3.66699 54 11s31 17.333 43 30s21.333 27.334 28 44.001s10 34.334 10 53.001s-3.33301 36.334 -10 53.001s-16 31.334 -28 44.001s-26.333 22.667 -43 30s-34.667 11 -54 11s-37.333 -3.66699 -54 -11s-31 -17.333 -43 -30
s-21.333 -27.334 -28 -44.001s-10 -34.334 -10 -53.001s3.33301 -36.334 10 -53.001s16 -31.334 28 -44.001s26.333 -22.667 43 -30s34.667 -11 54 -11z" />
    <glyph glyph-name="seven.lf" horiz-adv-x="509" 
d="M499 700l-304 -700h-115l260 598h-310v102h469z" />
    <glyph glyph-name="eight.lf" horiz-adv-x="544" 
d="M272 715c26.667 0 51.8301 -5 75.4971 -15s44.334 -23.667 62.001 -41s31.667 -37.5 42 -60.5s15.5 -47.833 15.5 -74.5c0 -29.333 -6.16699 -56.166 -18.5 -80.499s-28.5 -44.833 -48.5 -61.5c28 -19.333 50.667 -44.666 68 -75.999s26 -66 26 -104
c0 -30 -5.83301 -58.333 -17.5 -85s-27.667 -49.667 -48 -69s-44 -34.666 -71 -45.999s-55.5 -17 -85.5 -17s-58.5 5.66699 -85.5 17s-50.667 26.666 -71 45.999s-36.333 42.333 -48 69s-17.5 55 -17.5 85c0 38 8.66699 72.667 26 104s40 56.666 68 75.999
c-20 16.667 -36.167 37.167 -48.5 61.5s-18.5 51.166 -18.5 80.499c0 26.667 5.16699 51.5 15.5 74.5s24.333 43.167 42 60.5s38.334 31 62.001 41s48.834 15 75.501 15zM388.996 207c0 16 -2.83301 31.333 -8.5 46s-13.834 27.5 -24.501 38.5s-23.167 19.667 -37.5 26
s-29.833 9.5 -46.5 9.5c-17.333 0 -33 -3.16699 -47 -9.5s-26.333 -15 -37 -26s-18.834 -23.833 -24.501 -38.5s-8.5 -30 -8.5 -46s2.83301 -31.333 8.5 -46s13.834 -27.5 24.501 -38.5s23 -19.667 37 -26s29.667 -9.5 47 -9.5c16.667 0 32.167 3.16699 46.5 9.5
s26.833 15 37.5 26s18.834 23.833 24.501 38.5s8.5 30 8.5 46zM361.996 520c0 25.333 -8.33301 47.166 -25 65.499s-38.334 27.5 -65.001 27.5s-48.334 -9.16699 -65.001 -27.5s-25 -40.166 -25 -65.499s8.33301 -47.166 25 -65.499s38.334 -27.5 65.001 -27.5
s48.334 9.16699 65.001 27.5s25 40.166 25 65.499z" />
    <glyph glyph-name="nine.lf" 
d="M279 0l-122.005 -0.00292969l142 245c-6 -1.33301 -12.667 -2.33301 -20 -3s-14.666 -1 -21.999 -1c-24.667 0 -50.167 5.16699 -76.5 15.5s-50.166 25.5 -71.499 45.5s-39 44.5 -53 73.5s-21 62.167 -21 99.5c0 32.667 6.33301 63.667 19 93s29.834 54.833 51.501 76.5
s47 38.834 76 51.501s60.167 19 93.5 19c32.667 0 63.667 -6.16699 93 -18.5s54.833 -29.166 76.5 -50.499s38.834 -46.166 51.501 -74.499s19 -58.833 19 -91.5c0 -11.333 -0.666992 -22.5 -2 -33.5s-4 -22.833 -8 -35.5s-9.66699 -26.667 -17 -42s-16.666 -33 -27.999 -53
zM274.995 612.997c-19.333 0 -37.333 -3.66699 -54 -11s-31 -17.333 -43 -30s-21.333 -27.334 -28 -44.001s-10 -34.334 -10 -53.001s3.33301 -36.334 10 -53.001s16 -31.334 28 -44.001s26.333 -22.667 43 -30s34.667 -11 54 -11s37.333 3.66699 54 11s31 17.333 43 30
s21.333 27.334 28 44.001s10 34.334 10 53.001s-3.33301 36.334 -10 53.001s-16 31.334 -28 44.001s-26.333 22.667 -43 30s-34.667 11 -54 11z" />
    </font>
</defs>
</svg>
